<svg width="110" height="100" fill="none" xmlns="http://www.w3.org/2000/svg"><path d="M105.718 11.202a11.303 11.303 0 00-4.027-3.318 11.464 11.464 0 00-5.11-1.175H94.14V4.984a1.97 1.97 0 00-.589-1.403A2.024 2.024 0 0092.13 3c-.533 0-1.045.209-1.422.581a1.97 1.97 0 00-.588 1.403v7.438c0 .526.212 1.031.588 1.403.377.372.889.581 1.422.581.533 0 1.044-.209 1.421-.581a1.97 1.97 0 00.589-1.403v-1.716h2.442c1.145 0 2.275.262 3.3.766a7.375 7.375 0 012.607 2.137 7.253 7.253 0 011.368 3.06 7.194 7.194 0 01-.159 3.34l-7.498 25.917a17.72 17.72 0 01-6.452 9.287 18.12 18.12 0 01-10.82 3.577 18.12 18.12 0 01-10.82-3.577 17.721 17.721 0 01-6.452-9.287L54.147 20.01a7.195 7.195 0 01-.164-3.343 7.243 7.243 0 011.367-3.062 7.366 7.366 0 012.61-2.137 7.469 7.469 0 013.303-.761h2.492v1.715c0 .526.212 1.031.59 1.403a2.024 2.024 0 002.843 0 1.97 1.97 0 00.588-1.403V4.984a1.97 1.97 0 00-.59-1.403A2.024 2.024 0 0065.767 3c-.534 0-1.045.209-1.422.581a1.97 1.97 0 00-.589 1.403v1.725h-2.492a11.482 11.482 0 00-5.109 1.177 11.323 11.323 0 00-4.027 3.316 11.156 11.156 0 00-2.122 4.742 11.085 11.085 0 00.262 5.177l7.458 25.896a21.44 21.44 0 007.91 11.377 22.605 22.605 0 002.573 1.646l.241.139 8.413 19.678v2.093c0 1.4-.28 2.789-.824 4.084a10.665 10.665 0 01-2.344 3.462 10.83 10.83 0 01-3.508 2.313 10.94 10.94 0 01-8.278 0 10.828 10.828 0 01-3.508-2.313 10.665 10.665 0 01-2.344-3.462 10.55 10.55 0 01-.824-4.085V62.828a15.027 15.027 0 00-1.057-5.937 15.187 15.187 0 00-3.312-5.065 15.419 15.419 0 00-5.047-3.396 15.587 15.587 0 00-11.974 0 15.418 15.418 0 00-5.046 3.396 15.184 15.184 0 00-3.312 5.065 15.025 15.025 0 00-1.058 5.937v7.25l-.643.13a13.347 13.347 0 00-8.07 5.09 13.025 13.025 0 00-2.526 9.116 13.092 13.092 0 004.322 8.435 13.428 13.428 0 008.938 3.396c3.303 0 6.488-1.21 8.938-3.396a13.092 13.092 0 004.322-8.435 13.025 13.025 0 00-2.527-9.116 13.347 13.347 0 00-8.07-5.09l-.643-.13v-7.25c0-2.972 1.197-5.823 3.326-7.925a11.435 11.435 0 018.031-3.283c3.013 0 5.901 1.181 8.031 3.283a11.134 11.134 0 013.327 7.925V81.95a14.496 14.496 0 001.018 5.73 14.65 14.65 0 003.195 4.888 14.875 14.875 0 004.87 3.279 15.038 15.038 0 0011.555 0 14.875 14.875 0 004.869-3.28 14.65 14.65 0 003.195-4.888 14.496 14.496 0 001.018-5.73v-2.241l8.382-19.53.242-.138c.894-.49 1.754-1.04 2.573-1.646a21.552 21.552 0 007.91-11.377l7.508-25.916c.5-1.674.598-3.441.286-5.16a11.15 11.15 0 00-2.085-4.739zM35.774 83.09a9.079 9.079 0 01-1.565 5.092 9.262 9.262 0 01-4.168 3.375 9.403 9.403 0 01-5.366.522 9.327 9.327 0 01-4.755-2.509 9.127 9.127 0 01-2.542-4.692 9.051 9.051 0 01.529-5.295 9.192 9.192 0 013.42-4.113 9.376 9.376 0 0111.724 1.143 9.114 9.114 0 012.723 6.477zm43.148-8.837l-5.116-12.031 1.448.238c2.46.417 4.976.417 7.437 0l1.447-.238-5.216 12.03z" fill="#134C5F"/><path d="M24.116 83.43c0 .393.118.778.34 1.105.221.327.537.582.905.733a2.043 2.043 0 002.198-.432 1.964 1.964 0 00.437-2.168 1.996 1.996 0 00-.742-.893 2.038 2.038 0 00-2.547.247c-.379.373-.591.88-.591 1.407zM36.31 32.46a1.845 1.845 0 00-2.552.367c-.272.369-.575.737-.887 1.085a1.756 1.756 0 00-.272 1.97c.106.212.253.402.433.557.328.295.756.459 1.2.458a1.858 1.858 0 001.362-.607c.383-.428.746-.866 1.09-1.323a1.792 1.792 0 00-.374-2.508zM38.045 30.21c.388.002.767-.12 1.08-.347.312-.228.542-.549.654-.916a21.82 21.82 0 00.444-1.641c.1-.466.01-.953-.252-1.353a1.856 1.856 0 00-1.14-.786 1.847 1.847 0 00-1.371.244 1.801 1.801 0 00-.797 1.129c-.1.447-.222.905-.353 1.353a1.74 1.74 0 00.121 1.363 1.84 1.84 0 001.614.955zM28.493 37.395c-.403.218-.827.427-1.26.626-.378.169-.687.46-.873.826a1.77 1.77 0 00.48 2.198 1.831 1.831 0 001.885.24c.525-.23 1.009-.488 1.543-.756a1.813 1.813 0 00.864-1.079 1.773 1.773 0 00-.163-1.364 1.8 1.8 0 00-1.093-.852 1.846 1.846 0 00-1.383.16zM18.488 10.67v11.611l-5.669 5.592a1.769 1.769 0 00-.226 2.265c.2.294.482.523.813.658a1.84 1.84 0 001.975-.386l6.203-6.119a1.74 1.74 0 00.535-1.263V10.67c0-.475-.192-.93-.532-1.267a1.828 1.828 0 00-1.284-.524c-.481 0-.943.189-1.284.524-.34.336-.531.792-.531 1.267z" fill="#134C5F"/><path d="M20.384 43.056c.565 0 1.15 0 1.715-.07.478-.04.92-.266 1.23-.627a1.794 1.794 0 00-.212-2.547 1.814 1.814 0 00-1.321-.418c-.464 0-.948.06-1.412.06h-.08a16.84 16.84 0 01-8.261-2.17 16.555 16.555 0 01-6.083-5.923 16.268 16.268 0 01-2.305-8.12 16.26 16.26 0 012.08-8.178 16.537 16.537 0 015.918-6.085 16.83 16.83 0 018.198-2.39c2.897-.08 5.765.587 8.32 1.935a16.574 16.574 0 016.253 5.75H30.56c-.482 0-.943.188-1.284.524-.34.336-.532.791-.532 1.267 0 .474.192.93.532 1.266.34.336.802.524 1.284.524h4.74a5.26 5.26 0 002.734-.756l.15-.09a5.222 5.222 0 001.749-1.876c.415-.76.633-1.608.632-2.471V8.114a1.79 1.79 0 00-.578-1.186 1.84 1.84 0 00-2.484 0 1.79 1.79 0 00-.579 1.186v3.472a20.192 20.192 0 00-6.469-5.865 20.552 20.552 0 00-17.089-1.499A20.33 20.33 0 005.951 8.87a19.992 19.992 0 00-4.404 6.495 19.772 19.772 0 000 15.326 19.991 19.991 0 004.404 6.495 20.19 20.19 0 006.58 4.352 20.414 20.414 0 007.772 1.518h.081z" fill="#134C5F"/></svg>