<svg width="90" height="100" fill="none" xmlns="http://www.w3.org/2000/svg"><path d="M44.987 100.001c-2.412 0-4.798-.632-6.947-1.869L6.947 80.106C2.674 77.606 0 73 0 68.026V31.975C0 27 2.674 22.37 6.947 19.895L38.04 1.87a13.935 13.935 0 0113.894 0l31.093 18.026C87.3 22.37 89.974 27 89.974 31.975v36.052c0 4.974-2.674 9.605-6.948 12.079L51.934 98.132a13.83 13.83 0 01-6.947 1.869zm0-95.79a9.637 9.637 0 00-4.85 1.29L9.045 23.527a9.798 9.798 0 00-4.85 8.447v36.053a9.798 9.798 0 004.85 8.447l31.092 18a9.68 9.68 0 009.7 0l31.092-18.026A9.798 9.798 0 0085.78 68V31.948a9.798 9.798 0 00-4.85-8.448l-31.066-18a9.803 9.803 0 00-4.876-1.289z" fill="#134C5F"/><path d="M45.065 52.105c-2.411 0-4.797-.631-6.947-1.868L7.97 32.763a2.108 2.108 0 01-.76-2.868 2.091 2.091 0 012.857-.763l30.148 17.473a9.68 9.68 0 009.7 0l30.018-17.394a2.091 2.091 0 012.857.763c.577 1 .236 2.29-.76 2.868L52.013 50.237a13.901 13.901 0 01-6.948 1.868zM44.987 99.29a2.107 2.107 0 01-2.097-2.106V60.79c0-1.158.943-2.105 2.097-2.105s2.097.947 2.097 2.105v36.394a2.09 2.09 0 01-2.097 2.106z" fill="#134C5F"/></svg>