<svg width="131" height="101" fill="none" xmlns="http://www.w3.org/2000/svg"><path d="M116.155 24.016h-41.26C67.645 15.292 53.039 6 37.779 6 22.36 6 7.615 15.47.445 24.275a1.997 1.997 0 000 2.477 53.22 53.22 0 0018.79 13.987v25.06a13.97 13.97 0 004.056 9.847 13.805 13.805 0 009.79 4.08h47.47v9.71c0 .886.174 1.763.514 2.581.34.819.837 1.56 1.465 2.183a6.54 6.54 0 004.51 1.99 5.787 5.787 0 002.588-.587 5.822 5.822 0 002.06-1.681c.056-.075.106-.155.148-.24l2.186-4.167 3.688 6.884a6.61 6.61 0 002.426 2.656 6.556 6.556 0 003.449.985 6.457 6.457 0 003.147-.81 6.506 6.506 0 002.362-2.244 6.565 6.565 0 00.346-6.317l-.06-.11-3.886-6.963h4.509a6.394 6.394 0 003.413-1.101 6.453 6.453 0 002.294-2.77h.494c3.672 0 7.194-1.467 9.79-4.079a13.968 13.968 0 004.056-9.848V37.943c0-1.833-.36-3.648-1.059-5.34a13.933 13.933 0 00-3.014-4.525 13.838 13.838 0 00-4.509-3.016 13.77 13.77 0 00-5.313-1.046zM53.573 13.262A53.49 53.49 0 0170.8 25.3l.198.21-.198.208a54.984 54.984 0 01-17.227 12.047l-.99.438.673-.895a19.614 19.614 0 003.938-11.794c0-4.258-1.383-8.399-3.938-11.793l-.682-.896.999.438zM37.749 9.91c3.07-.006 6.074.904 8.63 2.616a15.59 15.59 0 015.728 7 15.695 15.695 0 01.894 9.023 15.638 15.638 0 01-4.243 8 15.489 15.489 0 01-7.947 4.277 15.432 15.432 0 01-8.97-.887 15.537 15.537 0 01-6.967-5.753 15.674 15.674 0 011.94-19.705A15.48 15.48 0 0137.778 9.91h-.03zM4.56 25.508l.198-.199a53.818 53.818 0 0117.228-12.047l.989-.438-.682.896a19.593 19.593 0 00-3.94 11.788c0 4.257 1.384 8.396 3.94 11.789l.672.895-.989-.438A53.224 53.224 0 014.757 25.718l-.198-.209zm121.485 40.29a9.98 9.98 0 01-2.896 7.035 9.86 9.86 0 01-6.993 2.913 6.552 6.552 0 00-1.632-3.153 1.976 1.976 0 00-2.118-.472 1.983 1.983 0 00-1.274 1.765 1.933 1.933 0 00.534 1.403 2.543 2.543 0 01.494 2.775 2.486 2.486 0 01-2.215 1.602h-7.763a1.983 1.983 0 00-1.957 1.99c0 .349.092.692.265.994l5.489 9.78a2.625 2.625 0 01-1.266 3.471c-.62.282-1.325.31-1.966.078a2.625 2.625 0 01-1.465-1.321v-.07l-5.549-10.256a1.981 1.981 0 00-1.068-.925l-.326-.08a1.834 1.834 0 00-.336 0 1.97 1.97 0 00-1.74.995l-3.848 7.361a2.06 2.06 0 01-1.385.537 2.752 2.752 0 01-1.84-.877 2.785 2.785 0 01-.74-1.908V60.158c-.006-.49.13-.971.392-1.385a2.517 2.517 0 011.08-.943 2.539 2.539 0 012.73.368l.08.07h.059l14.834 11.092a1.971 1.971 0 002.74-.398 1.9 1.9 0 00.366-1.453 1.944 1.944 0 00-.762-1.293L91.134 55.124a6.425 6.425 0 00-4.105-1.463 6.526 6.526 0 00-2.739.607 6.4 6.4 0 00-2.74 2.387 6.454 6.454 0 00-1.008 3.503v15.588h-47.47a9.86 9.86 0 01-6.994-2.913 9.978 9.978 0 01-2.896-7.035V42.36a43.643 43.643 0 0014.597 2.667c14.686 0 28.75-8.606 36.255-17.032h42.121a9.86 9.86 0 016.993 2.914 9.98 9.98 0 012.896 7.035v27.854z" fill="#134C5F"/><path d="M75.162 62.296L71.957 63.6l-.138.05c-.4.187-.726.504-.927.9a2 2 0 00.465 2.404c.333.291.753.462 1.194.486.247-.001.492-.048.722-.14l3.392-1.363a1.984 1.984 0 001.057-1.051 2 2 0 00.03-1.495 1.992 1.992 0 00-1.068-1.09 1.97 1.97 0 00-1.522-.005zM91.796 42.808a1.968 1.968 0 00-1.491.107c-.465.23-.82.635-.991 1.127l-1.236 3.74a2 2 0 00.099 1.493 1.968 1.968 0 002.953.662c.306-.235.538-.555.666-.921l1.246-3.73a2 2 0 00-.122-1.494 1.982 1.982 0 00-1.124-.984zM99.757 48.777a1.97 1.97 0 00-1.167.378l-3.046 2.308a1.999 1.999 0 00-.406 2.746 1.969 1.969 0 002.74.408l3.046-2.269c.418-.308.698-.769.782-1.283a2 2 0 00-.366-1.462 1.982 1.982 0 00-1.583-.826zM81.491 44.858a1.984 1.984 0 00-1.72-.995 1.97 1.97 0 00-1.173.4 1.99 1.99 0 00-.707 1.022 2 2 0 00.158 1.493l1.92 3.501a1.984 1.984 0 001.73.995c.344.009.685-.074.989-.239a1.979 1.979 0 00.989-1.173 1.92 1.92 0 00-.168-1.493l-2.018-3.511zM71.493 55.74l3.669 1.553a1.967 1.967 0 002.571-1.045 2 2 0 00.022-1.489 1.985 1.985 0 00-1.011-1.087l-3.66-1.572a1.967 1.967 0 00-1.977.258 1.99 1.99 0 00-.594.776 2 2 0 00-.022 1.49c.185.48.547.87 1.011 1.087l-.01.03zM37.779 32.86a7.288 7.288 0 004.065-1.24 7.352 7.352 0 002.696-3.305 7.402 7.402 0 00.416-4.253 7.375 7.375 0 00-2.003-3.77 7.305 7.305 0 00-3.747-2.014 7.278 7.278 0 00-4.228.42 7.329 7.329 0 00-3.284 2.71 7.393 7.393 0 00-1.234 4.09 7.394 7.394 0 002.147 5.203 7.307 7.307 0 005.172 2.159zm0-10.814c.678 0 1.342.203 1.906.582.564.38 1.004.919 1.264 1.55a3.47 3.47 0 01-.744 3.761 3.412 3.412 0 01-3.74.748 3.436 3.436 0 01-1.54-1.27 3.467 3.467 0 01-.578-1.919 3.472 3.472 0 011.011-2.431 3.432 3.432 0 012.42-1.01v-.01z" fill="#134C5F"/></svg>