<svg width="100" height="100" viewBox="0 0 100 100" fill="none" xmlns="http://www.w3.org/2000/svg">
<path d="M55.6 99.2H43.6C35.3 99.2 28.6 92.5 28.6 84.2V70.6H15C6.7 70.6 0 63.9 0 55.6V43.6C0 35.3 6.7 28.6 15 28.6H28.6V15C28.6 6.7 35.3 0 43.6 0H55.6C63.9 0 70.6 6.7 70.6 15V26.9C70.6 28 69.7 28.9 68.6 28.9C67.5 28.9 66.6 28 66.6 26.9V15C66.6 8.9 61.7 4 55.6 4H43.6C37.5 4 32.6 8.9 32.6 15V30.6C32.6 31.7 31.7 32.6 30.6 32.6H15C8.9 32.6 4 37.5 4 43.6V55.6C4 61.7 8.9 66.6 15 66.6H30.6C31.7 66.6 32.6 67.5 32.6 68.6V84.2C32.6 90.3 37.5 95.2 43.6 95.2H55.6C61.7 95.2 66.6 90.3 66.6 84.2V81C66.6 79.9 67.5 79 68.6 79C69.7 79 70.6 79.9 70.6 81V84.2C70.6 92.4 63.9 99.2 55.6 99.2Z" fill="#134C5F"/>
<path d="M59 78.6999C56.8 78.6999 54.8 77.9999 53.3 76.5999C51.3 74.6999 50.3 71.8999 50.2 68.1999V68.0999C50.3 63.8999 52.3 62.1999 54.4 60.2999C55.9 58.9999 57.5 57.4999 59.1 54.6999C62.7 48.0999 67.4 47.8999 68.4 47.8999C69.4 47.8999 74.1 47.9999 77.7 54.6999C79.3 57.4999 80.9 58.9999 82.4 60.1999C84.4 61.8999 86.5 63.5999 86.6 67.7999V67.8999C86.5 72.5999 84.8 75.0999 83.5 76.3999C81.9 77.8999 79.7 78.6999 77.3 78.4999C75.1 78.3999 73.4 77.7999 71.8 77.2999C70.7 76.8999 69.7 76.5999 68.8 76.5999C68.7 76.5999 68.5 76.5999 68.4 76.5999C67.5 76.5999 66.4 76.9999 65.1 77.3999C63.5 77.8999 61.8 78.4999 59.6 78.5999C59.4 78.6999 59.2 78.6999 59 78.6999ZM54.2 68.1999C54.2 70.6999 54.9 72.5999 56 73.6999C57 74.6999 58.4 74.7999 59.3 74.7999C60.9 74.6999 62.4 74.1999 63.8 73.7999C65.1 73.3999 66.5 72.8999 67.9 72.7999C68.1 72.7999 68.2 72.6999 68.4 72.6999C70 72.6999 71.4 73.1999 72.9 73.5999C74.3 73.9999 75.7 74.4999 77.4 74.5999C78.3 74.6999 79.6 74.4999 80.7 73.4999C81.9 72.3999 82.5 70.4999 82.6 67.8999C82.5 65.4999 81.6 64.6999 79.8 63.1999C78.1 61.7999 76.1 59.9999 74.2 56.5999C71.6 51.7999 68.8 51.8999 68.6 51.8999C68.5 51.8999 68.5 51.8999 68.4 51.8999H68.3C68.2 51.8999 68.1 51.8999 68.1 51.8999C68 51.8999 65.3 51.7999 62.6 56.5999C60.7 59.9999 58.7 61.7999 57.1 63.2999C55.3 64.8999 54.3 65.6999 54.2 68.1999Z" fill="#134C5F"/>
<path d="M76.5 47.1998C76.2 47.1998 75.9 47.1998 75.6 47.0998C71.2 46.4998 68.4 41.4998 69.3 35.6998C69.7 33.0998 70.8 30.6998 72.4 28.9998C74.2 27.1998 76.4 26.2998 78.6 26.5998C80.8 26.8998 82.7 28.3998 83.9 30.6998C85 32.7998 85.3 35.3998 85 37.9998C84.1 43.3998 80.5 47.1998 76.5 47.1998ZM77.6 30.5998C76.5 30.5998 75.6 31.3998 75.2 31.7998C74.2 32.8998 73.4 34.4998 73.2 36.2998C72.7 39.6998 74.1 42.7998 76.2 43.0998C78.3 43.3998 80.5 40.7998 81 37.3998C81.3 35.5998 81 33.8998 80.3 32.4998C80 31.7998 79.2 30.6998 78 30.4998C77.9 30.5998 77.8 30.5998 77.6 30.5998Z" fill="#134C5F"/>
<path d="M87.9 59.6996C87.2 59.6996 86.6 59.5996 85.9 59.3996C84 58.6996 82.5 57.0996 81.9 54.7996C81.3 52.7996 81.4 50.3996 82.2 48.1996C83 45.9996 84.4 44.0996 86.1 42.8996C88 41.5996 90.2 41.1996 92.1 41.7996C94 42.4996 95.5 44.0996 96.1 46.3996C96.7 48.3996 96.6 50.7996 95.8 52.9996C94.4 56.9996 91.1 59.6996 87.9 59.6996ZM90.2 45.3996C89.5 45.3996 88.8 45.7996 88.4 46.0996C87.4 46.7996 86.5 48.0996 86 49.4996C85.5 50.8996 85.4 52.4996 85.8 53.6996C86 54.2996 86.4 55.2996 87.3 55.5996C88.7 56.0996 91.1 54.5996 92.1 51.5996C92.6 50.1996 92.7 48.5996 92.3 47.3996C92.1 46.7996 91.7 45.7996 90.8 45.4996C90.6 45.4996 90.4 45.3996 90.2 45.3996Z" fill="#134C5F"/>
<path d="M60.1 47.2C56.1 47.2 52.5 43.4 51.7 38.1C51.3 35.5 51.7 32.9 52.8 30.8C54 28.5 55.9 27 58.1 26.7C60.3 26.4 62.6 27.2 64.3 29.1C65.9 30.8 67 33.2 67.4 35.8C68.2 41.5 65.5 46.5 61.1 47.2C60.7 47.2 60.4 47.2 60.1 47.2ZM58.9 30.6C58.8 30.6 58.7 30.6 58.6 30.6C57.4 30.8 56.6 31.9 56.3 32.6C55.6 33.9 55.4 35.7 55.6 37.5C56.1 40.9 58.3 43.5 60.4 43.2C62.5 42.9 63.9 39.8 63.4 36.4C63.1 34.6 62.4 33 61.4 31.9C60.9 31.4 60 30.6 58.9 30.6Z" fill="#134C5F"/>
<path d="M48.7 59.6998C45.4 59.6998 42.2 57.0998 40.8 52.9998C40 50.7998 39.9 48.3998 40.5 46.3998C41.1 44.1998 42.6 42.4998 44.5 41.7998C46.4 41.0998 48.6 41.4998 50.5 42.8998C52.2 44.0998 53.6 45.9998 54.4 48.1998C55.2 50.3998 55.3 52.7998 54.7 54.7998C54.1 56.9998 52.6 58.6998 50.7 59.3998C50 59.5998 49.3 59.6998 48.7 59.6998ZM46.4 45.3998C46.2 45.3998 46 45.3998 45.8 45.4998C44.9 45.7998 44.5 46.7998 44.3 47.3998C43.9 48.5998 44 50.0998 44.5 51.5998C45.5 54.5998 47.9 56.0998 49.3 55.5998C50.2 55.2998 50.6 54.2998 50.8 53.6998C51.2 52.4998 51.1 50.9998 50.6 49.4998C50.1 47.9998 49.2 46.7998 48.2 46.0998C47.8 45.7998 47.1 45.3998 46.4 45.3998Z" fill="#134C5F"/>
</svg>
