<svg fill="none" height="100" viewBox="0 0 100 100" width="100" xmlns="http://www.w3.org/2000/svg"><g fill="#134c5f"><path d="m57.3013 88.5998c-1.2-.9-2.5-1.4-3.6-1.6-1.1-7.5-1.6-11-1.9-12.6 2.2-2 3.3-4.8 3.9-7.4 2.3-.1 7.3-1 10.7-7.1l7-12.2h.9c4.3 0 7.9-3.3 7.9-7.3s-3.5-7.3-7.9-7.3h-2.7c-5.1-.3-7.3 3.4-7.6 4-.2.4-3.5 6.1-5.3 8.9-.8 1.2-1.7 1.4-2.3 1.4v-5c0-1.1-.9-2-2-2h-28.1c-1.1 0-2 .9-2 2v5.2c-3.8.4-8.7 2.4-13.1 6.7-4.69998 4.7-10.29998 13.6-10.19998 29.8 0 1.1.3 2.1 1 3l.7 1c.4.5.3 1.2-.1 1.6-1 1-1.6 2.3-1.6 3.7v1.3c0 2.9 2.4 5.2 5.2 5.2h26.49998c2.9 0 5.2-2.4 5.2-5.2v-1.1c0-2.7-2.1-5-4.8-5.2 1.6-2.6 2.5-5.6 2.5-8.6 0-.2 0-.5 0-.7l8.2 19.6c.3.7 1 1.2 1.8 1.2h13.4c1.1 0 2-.9 2-2 .1-5.3-1.9-7.9-3.7-9.3zm-.9-27.5v-9.6c1.7 0 4.1-.7 5.7-3.3 1.9-3 5.2-8.8 5.4-9.2.1-.2 1.2-2.1 3.9-1.9h.1 2.8c2.1 0 3.9 1.5 3.9 3.3s-1.7 3.3-3.9 3.3h-2c-.7 0-1.4.4-1.7 1l-7.6 13.3c-2.1 3.8-5 4.8-6.6 5 0-1.1 0-1.8 0-1.9zm-28.1-16.6h24.1v3.1h-24.1zm18.7 51.5-10.4-24.7-.8-8.8c-.1-1.1-1.1-1.9-2.2-1.8s-1.9 1.1-1.8 2.2l.7 8.2c-2-2.5-5-4.3-8.8-5.1-1.1-.2-2.1.4-2.4 1.5-.2 1.1.4 2.1 1.5 2.4 5.5 1.2 8.6 4.8 8.6 10 0 3.4-1.5 6.8-4 9.1-.6.6-.8 1.4-.5 2.2s1 1.3 1.8 1.3h3.8c.7 0 1.2.6 1.2 1.2v1.1c0 .7-.6 1.2-1.2 1.2h-26.29998c-.7 0-1.2-.6-1.2-1.2v-1.3c0-.3.1-.7.4-.9 1.8-1.9 2.1-4.7.6-6.8l-.7-1c-.2-.3-.3-.5-.3-.8-.1-14.7 4.8-22.7 8.99998-26.7 4.3-4.3 9.2-5.7 12.3-5.6h.3 25.9v9.6c0 .1.2 7.9-3.9 10.8-.7.5-1 1.3-.8 2.1 0 .2.4 2.1 2.3 15.2.1.6.4 1.1.9 1.4.4.3.9.4 1.3.3.2 0 1.8 0 3 1.2.9.9 1.5 2.1 1.7 3.8h-10z"/><path d="m56.3013 23.7001c-.8.8-.8 2 0 2.8l3.7 3.7c.4.4.9.6 1.4.6s1-.2 1.4-.6c.8-.8.8-2 0-2.8l-3.7-3.7c-.7-.8-2-.8-2.8 0z"/><path d="m57.1013 31.8998c-.8-.8-2-.8-2.8 0s-.8 2 0 2.8l2.4 2.4c.4.4.9.6 1.4.6s1-.2 1.4-.6c.8-.8.8-2 0-2.8z"/><path d="m17.8013 19.6c.4.4.9.6 1.4.6s1-.2 1.4-.6l3.5-3.5 2.7 1.6c.7.4 1.5.6 2.3.6s1.5-.2 2.2-.6c1.4-.8 2.2-2.3 2.2-3.9l-.1-4.9h10l-.1 4.9c0 1.6.8 3.1 2.2 3.9.7.4 1.5.6 2.2.6.8 0 1.6-.2 2.3-.6l4.2-2.5.1.1 4.2 4.2c.4.4.9.6 1.4.6s1-.2 1.4-.6c.8-.8.8-2 0-2.8l-3.6-3.6c1.2-.8 1.8-2.2 1.8-3.6 0-1.6-.8-3-2.2-3.8l-7.1-4.1c-1.4-.8-3-.8-4.4 0-1.3.7-2.1 1.9-2.2 3.4h-10.3c-.2-1.4-1-2.6-2.2-3.4-1.4-.8-3-.8-4.4 0l-7.1 4.1c-1.4.8-2.2 2.2-2.2 3.8s.8 3 2.2 3.8l1.1.6-2.8 2.8c-.9.9-.9 2.1-.1 2.9zm29.7-14.2c0-.2.1-.3.2-.4.1 0 .1-.1.2-.1s.1 0 .2.1l7.1 4.1c.2.1.2.3.2.4s0 .3-.2.4l-7.2 4.4c-.1.1-.3.1-.4 0s-.2-.2-.2-.4zm-26 3.8 7.1-4.1c.2-.1.3-.1.4 0s.2.2.2.4l.2 8.5c0 .2-.1.3-.2.4s-.3.1-.4 0l-7.3-4.5c-.2-.1-.2-.3-.2-.4s.1-.2.2-.3z"/><path d="m17.7013 30.8001c.5 0 1-.2 1.4-.6l3.7-3.7c.8-.8.8-2 0-2.8s-2-.8-2.8 0l-3.7 3.7c-.8.8-.8 2 0 2.8.3.4.9.6 1.4.6z"/><path d="m21.9013 31.9-2.4 2.4c-.8.8-.8 2 0 2.8.4.4.9.6 1.4.6s1-.2 1.4-.6l2.4-2.4c.8-.8.8-2 0-2.8-.7-.7-2-.7-2.8 0z"/><path d="m34.0013 22.6c0-1.2-1-2.1-2.1-2.1s-2.1 1-2.1 2.1 1 2.1 2.1 2.1 2.1-.9 2.1-2.1z"/><path d="m44.8013 24.7c1.2 0 2.1-1 2.1-2.1s-1-2.1-2.1-2.1-2.1 1-2.1 2.1.9 2.1 2.1 2.1z"/><path d="m29.0013 34.5999c.2.2 2 2.3 4.8 2.3h.3c1.6-.1 3-.8 4.4-2.2 1.4 1.4 2.8 2.1 4.4 2.2h.3c2.8 0 4.6-2.1 4.8-2.3.7-.8.6-2.1-.3-2.8-.8-.7-2.1-.6-2.8.2 0 0-.8.9-1.8.9-.6 0-1.4-.5-2.1-1.4l2-2.9c.4-.6.5-1.4.1-2.1s-1-1.1-1.8-1.1h-6.1c-.8 0-1.4.4-1.8 1.1-.3.7-.3 1.5.2 2.1l2.2 3c-.7.8-1.4 1.2-2 1.2-.9.1-1.8-.8-1.8-.9-.7-.8-2-.9-2.8-.2-.8.8-.9 2.1-.2 2.9z"/><path d="m97.6013 43.8999c-10.1 0-14.5 5.2-14.6 5.3l-5 5.4c-.3.3-.5.6-.8.9-6.3.4-9 6-9.7 9.5-3.1 2.1-4.6 5.8-5 8.2-.5.4-1 .9-1.4 1.4-2.1 2.7-1.5 5.5-1.4 5.8.2.9 1 1.5 1.9 1.5h16.4c13.1 0 21.1-14.2 21.4-14.8.2-.3.2-.6.2-1v-20.2c0-1.1-.9-2-2-2zm-22.3 16.2c-.2 1.2-.1 2.3.1 3.4h-2.4c-.2 0-.5 0-.7 0 .5-1.2 1.5-2.6 3-3.4zm-2.4 7.4h3l-3.7 3.1c-1.8 0-3.4.2-4.8.5.9-1.7 2.6-3.6 5.5-3.6zm22.7-1.8c-1.3 2.2-8.1 12.3-17.7 12.3h-14.2c.1-.3.3-.6.5-.9.9-1.1 3.2-2.5 8.7-2.5.5 0 .9-.2 1.3-.5l6-5 .1-.1c.1-.1.2-.1.3-.2l9.5-8c.8-.7 1-2 .2-2.8-.7-.8-2-1-2.8-.2l-7.8 6.6c-.7-1.8-1.1-4.5 1.2-7l5-5.5c.1-.1 3-3.3 9.6-3.9v17.7z"/><path d="m78.8013 26.8998.5.2c.2.1.5.1.7.1.3 0 .5 0 .7-.1l.4-.2c.5-.2 12.6-4.8 12.6-13.9 0-5.59999-3.2-9.2-8-9.2-2.6 0-4.5 1.1-5.7 2.4-1.2-1.3-3.1-2.4-5.7-2.4-4.9 0-8 3.60001-8 9.2 0 9.1 12 13.7 12.5 13.9zm-4.5-19.1c2.8 0 3.6 2.3 3.7 2.8.2 1 1.2 1.6 2.2 1.5.8 0 1.6-.6 1.8-1.5.1-.5.9-2.8 3.7-2.8 3.3 0 4 2.8 4 5.2 0 5.7-8.1 9.4-9.7 10-1.5-.6-9.7-4.2-9.7-10 0-2.4.7-5.2 4-5.2z"/></g></svg>