<svg fill="none" height="100" viewBox="0 0 100 100" width="100" xmlns="http://www.w3.org/2000/svg"><g fill="#134c5f"><path d="m55.6 99.2h-12c-8.3 0-15-6.7-15-15v-13.6h-13.6c-8.3 0-15-6.7-15-15v-12c0-8.3 6.7-15 15-15h13.6v-13.6c0-8.3 6.7-15 15-15h12c8.3 0 15 6.7 15 15v11.9c0 1.1-.9 2-2 2s-2-.9-2-2v-11.9c0-6.1-4.9-11-11-11h-12c-6.1 0-11 4.9-11 11v15.6c0 1.1-.9 2-2 2h-15.6c-6.1 0-11 4.9-11 11v12c0 6.1 4.9 11 11 11h15.6c1.1 0 2 .9 2 2v15.6c0 6.1 4.9 11 11 11h12c6.1 0 11-4.9 11-11v-3.2c0-1.1.9-2 2-2s2 .9 2 2v3.2c0 8.2-6.7 15-15 15z"/><path d="m59 78.6999c-2.2 0-4.2-.7-5.7-2.1-2-1.9-3-4.7-3.1-8.4v-.1c.1-4.2 2.1-5.9 4.2-7.8 1.5-1.3 3.1-2.8 4.7-5.6 3.6-6.6 8.3-6.8 9.3-6.8s5.7.1 9.3 6.8c1.6 2.8 3.2 4.3 4.7 5.5 2 1.7 4.1 3.4 4.2 7.6v.1c-.1 4.7-1.8 7.2-3.1 8.5-1.6 1.5-3.8 2.3-6.2 2.1-2.2-.1-3.9-.7-5.5-1.2-1.1-.4-2.1-.7-3-.7-.1 0-.3 0-.4 0-.9 0-2 .4-3.3.8-1.6.5-3.3 1.1-5.5 1.2-.2.1-.4.1-.6.1zm-4.8-10.5c0 2.5.7 4.4 1.8 5.5 1 1 2.4 1.1 3.3 1.1 1.6-.1 3.1-.6 4.5-1 1.3-.4 2.7-.9 4.1-1 .2 0 .3-.1.5-.1 1.6 0 3 .5 4.5.9 1.4.4 2.8.9 4.5 1 .9.1 2.2-.1 3.3-1.1 1.2-1.1 1.8-3 1.9-5.6-.1-2.4-1-3.2-2.8-4.7-1.7-1.4-3.7-3.2-5.6-6.6-2.6-4.8-5.4-4.7-5.6-4.7-.1 0-.1 0-.2 0h-.1c-.1 0-.2 0-.2 0-.1 0-2.8-.1-5.5 4.7-1.9 3.4-3.9 5.2-5.5 6.7-1.8 1.6-2.8 2.4-2.9 4.9z"/><path d="m76.5 47.1998c-.3 0-.6 0-.9-.1-4.4-.6-7.2-5.6-6.3-11.4.4-2.6 1.5-5 3.1-6.7 1.8-1.8 4-2.7 6.2-2.4s4.1 1.8 5.3 4.1c1.1 2.1 1.4 4.7 1.1 7.3-.9 5.4-4.5 9.2-8.5 9.2zm1.1-16.6c-1.1 0-2 .8-2.4 1.2-1 1.1-1.8 2.7-2 4.5-.5 3.4.9 6.5 3 6.8s4.3-2.3 4.8-5.7c.3-1.8 0-3.5-.7-4.9-.3-.7-1.1-1.8-2.3-2-.1.1-.2.1-.4.1z"/><path d="m87.9 59.6996c-.7 0-1.3-.1-2-.3-1.9-.7-3.4-2.3-4-4.6-.6-2-.5-4.4.3-6.6s2.2-4.1 3.9-5.3c1.9-1.3 4.1-1.7 6-1.1 1.9.7 3.4 2.3 4 4.6.6 2 .5 4.4-.3 6.6-1.4 4-4.7 6.7-7.9 6.7zm2.3-14.3c-.7 0-1.4.4-1.8.7-1 .7-1.9 2-2.4 3.4s-.6 3-.2 4.2c.2.6.6 1.6 1.5 1.9 1.4.5 3.8-1 4.8-4 .5-1.4.6-3 .2-4.2-.2-.6-.6-1.6-1.5-1.9-.2 0-.4-.1-.6-.1z"/><path d="m60.1 47.2c-4 0-7.6-3.8-8.4-9.1-.4-2.6 0-5.2 1.1-7.3 1.2-2.3 3.1-3.8 5.3-4.1s4.5.5 6.2 2.4c1.6 1.7 2.7 4.1 3.1 6.7.8 5.7-1.9 10.7-6.3 11.4-.4 0-.7 0-1 0zm-1.2-16.6c-.1 0-.2 0-.3 0-1.2.2-2 1.3-2.3 2-.7 1.3-.9 3.1-.7 4.9.5 3.4 2.7 6 4.8 5.7s3.5-3.4 3-6.8c-.3-1.8-1-3.4-2-4.5-.5-.5-1.4-1.3-2.5-1.3z"/><path d="m48.7 59.6998c-3.3 0-6.5-2.6-7.9-6.7-.8-2.2-.9-4.6-.3-6.6.6-2.2 2.1-3.9 4-4.6s4.1-.3 6 1.1c1.7 1.2 3.1 3.1 3.9 5.3s.9 4.6.3 6.6c-.6 2.2-2.1 3.9-4 4.6-.7.2-1.4.3-2 .3zm-2.3-14.3c-.2 0-.4 0-.6.1-.9.3-1.3 1.3-1.5 1.9-.4 1.2-.3 2.7.2 4.2 1 3 3.4 4.5 4.8 4 .9-.3 1.3-1.3 1.5-1.9.4-1.2.3-2.7-.2-4.2s-1.4-2.7-2.4-3.4c-.4-.3-1.1-.7-1.8-.7z"/></g></svg>