<svg fill="none" height="101" viewBox="0 0 130 101" width="130" xmlns="http://www.w3.org/2000/svg"><path d="m127.6 64.6002c0-.7-.1-1.5-.4-2.2l-3.5-17.1c.6-.8 1-1.4 1.2-1.6 1.1-1.9 1.7-4.1 1.7-6.3 0-6.7-5.3-12.1-11.8-12.1-.6 0-1.1 0-1.7.1-1.5-4.3-5.5-7.3-10.1-7.3-2.6 0-5.1 1-7 2.7-2.5-3.5-6.5-5.6-10.8-5.6-5.9 0-11 3.9-12.7 9.4-1.3-.4-2.7-.7-4.1-.7-.8-7.8-1.9-12.3-2.5-14l2.4-6.4c.2-.6.2-1.3-.2-1.9-.4-.5-1-.900005-1.7-.900005h-60.79999c-.7 0-1.30002.300005-1.70002.900005-.4.5-.49998 1.2-.19998 1.9l2.4 6.4c-1.2 4-6.199998 23.7-.4 66.5l-3.30002 7.7c-.1.1-.1.3-.1.4v.1.2.1.2c0 .1 0 .2.1.3v.1c0 .1.10002.2.20002.4.1.1.19998.2.29998.3l.10001.1c.1.1.19999.1.29999.2 0 0 .1 0 .1.1.1 0 .20002.1.30002.1h.09998c.1 0 .3.1.5.1h38.90001c-.1.7-.2 1.4-.2 2.1 0 6.4 5.7 11.6998 12.8 11.6998 6.7 0 12.2-4.6998 12.7-10.5998h24c.6 6 6.1 10.5998 12.7 10.5998 7 0 12.8-5.1998 12.8-11.6998 0-3.1-1.3-5.9-3.6-8.1 1.9-1.8 3.1-4.2 3.5-6.7 5.9-2.3 9.7-5.5 9.7-9.5zm-54.7-35.4c.6.3 1.3.3 1.9 0s1-.9 1.1-1.6c.6-4.8 4.5-8.5 9.2-8.5 3.8 0 7.1 2.3 8.6 5.9.3.7 1 1.2 1.7 1.2.8.1 1.5-.3 1.9-1 1.2-2 3.3-3.3 5.6-3.3 3.3 0 6.1 2.6 6.6 6 .1.6.4 1.1.9 1.5.5.3 1.1.4 1.7.2.8-.3 1.7-.4 2.5-.4 4.3 0 7.8 3.6 7.8 8.1 0 1.5-.4 3-1.2 4.2 0 0-.1.2-.2.3-.5.7-1.7 2.2-3.9 4-4.6 3.7-13.5 8.3-29.4 8.3-7.5 0-14-1.1-19.1-2.7.1-1.5.1-3 .2-4.4.1-1.6.1-3.2.1-4.7.1-5.6-.1-10.4-.3-14.5 1.6.3 3 .6 4.3 1.4zm-9.3-24.4-1.3 3.5h-52.3l-1.29999-3.5zm-53.89999 7.5h52.69999c.3 1.3.8 3.3 1.2 6.1h-55.1c.4-2.8.90001-4.8 1.20001-6.1zm-1.70001 10.1h56.2c.1.6.1 1.3.2 2 .1 1.3.2 2.6.3 4.1.4 5.7.5 12.8.1 21.6-.1 1.4-.2 2.9-.2 4.3-.2 3-.4 6.1-.8 9.3-2.2-1.6-4.9-2.5-7.9-2.5-.4 0-.8 0-1.2.1-1.5.1-2.9.5-4.2 1.1-.9.4-1.8.9-2.6 1.5h-39.50001c-1.9-19.4-1.39999-32.9-.39999-41.5zm35.1 51.5h-33.6c-.3-2.1-.50001-4.1-.70001-6.1h35.50001c-.8 1.5-1.3 3.2-1.3 5 .1.4.1.7.1 1.1zm-35.6 8.9 2.10001-4.9h34.79999c.6 1.1 1.3 2.1 2.3 3-.6.6-1.2 1.2-1.6 1.9zm102.6-.1c2.4 1.4 3.9 3.8 3.9 6.3 0 4.2-3.9 7.6-8.7 7.6s-8.7-3.4-8.7-7.6c0-.3 0-.5.1-.8.1-.6-.1-1.1-.5-1.6-.4-.4-.9-.7-1.5-.7h-25.2-2.9c-.6 0-1.1.2-1.5.7-.1.1-.1.1-.2.2-.3.4-.4.9-.3 1.4 0 .3.1.5.1.8 0 4.2-3.9 7.6-8.7 7.6s-8.7-3.4-8.7-7.6c0-.7.1-1.4.4-2.1.5-1.6 1.7-3 3.3-4 .1-.1.2-.1.2-.2.6-.4 1-1 1-1.7s-.4-1.4-1-1.7c-.6-.4-1.2-.8-1.7-1.3-1.1-1.1-1.9-2.5-2.1-4-.1-.3-.1-.7-.1-1 0-1.9.8-3.7 2.2-5 .4-.4.8-.7 1.2-1 1.1-.7 2.4-1.2 3.8-1.5.5-.1 1-.1 1.5-.1 2.6 0 4.9 1 6.5 2.6.3.3.6.6.8 1 .6.8 1 1.8 1.2 2.8.1.4.1.8.1 1.3 0 .3 0 .5-.1.8-.1.6.1 1.1.5 1.6.4.4.8.6 1.4.7h.1 28c.6 0 1.1-.2 1.5-.7.2-.2.3-.4.4-.7s.1-.6.1-.9-.1-.5-.1-.8c0-4.2 3.9-7.6 8.7-7.6.8 0 1.5.1 2.2.2 1.1.2 2.2-.4 2.4-1.5s-.4-2.2-1.5-2.4c-1-.2-2.1-.4-3.1-.4-6.7 0-12.2 4.7-12.7 10.6h-24c-.1-1.4-.6-2.8-1.2-4 .5-4.3.8-8.3 1.1-12.1 5.5 1.6 12.1 2.5 19.3 2.5 17.4 0 27.3-5.3 32.4-9.6l3 14.7c0 .1.1.2.1.3.1.3.2.6.2.9 0 1.7-2.1 3.6-5.9 5.3-.3-1-.7-2-1.3-2.9s-1.8-1.2-2.8-.6c-.9.6-1.2 1.8-.6 2.8.4.7.7 1.4.9 2.2.1.5.2 1 .2 1.4 0 1-.2 2-.7 2.9-.7 1.4-1.8 2.6-3.2 3.4-.6.4-1 1-1 1.7s.6 1.4 1.2 1.8z" fill="#134c5f"/><g stroke="#134c5f" stroke-width="3.5"><circle cx="81.5" cy="42.5" r="3.5"/><circle cx="96.5" cy="32.5" r="2.5"/><circle cx="104" cy="44" r="3"/></g></svg>