<svg width="100" height="100" viewBox="0 0 100 100" fill="none" xmlns="http://www.w3.org/2000/svg"><path d="M57.3013 88.5998C56.1013 87.6998 54.8013 87.1998 53.7013 86.9998C52.6013 79.4998 52.1013 75.9998 51.8013 74.3998C54.0013 72.3998 55.1013 69.5998 55.7013 66.9998C58.0013 66.8998 63.0013 65.9998 66.4013 59.8998L73.4013 47.6998H74.3013C78.6013 47.6998 82.2013 44.3998 82.2013 40.3998C82.2013 36.3998 78.7013 33.0998 74.3013 33.0998H71.6013C66.5013 32.7998 64.3013 36.4998 64.0013 37.0998C63.8013 37.4998 60.5013 43.1998 58.7013 45.9998C57.9013 47.1998 57.0013 47.3998 56.4013 47.3998V42.3998C56.4013 41.2998 55.5013 40.3998 54.4013 40.3998H26.3013C25.2013 40.3998 24.3013 41.2998 24.3013 42.3998V47.5998C20.5013 47.9998 15.6013 49.9998 11.2013 54.2998C6.50132 58.9998 0.90132 67.8998 1.00132 84.0998C1.00132 85.1998 1.30132 86.1998 2.00132 87.0998L2.70132 88.0998C3.10132 88.5998 3.00132 89.2998 2.60132 89.6998C1.60132 90.6998 1.00132 91.9998 1.00132 93.3998V94.6998C1.00132 97.5998 3.40132 99.8998 6.20132 99.8998H32.7013C35.6013 99.8998 37.9013 97.4998 37.9013 94.6998V93.5998C37.9013 90.8998 35.8013 88.5998 33.1013 88.3998C34.7013 85.7998 35.6013 82.7998 35.6013 79.7998C35.6013 79.5998 35.6013 79.2998 35.6013 79.0998L43.8013 98.6998C44.1013 99.3998 44.8013 99.8998 45.6013 99.8998H59.0013C60.1013 99.8998 61.0013 98.9998 61.0013 97.8998C61.1013 92.5998 59.1013 89.9998 57.3013 88.5998ZM56.4013 61.0998V51.4998C58.1013 51.4998 60.5013 50.7998 62.1013 48.1998C64.0013 45.1998 67.3013 39.3998 67.5013 38.9998C67.6013 38.7998 68.7013 36.8998 71.4013 37.0998H71.5013H74.3013C76.4013 37.0998 78.2013 38.5998 78.2013 40.3998C78.2013 42.1998 76.5013 43.6998 74.3013 43.6998H72.3013C71.6013 43.6998 70.9013 44.0998 70.6013 44.6998L63.0013 57.9998C60.9013 61.7998 58.0013 62.7998 56.4013 62.9998C56.4013 61.8998 56.4013 61.1998 56.4013 61.0998ZM28.3013 44.4998H52.4013V47.5998H28.3013V44.4998ZM47.0013 95.9998L36.6013 71.2998L35.8013 62.4998C35.7013 61.3998 34.7013 60.5998 33.6013 60.6998C32.5013 60.7998 31.7013 61.7998 31.8013 62.8998L32.5013 71.0998C30.5013 68.5998 27.5013 66.7998 23.7013 65.9998C22.6013 65.7998 21.6013 66.3998 21.3013 67.4998C21.1013 68.5998 21.7013 69.5998 22.8013 69.8998C28.3013 71.0998 31.4013 74.6998 31.4013 79.8998C31.4013 83.2998 29.9013 86.6998 27.4013 88.9998C26.8013 89.5998 26.6013 90.3998 26.9013 91.1998C27.2013 91.9998 27.9013 92.4998 28.7013 92.4998H32.5013C33.2013 92.4998 33.7013 93.0998 33.7013 93.6998V94.7998C33.7013 95.4998 33.1013 95.9998 32.5013 95.9998H6.20132C5.50132 95.9998 5.00132 95.3998 5.00132 94.7998V93.4998C5.00132 93.1998 5.10132 92.7998 5.40132 92.5998C7.20132 90.6998 7.50132 87.8998 6.00132 85.7998L5.30132 84.7998C5.10132 84.4998 5.00132 84.2998 5.00132 83.9998C4.90132 69.2998 9.80132 61.2998 14.0013 57.2998C18.3013 52.9998 23.2013 51.5998 26.3013 51.6998C26.4013 51.6998 26.5013 51.6998 26.6013 51.6998H52.5013V61.2998C52.5013 61.3998 52.7013 69.1998 48.6013 72.0998C47.9013 72.5998 47.6013 73.3998 47.8013 74.1998C47.8013 74.3998 48.2013 76.2998 50.1013 89.3998C50.2013 89.9998 50.5013 90.4998 51.0013 90.7998C51.4013 91.0998 51.9013 91.1998 52.3013 91.0998C52.5013 91.0998 54.1013 91.0998 55.3013 92.2998C56.2013 93.1998 56.8013 94.3998 57.0013 96.0998H47.0013V95.9998Z" fill="#134C5F"/><path d="M56.3013 23.7001C55.5013 24.5001 55.5013 25.7001 56.3013 26.5001L60.0013 30.2001C60.4013 30.6001 60.9013 30.8001 61.4013 30.8001C61.9013 30.8001 62.4013 30.6001 62.8013 30.2001C63.6013 29.4001 63.6013 28.2001 62.8013 27.4001L59.1013 23.7001C58.4013 22.9001 57.1013 22.9001 56.3013 23.7001Z" fill="#134C5F"/><path d="M57.1013 31.8998C56.3013 31.0998 55.1013 31.0998 54.3013 31.8998C53.5013 32.6998 53.5013 33.8998 54.3013 34.6998L56.7013 37.0998C57.1013 37.4998 57.6013 37.6998 58.1013 37.6998C58.6013 37.6998 59.1013 37.4998 59.5013 37.0998C60.3013 36.2998 60.3013 35.0998 59.5013 34.2998L57.1013 31.8998Z" fill="#134C5F"/><path d="M17.8013 19.6C18.2013 20 18.7013 20.2 19.2013 20.2C19.7013 20.2 20.2013 20 20.6013 19.6L24.1013 16.1L26.8013 17.7C27.5013 18.1 28.3013 18.3 29.1013 18.3C29.9013 18.3 30.6013 18.1 31.3013 17.7C32.7013 16.9 33.5013 15.4 33.5013 13.8L33.4013 8.9H43.4013L43.3013 13.8C43.3013 15.4 44.1013 16.9 45.5013 17.7C46.2013 18.1 47.0013 18.3 47.7013 18.3C48.5013 18.3 49.3013 18.1 50.0013 17.7L54.2013 15.2L54.3013 15.3L58.5013 19.5C58.9013 19.9 59.4013 20.1 59.9013 20.1C60.4013 20.1 60.9013 19.9 61.3013 19.5C62.1013 18.7 62.1013 17.5 61.3013 16.7L57.7013 13.1C58.9013 12.3 59.5013 10.9 59.5013 9.5C59.5013 7.9 58.7013 6.5 57.3013 5.7L50.2013 1.6C48.8013 0.8 47.2013 0.8 45.8013 1.6C44.5013 2.3 43.7013 3.5 43.6013 5H33.3013C33.1013 3.6 32.3013 2.4 31.1013 1.6C29.7013 0.8 28.1013 0.8 26.7013 1.6L19.6013 5.7C18.2013 6.5 17.4013 7.9 17.4013 9.5C17.4013 11.1 18.2013 12.5 19.6013 13.3L20.7013 13.9L17.9013 16.7C17.0013 17.6 17.0013 18.8 17.8013 19.6ZM47.5013 5.4C47.5013 5.2 47.6013 5.1 47.7013 5C47.8013 5 47.8013 4.9 47.9013 4.9C48.0013 4.9 48.0013 4.9 48.1013 5L55.2013 9.1C55.4013 9.2 55.4013 9.4 55.4013 9.5C55.4013 9.6 55.4013 9.8 55.2013 9.9L48.0013 14.3C47.9013 14.4 47.7013 14.4 47.6013 14.3C47.5013 14.2 47.4013 14.1 47.4013 13.9L47.5013 5.4ZM21.5013 9.2L28.6013 5.1C28.8013 5 28.9013 5 29.0013 5.1C29.1013 5.2 29.2013 5.3 29.2013 5.5L29.4013 14C29.4013 14.2 29.3013 14.3 29.2013 14.4C29.1013 14.5 28.9013 14.5 28.8013 14.4L21.5013 9.9C21.3013 9.8 21.3013 9.6 21.3013 9.5C21.3013 9.4 21.4013 9.3 21.5013 9.2Z" fill="#134C5F"/><path d="M17.7013 30.8001C18.2013 30.8001 18.7013 30.6001 19.1013 30.2001L22.8013 26.5001C23.6013 25.7001 23.6013 24.5001 22.8013 23.7001C22.0013 22.9001 20.8013 22.9001 20.0013 23.7001L16.3013 27.4001C15.5013 28.2001 15.5013 29.4001 16.3013 30.2001C16.6013 30.6001 17.2013 30.8001 17.7013 30.8001Z" fill="#134C5F"/><path d="M21.9013 31.9L19.5013 34.3C18.7013 35.1 18.7013 36.3 19.5013 37.1C19.9013 37.5 20.4013 37.7 20.9013 37.7C21.4013 37.7 21.9013 37.5 22.3013 37.1L24.7013 34.7C25.5013 33.9 25.5013 32.7 24.7013 31.9C24.0013 31.2 22.7013 31.2 21.9013 31.9Z" fill="#134C5F"/><path d="M34.0013 22.6C34.0013 21.4 33.0013 20.5 31.9013 20.5C30.8013 20.5 29.8013 21.5 29.8013 22.6C29.8013 23.7 30.8013 24.7 31.9013 24.7C33.0013 24.7 34.0013 23.8 34.0013 22.6Z" fill="#134C5F"/><path d="M44.8013 24.7C46.0013 24.7 46.9013 23.7 46.9013 22.6C46.9013 21.5 45.9013 20.5 44.8013 20.5C43.7013 20.5 42.7013 21.5 42.7013 22.6C42.7013 23.7 43.6013 24.7 44.8013 24.7Z" fill="#134C5F"/><path d="M29.0013 34.5999C29.2013 34.7999 31.0013 36.8999 33.8013 36.8999C33.9013 36.8999 34.0013 36.8999 34.1013 36.8999C35.7013 36.7999 37.1013 36.0999 38.5013 34.6999C39.9013 36.0999 41.3013 36.7999 42.9013 36.8999C43.0013 36.8999 43.1013 36.8999 43.2013 36.8999C46.0013 36.8999 47.8013 34.7999 48.0013 34.5999C48.7013 33.7999 48.6013 32.4999 47.7013 31.7999C46.9013 31.0999 45.6013 31.1999 44.9013 31.9999C44.9013 31.9999 44.1013 32.8999 43.1013 32.8999C42.5013 32.8999 41.7013 32.3999 41.0013 31.4999L43.0013 28.5999C43.4013 27.9999 43.5013 27.1999 43.1013 26.4999C42.7013 25.7999 42.1013 25.3999 41.3013 25.3999H35.2013C34.4013 25.3999 33.8013 25.7999 33.4013 26.4999C33.1013 27.1999 33.1013 27.9999 33.6013 28.5999L35.8013 31.5999C35.1013 32.3999 34.4013 32.7999 33.8013 32.7999C32.9013 32.8999 32.0013 31.9999 32.0013 31.8999C31.3013 31.0999 30.0013 30.9999 29.2013 31.6999C28.4013 32.4999 28.3013 33.7999 29.0013 34.5999Z" fill="#134C5F"/><path d="M97.6013 43.8999C87.5013 43.8999 83.1013 49.0999 83.0013 49.1999L78.0013 54.5999C77.7013 54.8999 77.5013 55.1999 77.2013 55.4999C70.9013 55.8999 68.2013 61.4999 67.5013 64.9999C64.4013 67.0999 62.9013 70.7999 62.5013 73.1999C62.0013 73.5999 61.5013 74.0999 61.1013 74.5999C59.0013 77.2999 59.6013 80.0999 59.7013 80.3999C59.9013 81.2999 60.7013 81.8999 61.6013 81.8999H78.0013C91.1013 81.8999 99.1013 67.6999 99.4013 67.0999C99.6013 66.7999 99.6013 66.4999 99.6013 66.0999V45.8999C99.6013 44.7999 98.7013 43.8999 97.6013 43.8999ZM75.3013 60.0999C75.1013 61.2999 75.2013 62.3999 75.4013 63.4999H73.0013C72.8013 63.4999 72.5013 63.4999 72.3013 63.4999C72.8013 62.2999 73.8013 60.8999 75.3013 60.0999ZM72.9013 67.4999H75.9013L72.2013 70.5999C70.4013 70.5999 68.8013 70.7999 67.4013 71.0999C68.3013 69.3999 70.0013 67.4999 72.9013 67.4999ZM95.6013 65.6999C94.3013 67.8999 87.5013 77.9999 77.9013 77.9999H63.7013C63.8013 77.6999 64.0013 77.3999 64.2013 77.0999C65.1013 75.9999 67.4013 74.5999 72.9013 74.5999C73.4013 74.5999 73.8013 74.3999 74.2013 74.0999L80.2013 69.0999L80.3013 68.9999C80.4013 68.8999 80.5013 68.8999 80.6013 68.7999L90.1013 60.7999C90.9013 60.0999 91.1013 58.7999 90.3013 57.9999C89.6013 57.1999 88.3013 56.9999 87.5013 57.7999L79.7013 64.3999C79.0013 62.5999 78.6013 59.8999 80.9013 57.3999L85.9013 51.8999C86.0013 51.7999 88.9013 48.5999 95.5013 47.9999V65.6999H95.6013Z" fill="#134C5F"/><path d="M78.8013 26.8998L79.3013 27.0998C79.5013 27.1998 79.8013 27.1998 80.0013 27.1998C80.3013 27.1998 80.5013 27.1998 80.7013 27.0998L81.1013 26.8998C81.6013 26.6998 93.7013 22.0998 93.7013 12.9998C93.7013 7.39981 90.5013 3.7998 85.7013 3.7998C83.1013 3.7998 81.2013 4.8998 80.0013 6.1998C78.8013 4.8998 76.9013 3.7998 74.3013 3.7998C69.4013 3.7998 66.3013 7.39981 66.3013 12.9998C66.3013 22.0998 78.3013 26.6998 78.8013 26.8998ZM74.3013 7.7998C77.1013 7.7998 77.9013 10.0998 78.0013 10.5998C78.2013 11.5998 79.2013 12.1998 80.2013 12.0998C81.0013 12.0998 81.8013 11.4998 82.0013 10.5998C82.1013 10.0998 82.9013 7.7998 85.7013 7.7998C89.0013 7.7998 89.7013 10.5998 89.7013 12.9998C89.7013 18.6998 81.6013 22.3998 80.0013 22.9998C78.5013 22.3998 70.3013 18.7998 70.3013 12.9998C70.3013 10.5998 71.0013 7.7998 74.3013 7.7998Z" fill="#134C5F"/></svg>