<svg width="130" height="101" viewBox="0 0 130 101" fill="none" xmlns="http://www.w3.org/2000/svg">
<path d="M127.6 64.6002C127.6 63.9002 127.5 63.1002 127.2 62.4002L123.7 45.3002C124.3 44.5002 124.7 43.9002 124.9 43.7002C126 41.8002 126.6 39.6002 126.6 37.4002C126.6 30.7002 121.3 25.3002 114.8 25.3002C114.2 25.3002 113.7 25.3002 113.1 25.4002C111.6 21.1002 107.6 18.1002 103 18.1002C100.4 18.1002 97.9 19.1002 96 20.8002C93.5 17.3002 89.5 15.2002 85.2 15.2002C79.3 15.2002 74.2 19.1002 72.5 24.6002C71.2 24.2002 69.8 23.9002 68.4 23.9002C67.6 16.1002 66.5 11.6002 65.9 9.9002L68.3 3.5002C68.5 2.9002 68.5 2.2002 68.1 1.6002C67.7 1.1002 67.1 0.700195 66.4 0.700195H5.60001C4.90001 0.700195 4.29999 1.0002 3.89999 1.6002C3.49999 2.1002 3.40001 2.8002 3.70001 3.5002L6.10001 9.9002C4.90001 13.9002 -0.099988 33.6002 5.70001 76.4002L2.39999 84.1002C2.29999 84.2002 2.29999 84.4002 2.29999 84.5002V84.6002C2.29999 84.7002 2.29999 84.7002 2.29999 84.8002V84.9002C2.29999 85.0002 2.29999 85.0002 2.29999 85.1002C2.29999 85.2002 2.29999 85.3002 2.39999 85.4002V85.5002C2.39999 85.6002 2.50001 85.7002 2.60001 85.9002C2.70001 86.0002 2.79999 86.1002 2.89999 86.2002L3 86.3002C3.1 86.4002 3.19999 86.4002 3.29999 86.5002C3.29999 86.5002 3.39999 86.5002 3.39999 86.6002C3.49999 86.6002 3.60001 86.7002 3.70001 86.7002H3.79999C3.89999 86.7002 4.09999 86.8002 4.29999 86.8002H43.2C43.1 87.5002 43 88.2002 43 88.9002C43 95.3002 48.7 100.6 55.8 100.6C62.5 100.6 68 95.9002 68.5 90.0002H92.5C93.1 96.0002 98.6 100.6 105.2 100.6C112.2 100.6 118 95.4002 118 88.9002C118 85.8002 116.7 83.0002 114.4 80.8002C116.3 79.0002 117.5 76.6002 117.9 74.1002C123.8 71.8002 127.6 68.6002 127.6 64.6002ZM72.9 29.2002C73.5 29.5002 74.2 29.5002 74.8 29.2002C75.4 28.9002 75.8 28.3002 75.9 27.6002C76.5 22.8002 80.4 19.1002 85.1 19.1002C88.9 19.1002 92.2 21.4002 93.7 25.0002C94 25.7002 94.7 26.2002 95.4 26.2002C96.2 26.3002 96.9 25.9002 97.3 25.2002C98.5 23.2002 100.6 21.9002 102.9 21.9002C106.2 21.9002 109 24.5002 109.5 27.9002C109.6 28.5002 109.9 29.0002 110.4 29.4002C110.9 29.7002 111.5 29.8002 112.1 29.6002C112.9 29.3002 113.8 29.2002 114.6 29.2002C118.9 29.2002 122.4 32.8002 122.4 37.3002C122.4 38.8002 122 40.3002 121.2 41.5002C121.2 41.5002 121.1 41.7002 121 41.8002C120.5 42.5002 119.3 44.0002 117.1 45.8002C112.5 49.5002 103.6 54.1002 87.7 54.1002C80.2 54.1002 73.7 53.0002 68.6 51.4002C68.7 49.9002 68.7 48.4002 68.8 47.0002C68.9 45.4002 68.9 43.8002 68.9 42.3002C69 36.7002 68.8 31.9002 68.6 27.8002C70.2 28.1002 71.6 28.4002 72.9 29.2002ZM63.6 4.8002L62.3 8.3002H10L8.70001 4.8002H63.6ZM9.70001 12.3002H62.4C62.7 13.6002 63.2 15.6002 63.6 18.4002H8.5C8.9 15.6002 9.40001 13.6002 9.70001 12.3002ZM8 22.4002H64.2C64.3 23.0002 64.3 23.7002 64.4 24.4002C64.5 25.7002 64.6 27.0002 64.7 28.5002C65.1 34.2002 65.2 41.3002 64.8 50.1002C64.7 51.5002 64.6 53.0002 64.6 54.4002C64.4 57.4002 64.2 60.5002 63.8 63.7002C61.6 62.1002 58.9 61.2002 55.9 61.2002C55.5 61.2002 55.1 61.2002 54.7 61.3002C53.2 61.4002 51.8 61.8002 50.5 62.4002C49.6 62.8002 48.7 63.3002 47.9 63.9002H8.39999C6.49999 44.5002 7 31.0002 8 22.4002ZM43.1 73.9002H9.5C9.2 71.8002 8.99999 69.8002 8.79999 67.8002H44.3C43.5 69.3002 43 71.0002 43 72.8002C43.1 73.2002 43.1 73.5002 43.1 73.9002ZM7.5 82.8002L9.60001 77.9002H44.4C45 79.0002 45.7 80.0002 46.7 80.9002C46.1 81.5002 45.5 82.1002 45.1 82.8002H7.5ZM110.1 82.7002C112.5 84.1002 114 86.5002 114 89.0002C114 93.2002 110.1 96.6002 105.3 96.6002C100.5 96.6002 96.6 93.2002 96.6 89.0002C96.6 88.7002 96.6 88.5002 96.7 88.2002C96.8 87.6002 96.6 87.1002 96.2 86.6002C95.8 86.2002 95.3 85.9002 94.7 85.9002H69.5H66.6C66 85.9002 65.5 86.1002 65.1 86.6002C65 86.7002 65 86.7002 64.9 86.8002C64.6 87.2002 64.5 87.7002 64.6 88.2002C64.6 88.5002 64.7 88.7002 64.7 89.0002C64.7 93.2002 60.8 96.6002 56 96.6002C51.2 96.6002 47.3 93.2002 47.3 89.0002C47.3 88.3002 47.4 87.6002 47.7 86.9002C48.2 85.3002 49.4 83.9002 51 82.9002C51.1 82.8002 51.2 82.8002 51.2 82.7002C51.8 82.3002 52.2 81.7002 52.2 81.0002C52.2 80.3002 51.8 79.6002 51.2 79.3002C50.6 78.9002 50 78.5002 49.5 78.0002C48.4 76.9002 47.6 75.5002 47.4 74.0002C47.3 73.7002 47.3 73.3002 47.3 73.0002C47.3 71.1002 48.1 69.3002 49.5 68.0002C49.9 67.6002 50.3 67.3002 50.7 67.0002C51.8 66.3002 53.1 65.8002 54.5 65.5002C55 65.4002 55.5 65.4002 56 65.4002C58.6 65.4002 60.9 66.4002 62.5 68.0002C62.8 68.3002 63.1 68.6002 63.3 69.0002C63.9 69.8002 64.3 70.8002 64.5 71.8002C64.6 72.2002 64.6 72.6002 64.6 73.1002C64.6 73.4002 64.6 73.6002 64.5 73.9002C64.4 74.5002 64.6 75.0002 65 75.5002C65.4 75.9002 65.8 76.1002 66.4 76.2002H66.5H94.5C95.1 76.2002 95.6 76.0002 96 75.5002C96.2 75.3002 96.3 75.1002 96.4 74.8002C96.5 74.5002 96.5 74.2002 96.5 73.9002C96.5 73.6002 96.4 73.4002 96.4 73.1002C96.4 68.9002 100.3 65.5002 105.1 65.5002C105.9 65.5002 106.6 65.6002 107.3 65.7002C108.4 65.9002 109.5 65.3002 109.7 64.2002C109.9 63.1002 109.3 62.0002 108.2 61.8002C107.2 61.6002 106.1 61.4002 105.1 61.4002C98.4 61.4002 92.9 66.1002 92.4 72.0002H68.4C68.3 70.6002 67.8 69.2002 67.2 68.0002C67.7 63.7002 68 59.7002 68.3 55.9002C73.8 57.5002 80.4 58.4002 87.6 58.4002C105 58.4002 114.9 53.1002 120 48.8002L123 63.5002C123 63.6002 123.1 63.7002 123.1 63.8002C123.2 64.1002 123.3 64.4002 123.3 64.7002C123.3 66.4002 121.2 68.3002 117.4 70.0002C117.1 69.0002 116.7 68.0002 116.1 67.1002C115.5 66.2002 114.3 65.9002 113.3 66.5002C112.4 67.1002 112.1 68.3002 112.7 69.3002C113.1 70.0002 113.4 70.7002 113.6 71.5002C113.7 72.0002 113.8 72.5002 113.8 72.9002C113.8 73.9002 113.6 74.9002 113.1 75.8002C112.4 77.2002 111.3 78.4002 109.9 79.2002C109.3 79.6002 108.9 80.2002 108.9 80.9002C108.9 81.6002 109.5 82.3002 110.1 82.7002Z" fill="#134C5F"/>
<circle cx="81.5" cy="42.5" r="3.5" stroke="#134C5F" stroke-width="3.5"/>
<circle cx="96.5" cy="32.5" r="2.5" stroke="#134C5F" stroke-width="3.5"/>
<circle cx="104" cy="44" r="3" stroke="#134C5F" stroke-width="3.5"/>
</svg>
