<svg fill="none" height="420" viewBox="0 0 400 420" width="400" xmlns="http://www.w3.org/2000/svg" xmlns:xlink="http://www.w3.org/1999/xlink"><mask id="a" height="420" maskUnits="userSpaceOnUse" width="400" x="0" y="0"><path d="m0 0h400v420h-400z" fill="#f0f0f0"/></mask><g mask="url(#a)"><path d="m265.96 372.734c-24.294 47.763-58.554 52.705-85.103 37.846-26.554-14.852-39.403-36.692-58.819-46.098l-1.011.056c-19.416-9.406-44.8109-5.549-72.9334-17.186-28.1233-11.639-45.80073-40.658-23.0821-89.184 23.1665-43.435 58.5587-30.307 112.8475-68.573 47.803-33.698 76.098-15.388 76.098-15.388l.794.385s32.09 11.193 34.832 69.133c3.127 66.172 36.375 84.037 16.377 129.009zm-91.139-242.017c25.107 9.903 56.762-10.499 70.702-45.5715 13.94-35.0714 4.886-71.5315-20.221-81.43419-25.108-9.90269-56.763 10.50029-70.702 45.57169-13.94 35.0714-4.887 71.531 20.221 81.434zm91.49 45.053c20.526 17.89 57.581 9.152 82.763-19.518 25.181-28.671 28.955-66.4159 8.43-84.3058-20.526-17.8903-57.581-9.1523-82.762 19.5185-25.181 28.6693-28.957 66.4153-8.431 84.3053zm122.551 26.652c-17.874-15.58-50.142-7.972-72.071 16.995-21.929 24.968-25.215 57.836-7.341 73.415 17.875 15.579 50.142 7.971 72.072-16.996 21.929-24.965 25.216-57.835 7.34-73.414zm-263.679-75.841c6.175-32.5976-7.737-62.5812-31.0757-66.9697-23.3388-4.3884-47.2665 18.4804-53.4428 51.0787-6.176 32.598 7.7371 62.582 31.0759 66.97 23.3377 4.389 47.2646-18.48 53.4426-51.079z" fill="#f1f9ff" opacity=".7"/></g></svg>