<svg width="400" height="420" viewBox="0 0 400 420" fill="none" xmlns="http://www.w3.org/2000/svg"><mask id="mask0" mask-type="alpha" maskUnits="userSpaceOnUse" x="0" y="0" width="400" height="420"><rect width="400" height="420" fill="#F0F0F0"/></mask><g mask="url(#mask0)"><path opacity=".7" d="M265.96 372.734C241.666 420.497 207.406 425.439 180.857 410.58C154.303 395.728 141.454 373.888 122.038 364.482L121.027 364.538C101.611 355.132 76.2161 358.989 48.0936 347.352C19.9703 335.713 2.29287 306.694 25.0115 258.168C48.178 214.733 83.5702 227.861 137.859 189.595C185.662 155.897 213.957 174.207 213.957 174.207L214.751 174.592C214.751 174.592 246.841 185.785 249.583 243.725C252.71 309.897 285.958 327.762 265.96 372.734ZM174.821 130.717C199.928 140.62 231.583 120.218 245.523 85.1455C259.463 50.0741 250.409 13.614 225.302 3.71131C200.194 -6.19138 168.539 14.2116 154.6 49.283C140.66 84.3544 149.713 120.814 174.821 130.717ZM266.311 175.77C286.837 193.66 323.892 184.922 349.074 156.252C374.255 127.581 378.029 89.8361 357.504 71.9462C336.978 54.0559 299.923 62.7939 274.742 91.4647C249.561 120.134 245.785 157.88 266.311 175.77ZM388.862 202.422C370.988 186.842 338.72 194.45 316.791 219.417C294.862 244.385 291.576 277.253 309.45 292.832C327.325 308.411 359.592 300.803 381.522 275.836C403.451 250.871 406.738 218.001 388.862 202.422ZM125.183 126.581C131.358 93.9834 117.446 63.9998 94.1073 59.6113C70.7685 55.2229 46.8408 78.0917 40.6645 110.69C34.4885 143.288 48.4016 173.272 71.7404 177.66C95.0781 182.049 119.005 159.18 125.183 126.581Z" fill="#F1F9FF"/></g></svg>