<svg width="114" height="90" viewBox="0 0 114 90" fill="none" xmlns="http://www.w3.org/2000/svg"><path d="M5.70133 67.546C5.44442 65.3018 4.27978 45.8472 11.2861 49.6719C12.7855 50.4904 13.4761 52.4786 14.0785 53.8876C15.0664 56.1988 16.0398 58.6427 16.5256 61.1065C16.6183 61.5765 16.9763 62.5445 16.4859 62.5374C15.7572 62.527 15.8049 59.021 15.8012 58.8534C15.6936 53.9682 16.3379 48.8304 19.1677 44.7051C21.2972 41.6006 25.6379 39.975 27.4654 44.3673C29.6388 49.591 30.8401 56.7452 30.2122 62.3984" stroke="#fff" stroke-width="4" stroke-linecap="round" stroke-linejoin="round"/><path d="M38.7995 49.5369C43.7126 50.031 48.7258 45.5772 50.1712 41.0897C51.3943 37.2921 44.9609 37.4039 42.9557 38.4375C37.499 41.2503 36.7735 47.6441 40.1689 52.3023C44.3685 58.064 50.3037 54.5414 54.2837 50.4578" stroke="#fff" stroke-width="4" stroke-linecap="round" stroke-linejoin="round"/><path d="M60.2505 35.7037C58.8183 40.0686 60.5593 44.4726 64.1009 47.6402C68.3427 51.4342 72.8837 49.0447 74.3103 44.1952C75.8918 38.8187 74.9987 31.6784 69.1035 29.5108C63.5381 27.4644 61.3537 35.6693 60.1506 39.7316" stroke="#fff" stroke-width="4" stroke-linecap="round" stroke-linejoin="round"/><path d="M86.281 24.7271C84.4414 29.2495 83.6124 33.8553 84.7635 38.7267C85.5138 41.902 87.719 45.5712 90.9605 42.4241C93.6338 39.8288 95.1047 35.9118 95.8019 32.358C95.9035 31.8401 96.56 25.4928 94.8262 28.2851C92.0234 32.7989 95.9106 44.4632 102.608 40.5256C106.86 38.0258 108.295 32.3026 109.426 27.9657C109.754 26.7064 111.289 23.3025 110.173 22.123" stroke="#fff" stroke-width="4" stroke-linecap="round" stroke-linejoin="round"/></svg>