<svg fill="none" height="90" viewBox="0 0 114 90" width="114" xmlns="http://www.w3.org/2000/svg"><g stroke="#fff" stroke-linecap="round" stroke-linejoin="round" stroke-width="4"><path d="m5.70133 67.546c-.25691-2.2442-1.42155-21.6988 5.58477-17.8741 1.4994.8185 2.19 2.8067 2.7924 4.2157.9879 2.3112 1.9613 4.7551 2.4471 7.2189.0927.47.4507 1.438-.0397 1.4309-.7287-.0104-.681-3.5164-.6847-3.684-.1076-4.8852.5367-10.023 3.3665-14.1483 2.1295-3.1045 6.4702-4.7301 8.2977-.3378 2.1734 5.2237 3.3747 12.3779 2.7468 18.0311"/><path d="m38.7995 49.5369c4.9131.4941 9.9263-3.9597 11.3717-8.4472 1.2231-3.7976-5.2103-3.6858-7.2155-2.6522-5.4567 2.8128-6.1822 9.2066-2.7868 13.8648 4.1996 5.7617 10.1348 2.2391 14.1148-1.8445"/><path d="m60.2505 35.7037c-1.4322 4.3649.3088 8.7689 3.8504 11.9365 4.2418 3.794 8.7828 1.4045 10.2094-3.445 1.5815-5.3765.6884-12.5168-5.2068-14.6844-5.5654-2.0464-7.7498 6.1585-8.9529 10.2208"/><path d="m86.281 24.7271c-1.8396 4.5224-2.6686 9.1282-1.5175 13.9996.7503 3.1753 2.9555 6.8445 6.197 3.6974 2.6733-2.5953 4.1442-6.5123 4.8414-10.0661.1016-.5179.7581-6.8652-.9757-4.0729-2.8028 4.5138 1.0844 16.1781 7.7818 12.2405 4.252-2.4998 5.687-8.223 6.818-12.5599.328-1.2593 1.863-4.6632.747-5.8427"/></g></svg>