<svg width="331" height="230" viewBox="0 0 331 230" fill="none" xmlns="http://www.w3.org/2000/svg">
<path d="M41.7014 127.731C42.4733 132.962 46.3329 137.463 51.7364 138.801C57.2685 140.139 63.1865 137.828 66.2742 133.449C67.3034 131.989 64.859 130.651 63.8298 132.111C61.3854 135.517 56.4965 137.341 52.251 136.125C50.1925 135.638 48.3914 134.422 47.1048 132.962C45.561 131.259 44.9177 129.313 44.5318 127.123C44.4031 126.393 43.3739 126.028 42.7306 126.15C41.9587 126.271 41.5728 127.001 41.7014 127.731Z" fill="#FF6B7F" stroke="#FF6B7F"/>
<path d="M67.1747 131.502C66.4028 126.758 63.4438 122.379 59.1982 119.702C56.8825 118.243 54.0521 117.148 51.2217 117.391C48.7773 117.634 46.4615 118.729 44.7891 120.311C43.1166 121.892 41.83 124.082 41.7014 126.393C41.5727 128.461 42.3446 130.651 43.3739 132.475C45.6896 136.49 50.1925 139.044 54.9527 139.166C57.6544 139.166 60.3561 138.558 62.6719 137.098C64.6017 136.003 65.8882 134.422 67.0461 132.597C68.0753 131.137 65.5022 129.678 64.6017 131.259C62.8005 134.057 60.2274 135.882 56.7538 136.368C53.0229 136.855 49.1633 135.395 46.8475 132.475C45.6896 131.016 45.0464 129.434 44.6604 127.61C44.4031 126.028 45.0464 124.447 46.0756 123.23C47.2335 121.77 48.906 120.676 50.7071 120.311C52.8942 119.824 55.21 120.676 57.0111 121.77C60.9994 124.082 63.7011 127.975 64.3444 132.354C64.6017 134.057 67.432 133.327 67.1747 131.502Z" fill="#FF6B7F" stroke="#FF6B7F"/>
<path d="M126.741 121.406C130.215 124.812 135.876 126.028 140.636 124.568C145.396 123.109 149.127 118.973 149.77 114.35C150.413 110.092 148.612 105.956 144.367 104.01C139.349 101.699 134.074 103.645 130.472 107.294C128.542 109.362 126.998 111.795 126.227 114.472C125.841 115.81 125.583 117.27 125.583 118.608C125.583 119.338 125.583 119.946 126.098 120.554C126.227 120.919 126.484 121.162 126.741 121.406C128.028 122.744 130.086 120.797 128.8 119.459C128.542 119.216 128.285 118.973 128.028 118.608C128.156 118.973 128.285 119.216 128.414 119.581C128.285 115.688 129.829 111.795 132.659 108.997C135.361 106.321 139.221 104.618 142.951 106.443C150.027 109.849 146.682 119.338 140.507 121.77C136.519 123.352 131.759 122.5 128.8 119.581C127.513 118.243 125.455 120.189 126.741 121.406Z" fill="#FF6B7F"/>
<path d="M126.741 121.406C130.215 124.812 135.876 126.028 140.636 124.568C145.396 123.109 149.127 118.973 149.77 114.35C150.413 110.092 148.612 105.956 144.367 104.01C139.349 101.699 134.074 103.645 130.472 107.294C128.542 109.362 126.998 111.795 126.227 114.472C125.841 115.81 125.583 117.27 125.583 118.608C125.583 119.338 125.583 119.946 126.098 120.554C126.227 120.919 126.484 121.162 126.741 121.406ZM126.741 121.406C128.028 122.744 130.086 120.797 128.8 119.459C128.542 119.216 128.285 118.973 128.028 118.608C128.156 118.973 128.285 119.216 128.414 119.581C128.285 115.688 129.829 111.795 132.659 108.997C135.361 106.321 139.221 104.618 142.951 106.443C150.027 109.849 146.682 119.338 140.507 121.77C136.519 123.352 131.759 122.5 128.8 119.581C127.513 118.243 125.455 120.189 126.741 121.406Z" stroke="#FF6B7F"/>
<path d="M91.3616 75.5615C91.2329 75.5615 91.6189 75.5615 91.6189 75.5615C91.8762 75.6831 92.0048 75.6831 92.2621 75.8048C93.0341 76.1697 93.5487 76.7779 94.0633 77.3862C95.6071 79.0892 96.765 81.0356 97.7942 83.1036C100.625 88.5777 102.683 92.5751 103.712 98.5358C104.227 101.455 104.613 104.375 104.484 107.294C104.484 108.633 104.356 109.971 104.098 111.187C103.712 113.134 103.069 115.08 103.326 117.026C103.712 121.162 107.829 123.838 110.917 126.271C114.519 129.069 118.25 131.746 122.11 134.3C125.712 136.733 129.443 138.923 133.303 140.991C134.975 141.964 136.776 142.815 138.32 144.032C139.992 145.37 141.022 146.951 141.922 148.776C143.852 152.912 144.753 157.291 145.653 161.671C146.425 165.807 148.355 169.578 148.355 173.835C148.355 176.633 147.712 179.431 146.682 182.108C146.168 183.567 145.139 185.514 145.911 187.095C147.454 189.893 151.571 187.338 152.986 185.757C154.273 184.297 154.916 182.594 155.688 181.013C156.717 178.823 157.618 176.755 158.647 174.565C161.864 167.632 165.466 160.819 167.524 153.52C169.454 146.708 169.969 139.531 170.998 132.597C172.027 125.906 173.056 118.973 171.641 112.282C170.998 109.362 169.84 106.686 167.91 104.375C166.881 103.158 165.466 102.064 164.308 100.969C163.665 100.239 163.021 99.6307 162.635 98.6575C162.635 98.6575 162.507 97.806 162.507 98.2925C162.507 98.1709 162.507 98.0493 162.507 97.9276C162.764 94.2782 164.179 91.9839 164.951 88.2128C166.366 80.9139 166.752 73.4935 166.109 66.073C165.98 64.1266 165.466 62.0586 165.337 60.1123C165.209 57.6793 166.109 54.8814 166.624 52.4485C167.653 48.0692 168.554 43.8115 169.068 39.4322C169.969 30.4303 169.068 21.3068 166.495 12.5482C165.466 9.14204 164.565 4.76273 161.606 2.32979C158.261 -0.468099 154.659 1.72155 151.571 3.66791C144.367 8.04721 137.677 13.3997 131.887 19.3604C126.098 25.4428 120.437 32.3767 117.35 40.0405C114.519 47.096 115.42 54.7598 120.051 60.8421C122.238 63.64 125.069 65.9513 128.285 67.4111C129.186 67.776 130.086 67.5327 130.472 66.5596C131.63 62.6669 129.7 59.0174 126.484 56.5845C122.882 53.9082 118.636 53.1784 114.262 53.9082C109.244 54.7598 104.613 57.1927 99.9813 59.0174C94.9639 61.0854 89.5604 62.6668 84.157 63.8833C73.6074 66.3163 62.8005 67.4111 52.251 69.7224C48.2627 70.5739 44.0172 72.5203 43.6312 76.7779C43.5025 78.481 44.0172 80.3057 45.4324 81.4005C46.7189 82.3737 49.0346 81.1572 50.1925 80.4274C56.3679 76.2914 56.1106 67.4111 51.9937 61.937C49.2919 58.4092 45.561 55.8546 41.7014 53.4217C37.3272 50.7454 32.953 48.0692 28.8361 45.1496C24.3332 41.9868 19.959 38.7023 15.8421 35.1746C13.0117 32.7416 8.89483 27.9974 4.52062 30.187C0.789671 32.0117 0.918324 36.9993 1.04698 40.4054C1.17563 45.2713 2.0762 50.1372 3.49139 54.8814C5.03523 59.6257 7.09368 64.2483 9.7954 68.5059C12.4971 72.6419 15.4561 76.7779 16.7427 81.5222C18.1579 86.6314 17.7719 90.0205 18.1579 95.1297C18.5438 99.9956 19.8304 104.74 21.3742 109.362C23.0467 113.985 24.8478 118.729 25.3624 123.595C25.8771 128.826 24.4619 133.692 23.8186 138.801C23.1753 143.667 24.0759 148.29 26.5203 152.669C29.0934 157.17 32.567 161.306 35.7834 165.32C41.9587 173.106 48.1341 181.134 55.4673 187.947C58.6836 190.988 62.2859 193.664 66.2742 195.854C68.204 196.949 70.2624 197.8 72.4495 198.53C73.4788 198.895 74.508 199.138 75.5372 199.381C76.3091 199.503 77.3384 199.99 78.1103 199.503C79.7828 198.53 78.2389 196.462 77.5957 195.367C76.1805 193.056 74.508 190.744 72.9641 188.555C69.3619 183.202 64.9876 177.485 63.8298 171.038C63.4438 168.361 63.4438 165.685 63.5725 163.009C63.7011 160.454 63.8298 157.9 64.2157 155.467C64.7303 151.574 66.7888 147.925 69.2332 144.762C74.508 137.828 81.7126 132.597 87.6306 126.271C89.1745 124.568 90.3323 122.744 90.5896 120.554C90.8469 118.243 90.5896 115.81 90.075 113.498C89.1744 109.119 86.9874 105.226 85.3149 101.09C82.4845 94.0349 82.8704 88.2128 85.5722 81.1572C87.2447 79.2109 88.6598 76.1697 91.3616 75.5615C93.1627 75.0749 92.3908 72.5203 90.5896 72.8852C85.8295 74.1017 83.771 79.5758 82.6131 83.5902C81.198 88.9427 80.5547 92.9401 81.9699 98.2925C83.771 105.105 88.1452 111.066 88.5312 118.243C88.6598 120.067 88.5312 121.892 87.3733 123.474C86.3441 124.933 84.9289 126.028 83.771 127.245C81.3266 129.556 78.7535 131.867 76.3091 134.178C71.549 138.679 66.7888 143.545 63.9584 149.384C62.5432 152.304 62.0286 155.102 61.7713 158.265C61.3854 162.157 60.9994 166.172 61.3854 170.064C61.9 175.417 64.473 179.918 67.3034 184.54C69.8765 188.555 72.7068 192.448 75.2799 196.584C75.6659 197.192 76.0518 197.678 76.3091 198.287C76.4378 198.408 76.6951 198.895 76.4378 198.652C76.4378 198.652 76.4378 198.895 76.5664 198.895C76.4378 198.165 76.8237 197.678 77.7243 197.313C77.5957 197.313 77.3384 197.192 77.2097 197.192C76.4378 196.827 75.4086 196.827 74.508 196.584C73.6074 196.34 72.8355 196.097 71.9349 195.732C70.2624 195.124 68.5899 194.272 67.0461 193.299C60.7421 189.65 55.7246 184.54 51.0931 179.31C45.6897 173.106 40.5435 166.658 35.526 160.211C33.2103 157.17 30.6372 154.007 28.9647 150.601C27.1636 146.951 26.7776 143.302 27.2922 139.288C27.8069 135.273 28.9647 131.259 28.9647 127.245C29.0934 123.595 28.3215 119.946 27.2922 116.54C26.1344 112.89 24.7192 109.241 23.5613 105.591C22.4034 101.82 21.6315 97.9276 21.5028 94.0349C21.3742 90.2638 21.3742 88.3344 20.7309 84.5634C20.0877 80.6707 18.6725 77.1429 16.7427 73.7367C14.8129 70.4523 12.6258 67.4111 10.8246 64.1266C8.89483 60.5988 7.35099 56.7061 6.32176 52.8134C5.29253 49.0424 4.64927 45.2713 4.52062 41.5002C4.39196 39.3106 3.7487 33.9581 6.70772 33.1066C8.50887 32.4983 10.31 34.2014 11.4679 35.2962C13.0117 36.6343 14.6842 38.0941 16.3567 39.4322C19.4444 41.9868 22.5321 44.2981 25.8771 46.6094C29.3507 49.0424 32.8243 51.4753 36.5553 53.6649C39.643 55.4897 42.7306 57.3144 45.561 59.504C50.5785 63.2751 54.4381 68.7492 52.1223 74.9532C51.2217 77.2645 49.4206 79.0892 46.8475 79.6975C47.3621 79.8191 47.7481 79.9408 48.2627 80.0624C46.0756 78.3594 47.7481 75.4398 49.6779 74.345C52.251 72.7636 55.8533 72.5203 58.8123 72.0337C65.5023 70.8172 72.1922 69.844 78.8822 68.6276C85.4435 67.4111 91.8762 65.9513 98.0515 63.64C103.97 61.572 109.759 57.9226 116.063 57.0711C119.279 56.5845 122.496 57.1927 125.197 59.0174C127.642 60.7205 129.314 63.3967 128.414 66.3163C129.186 66.073 129.829 65.8297 130.601 65.4647C123.911 62.4236 119.408 55.733 119.279 48.6774C119.279 40.527 125.069 32.8633 130.215 26.6592C135.232 20.5769 141.15 15.1028 147.583 10.3585C149.127 9.26368 150.671 8.16886 152.343 7.19568C154.016 6.10085 156.203 4.27615 158.261 4.03285C161.992 3.54626 163.407 10.7235 164.179 13.0347C166.624 21.3068 167.524 30.0654 166.881 38.5807C166.495 43.2033 165.466 47.5826 164.437 51.9619C163.922 54.0299 163.536 55.9762 163.279 58.0443C163.021 60.3556 163.407 62.3019 163.665 64.6132C164.437 71.912 164.179 79.2109 162.893 86.3881C162.121 90.5241 160.963 92.6968 160.32 96.8328C160.062 98.7791 160.577 100.361 161.864 101.942C163.021 103.28 164.437 104.253 165.723 105.591C166.752 106.686 167.524 107.903 168.168 109.241C170.869 114.958 170.226 121.77 169.454 127.731C169.068 131.137 168.425 134.543 167.91 137.95C167.396 141.356 167.138 144.762 166.495 148.168C165.209 154.98 162.507 161.184 159.548 167.388C157.618 171.524 155.688 175.66 153.758 179.796C152.986 181.378 152.343 183.081 151.185 184.297C150.671 184.905 150.027 185.149 149.384 185.635H149.256C148.87 185.514 148.741 185.635 148.998 185.879C148.87 186.122 149.256 186 149.127 186.122C149.127 186.122 149.384 184.784 149.513 184.419C149.899 183.446 150.285 182.351 150.542 181.378C151.443 178.458 151.957 175.295 151.571 172.254C151.185 168.24 149.513 164.59 148.741 160.698C147.969 156.683 147.068 152.791 145.396 148.898C143.852 145.37 141.794 142.694 138.32 140.504C134.846 138.436 131.244 136.611 127.899 134.543C124.039 132.111 120.18 129.556 116.578 126.88C114.905 125.663 113.104 124.325 111.431 122.987C109.888 121.77 108.086 120.432 107.057 118.729C105.899 116.661 106.671 114.472 107.057 112.404C107.315 111.066 107.443 109.849 107.572 108.511C107.701 105.713 107.443 102.915 107.057 100.239C106.157 94.3998 104.356 90.4024 101.911 84.9283C100.239 81.1572 98.0515 76.7779 94.7066 74.1017C93.5487 73.2502 92.1335 72.6419 90.5896 72.8852C88.7885 73.2502 89.5604 75.8048 91.3616 75.5615Z" fill="#FF6B7F"/>
<path d="M91.3616 75.5615C91.2329 75.5615 91.6189 75.5615 91.6189 75.5615C91.8762 75.6831 92.0048 75.6831 92.2621 75.8048C93.0341 76.1697 93.5487 76.7779 94.0633 77.3862C95.6071 79.0892 96.765 81.0356 97.7942 83.1036C100.625 88.5777 102.683 92.5751 103.712 98.5358C104.227 101.455 104.613 104.375 104.484 107.294C104.484 108.633 104.356 109.971 104.098 111.187C103.712 113.134 103.069 115.08 103.326 117.026C103.712 121.162 107.829 123.838 110.917 126.271C114.519 129.069 118.25 131.746 122.11 134.3C125.712 136.733 129.443 138.923 133.303 140.991C134.975 141.964 136.776 142.815 138.32 144.032C139.992 145.37 141.022 146.951 141.922 148.776C143.852 152.912 144.753 157.291 145.653 161.671C146.425 165.807 148.355 169.578 148.355 173.835C148.355 176.633 147.712 179.431 146.682 182.108C146.168 183.567 145.139 185.514 145.911 187.095C147.454 189.893 151.571 187.338 152.986 185.757C154.273 184.297 154.916 182.594 155.688 181.013C156.717 178.823 157.618 176.755 158.647 174.565C161.864 167.632 165.466 160.819 167.524 153.52C169.454 146.708 169.969 139.531 170.998 132.597C172.027 125.906 173.056 118.973 171.641 112.282C170.998 109.362 169.84 106.686 167.91 104.375C166.881 103.158 165.466 102.064 164.308 100.969C163.665 100.239 163.021 99.6307 162.635 98.6575C162.635 98.6575 162.507 97.806 162.507 98.2925C162.507 98.1709 162.507 98.0493 162.507 97.9276C162.764 94.2782 164.179 91.9839 164.951 88.2128C166.366 80.914 166.752 73.4935 166.109 66.073C165.98 64.1266 165.466 62.0586 165.337 60.1123C165.209 57.6793 166.109 54.8814 166.624 52.4485C167.653 48.0692 168.554 43.8115 169.068 39.4322C169.969 30.4303 169.068 21.3068 166.495 12.5482C165.466 9.14204 164.565 4.76273 161.606 2.32979C158.261 -0.468099 154.659 1.72155 151.571 3.66791C144.367 8.04721 137.677 13.3997 131.887 19.3604C126.098 25.4428 120.437 32.3767 117.35 40.0405C114.519 47.096 115.42 54.7598 120.051 60.8421C122.238 63.64 125.069 65.9513 128.285 67.4111C129.186 67.776 130.086 67.5327 130.472 66.5596C131.63 62.6668 129.7 59.0174 126.484 56.5845C122.882 53.9082 118.636 53.1784 114.262 53.9082C109.244 54.7598 104.613 57.1927 99.9813 59.0174C94.9639 61.0854 89.5604 62.6668 84.157 63.8833C73.6074 66.3163 62.8005 67.4111 52.251 69.7224C48.2627 70.5739 44.0172 72.5203 43.6312 76.7779C43.5025 78.481 44.0172 80.3057 45.4324 81.4005C46.7189 82.3737 49.0346 81.1572 50.1925 80.4274C56.3679 76.2913 56.1106 67.4111 51.9937 61.937C49.2919 58.4092 45.561 55.8546 41.7014 53.4217C37.3272 50.7454 32.953 48.0692 28.8361 45.1496C24.3332 41.9868 19.959 38.7023 15.8421 35.1746C13.0117 32.7416 8.89483 27.9974 4.52062 30.187C0.789671 32.0117 0.918324 36.9993 1.04698 40.4054C1.17563 45.2713 2.0762 50.1372 3.49139 54.8814C5.03523 59.6257 7.09368 64.2483 9.7954 68.5059C12.4971 72.6419 15.4561 76.7779 16.7427 81.5222C18.1579 86.6314 17.7719 90.0205 18.1579 95.1297C18.5438 99.9956 19.8304 104.74 21.3742 109.362C23.0467 113.985 24.8478 118.729 25.3624 123.595C25.8771 128.826 24.4619 133.692 23.8186 138.801C23.1753 143.667 24.0759 148.29 26.5203 152.669C29.0934 157.17 32.567 161.306 35.7834 165.32C41.9587 173.106 48.1341 181.134 55.4673 187.947C58.6836 190.988 62.2859 193.664 66.2742 195.854C68.204 196.949 70.2624 197.8 72.4495 198.53C73.4788 198.895 74.508 199.138 75.5372 199.381C76.3091 199.503 77.3384 199.99 78.1103 199.503C79.7828 198.53 78.2389 196.462 77.5957 195.367C76.1805 193.056 74.508 190.744 72.9641 188.555C69.3619 183.202 64.9876 177.485 63.8298 171.038C63.4438 168.361 63.4438 165.685 63.5725 163.009C63.7011 160.454 63.8298 157.9 64.2157 155.467C64.7303 151.574 66.7888 147.925 69.2332 144.762C74.508 137.828 81.7126 132.597 87.6306 126.271C89.1745 124.568 90.3323 122.744 90.5896 120.554C90.8469 118.243 90.5896 115.81 90.075 113.498C89.1744 109.119 86.9873 105.226 85.3149 101.09C82.4845 94.0349 82.8704 88.2128 85.5722 81.1572C87.2447 79.2109 88.6598 76.1697 91.3616 75.5615ZM91.3616 75.5615C93.1627 75.0749 92.3908 72.5203 90.5896 72.8852M91.3616 75.5615C89.5604 75.8048 88.7885 73.2502 90.5896 72.8852M90.5896 72.8852C85.8295 74.1017 83.771 79.5758 82.6131 83.5902C81.198 88.9427 80.5547 92.9401 81.9699 98.2925C83.771 105.105 88.1452 111.066 88.5312 118.243C88.6598 120.067 88.5312 121.892 87.3733 123.474C86.3441 124.933 84.9289 126.028 83.771 127.245C81.3266 129.556 78.7535 131.867 76.3091 134.179C71.549 138.679 66.7888 143.545 63.9584 149.384C62.5432 152.304 62.0286 155.102 61.7713 158.265C61.3854 162.157 60.9994 166.172 61.3854 170.064C61.9 175.417 64.473 179.918 67.3034 184.54C69.8765 188.555 72.7068 192.448 75.2799 196.584C75.6659 197.192 76.0518 197.678 76.3091 198.287C76.4378 198.408 76.6951 198.895 76.4378 198.652C76.4378 198.652 76.4378 198.895 76.5664 198.895C76.4378 198.165 76.8237 197.678 77.7243 197.313C77.5957 197.313 77.3384 197.192 77.2097 197.192C76.4378 196.827 75.4086 196.827 74.508 196.584C73.6074 196.34 72.8355 196.097 71.9349 195.732C70.2624 195.124 68.5899 194.272 67.0461 193.299C60.7421 189.65 55.7246 184.54 51.0931 179.31C45.6897 173.106 40.5435 166.658 35.526 160.211C33.2103 157.17 30.6372 154.007 28.9647 150.601C27.1636 146.951 26.7776 143.302 27.2922 139.288C27.8069 135.273 28.9647 131.259 28.9647 127.245C29.0934 123.595 28.3215 119.946 27.2922 116.54C26.1344 112.89 24.7192 109.241 23.5613 105.591C22.4034 101.82 21.6315 97.9276 21.5028 94.0349C21.3742 90.2638 21.3742 88.3344 20.7309 84.5634C20.0877 80.6707 18.6725 77.1429 16.7427 73.7367C14.8129 70.4523 12.6258 67.4111 10.8246 64.1266C8.89483 60.5988 7.35099 56.7061 6.32176 52.8134C5.29253 49.0424 4.64927 45.2713 4.52062 41.5002C4.39196 39.3106 3.7487 33.9581 6.70772 33.1066C8.50887 32.4983 10.31 34.2014 11.4679 35.2962C13.0117 36.6343 14.6842 38.0941 16.3567 39.4322C19.4444 41.9868 22.5321 44.2981 25.8771 46.6094C29.3507 49.0423 32.8243 51.4753 36.5553 53.6649C39.643 55.4897 42.7306 57.3144 45.561 59.504C50.5785 63.2751 54.4381 68.7492 52.1223 74.9532C51.2217 77.2645 49.4206 79.0892 46.8475 79.6975C47.3621 79.8191 47.7481 79.9408 48.2627 80.0624C46.0756 78.3594 47.7481 75.4398 49.6779 74.345C52.251 72.7636 55.8533 72.5203 58.8123 72.0337C65.5023 70.8172 72.1922 69.844 78.8822 68.6276C85.4435 67.4111 91.8762 65.9513 98.0515 63.64C103.97 61.572 109.759 57.9226 116.063 57.0711C119.279 56.5845 122.496 57.1927 125.197 59.0174C127.642 60.7205 129.314 63.3967 128.414 66.3163C129.186 66.073 129.829 65.8297 130.601 65.4647C123.911 62.4236 119.408 55.733 119.279 48.6774C119.279 40.527 125.069 32.8633 130.215 26.6592C135.232 20.5769 141.15 15.1028 147.583 10.3585C149.127 9.26368 150.671 8.16886 152.343 7.19568C154.016 6.10085 156.203 4.27615 158.261 4.03285C161.992 3.54626 163.407 10.7235 164.179 13.0348C166.624 21.3068 167.524 30.0654 166.881 38.5807C166.495 43.2033 165.466 47.5826 164.437 51.9619C163.922 54.0299 163.536 55.9762 163.279 58.0443C163.021 60.3556 163.407 62.3019 163.665 64.6132C164.437 71.912 164.179 79.2109 162.893 86.3881C162.121 90.5241 160.963 92.6968 160.32 96.8328C160.062 98.7791 160.577 100.361 161.864 101.942C163.021 103.28 164.437 104.253 165.723 105.591C166.752 106.686 167.524 107.903 168.168 109.241C170.869 114.958 170.226 121.77 169.454 127.731C169.068 131.137 168.425 134.543 167.91 137.95C167.396 141.356 167.138 144.762 166.495 148.168C165.209 154.98 162.507 161.184 159.548 167.388C157.618 171.524 155.688 175.66 153.758 179.796C152.986 181.378 152.343 183.081 151.185 184.297C150.671 184.905 150.027 185.149 149.384 185.635H149.256C148.87 185.514 148.741 185.635 148.998 185.879C148.87 186.122 149.256 186 149.127 186.122C149.127 186.122 149.384 184.784 149.513 184.419C149.899 183.446 150.285 182.351 150.542 181.378C151.443 178.458 151.957 175.295 151.571 172.254C151.185 168.24 149.513 164.59 148.741 160.698C147.969 156.683 147.068 152.791 145.396 148.898C143.852 145.37 141.794 142.694 138.32 140.504C134.846 138.436 131.244 136.611 127.899 134.543C124.039 132.111 120.18 129.556 116.578 126.88C114.905 125.663 113.104 124.325 111.431 122.987C109.888 121.77 108.086 120.432 107.057 118.729C105.899 116.661 106.671 114.472 107.057 112.404C107.315 111.066 107.443 109.849 107.572 108.511C107.701 105.713 107.443 102.915 107.057 100.239C106.157 94.3998 104.356 90.4024 101.911 84.9283C100.239 81.1572 98.0515 76.7779 94.7065 74.1017C93.5487 73.2502 92.1335 72.6419 90.5896 72.8852Z" stroke="#FF6B7F"/>
<path d="M89.3031 136.855C90.2037 135.273 91.4902 134.3 93.2913 133.57C95.6071 132.597 98.0515 131.867 100.496 131.259C102.554 130.772 105.642 129.556 107.443 131.016C109.116 132.475 110.531 134.543 111.689 136.368C111.946 136.855 112.332 137.341 112.589 137.828C112.718 138.071 113.361 138.923 113.361 139.166C113.233 139.774 111.303 140.383 110.788 140.261C109.63 140.018 108.858 138.071 108.215 137.22C105.771 134.543 101.268 136.003 101.139 139.653C101.011 141.721 102.683 143.424 104.484 144.154C106.929 145.127 109.502 144.519 111.817 143.789C111.303 143.545 110.788 143.424 110.145 143.18C110.917 144.64 108.987 146.222 107.701 146.951C106.028 147.925 104.098 148.411 102.168 148.655C100.239 148.898 98.1802 148.655 96.379 148.29C94.7065 147.925 92.6481 147.438 91.7475 145.857C91.3615 146.587 90.9756 147.195 90.461 147.925C92.9054 148.046 95.2211 146.951 96.765 145.127C98.1802 143.424 99.2094 140.626 97.5369 138.801C95.9931 137.22 93.2913 137.098 91.4902 138.436C89.1744 140.139 88.9171 143.059 89.0458 145.613C89.689 145.127 90.2037 144.762 90.8469 144.275C89.689 144.032 88.6598 143.424 87.7592 142.815C87.5019 142.694 86.8587 142.207 86.73 141.964C86.8587 142.329 86.8587 141.721 86.9873 141.477C87.2446 139.896 88.5312 138.436 89.3031 136.855C90.075 135.273 87.6306 133.935 86.8587 135.517C85.8294 137.585 83.771 139.774 83.8997 142.207C83.8997 143.545 84.9289 144.275 85.9581 145.005C87.2446 145.978 88.6598 146.708 90.2037 147.073C91.1042 147.316 92.0048 146.708 92.0048 145.735C92.0048 144.397 91.8761 142.815 92.6481 141.477C93.1627 140.747 94.8352 139.531 95.4784 140.747C95.9931 141.721 94.8352 143.302 94.0633 143.91C93.034 144.762 91.7475 145.248 90.461 145.127C89.3031 145.127 88.6598 146.343 89.1744 147.195C90.461 149.384 93.034 150.358 95.4784 150.844C98.3088 151.452 101.139 151.574 103.841 151.087C107.958 150.358 115.291 146.83 112.461 141.842C112.203 141.356 111.431 140.991 110.788 141.234C108.73 141.842 105.771 142.815 104.098 140.869C103.584 140.261 103.455 139.166 104.356 138.679C104.999 138.315 105.513 138.923 105.899 139.409C106.929 140.626 107.572 141.964 108.987 142.694C110.788 143.545 112.847 142.694 114.39 141.721C116.192 140.504 116.063 138.923 115.162 137.22C114.005 135.152 112.718 133.205 111.174 131.381C109.888 129.799 108.472 128.096 106.157 127.731C103.841 127.366 101.139 128.218 98.8234 128.826C94.3206 130.042 88.9171 131.381 86.4727 135.638C85.9581 137.098 88.4025 138.436 89.3031 136.855Z" fill="#FF6B7F"/>
<path d="M89.3031 136.855C90.2037 135.273 91.4902 134.3 93.2913 133.57C95.6071 132.597 98.0515 131.867 100.496 131.259C102.554 130.772 105.642 129.556 107.443 131.016C109.116 132.475 110.531 134.543 111.689 136.368C111.946 136.855 112.332 137.341 112.589 137.828C112.718 138.071 113.361 138.923 113.361 139.166C113.233 139.774 111.303 140.383 110.788 140.261C109.63 140.018 108.858 138.071 108.215 137.22C105.771 134.543 101.268 136.003 101.139 139.653C101.011 141.721 102.683 143.424 104.484 144.154C106.929 145.127 109.502 144.519 111.817 143.789C111.303 143.545 110.788 143.424 110.145 143.18C110.917 144.64 108.987 146.222 107.701 146.951C106.028 147.925 104.098 148.411 102.168 148.655C100.239 148.898 98.1802 148.655 96.379 148.29C94.7065 147.925 92.6481 147.438 91.7475 145.857C91.3615 146.587 90.9756 147.195 90.461 147.925C92.9054 148.046 95.2211 146.951 96.765 145.127C98.1802 143.424 99.2094 140.626 97.5369 138.801C95.9931 137.22 93.2913 137.098 91.4902 138.436C89.1744 140.139 88.9171 143.059 89.0458 145.613C89.689 145.127 90.2037 144.762 90.8469 144.275C89.689 144.032 88.6598 143.424 87.7592 142.815C87.5019 142.694 86.8587 142.207 86.73 141.964C86.8587 142.329 86.8587 141.721 86.9873 141.477C87.2446 139.896 88.5312 138.436 89.3031 136.855ZM89.3031 136.855C90.075 135.273 87.6306 133.935 86.8587 135.517C85.8294 137.585 83.771 139.774 83.8997 142.207C83.8997 143.545 84.9289 144.275 85.9581 145.005C87.2446 145.978 88.6598 146.708 90.2037 147.073C91.1042 147.316 92.0048 146.708 92.0048 145.735C92.0048 144.397 91.8761 142.815 92.6481 141.477C93.1627 140.747 94.8352 139.531 95.4784 140.747C95.9931 141.721 94.8352 143.302 94.0633 143.91C93.034 144.762 91.7475 145.248 90.461 145.127C89.3031 145.127 88.6598 146.343 89.1744 147.195C90.461 149.384 93.034 150.358 95.4784 150.844C98.3088 151.452 101.139 151.574 103.841 151.087C107.958 150.358 115.291 146.83 112.461 141.842C112.203 141.356 111.431 140.991 110.788 141.234C108.73 141.842 105.771 142.815 104.098 140.869C103.584 140.261 103.455 139.166 104.356 138.679C104.999 138.315 105.513 138.923 105.899 139.409C106.929 140.626 107.572 141.964 108.987 142.694C110.788 143.545 112.847 142.694 114.39 141.721C116.192 140.504 116.063 138.923 115.162 137.22C114.005 135.152 112.718 133.205 111.174 131.381C109.888 129.799 108.472 128.096 106.157 127.731C103.841 127.366 101.139 128.218 98.8234 128.826C94.3206 130.042 88.9171 131.381 86.4727 135.638C85.9581 137.098 88.4025 138.436 89.3031 136.855Z" stroke="#FF6B7F"/>
<path d="M47.7481 125.542C47.3621 126.758 47.1048 128.218 47.8767 129.434C48.2627 130.042 48.906 130.529 49.6779 130.651C50.5785 130.894 51.3504 130.651 52.1223 130.042C52.6369 129.678 52.8942 129.191 53.2802 128.704C53.6661 128.096 53.9234 127.488 53.9234 126.758C54.0521 125.42 53.2802 124.082 51.865 123.595C50.3212 123.109 48.3914 124.325 48.3914 125.906C48.3914 126.636 49.0346 127.366 49.8065 127.245C50.5785 127.245 51.3504 126.636 51.2217 125.906V125.785C51.2217 125.906 51.2217 126.028 51.2217 126.15C51.2217 126.028 51.2217 126.028 51.3504 125.906C51.3504 126.028 51.2217 126.15 51.2217 126.271C51.2217 126.15 51.3504 126.15 51.3504 126.15C51.2217 126.271 51.2217 126.393 51.0931 126.393C51.2217 126.271 51.2217 126.271 51.3504 126.15C51.2217 126.271 51.0931 126.271 51.0931 126.393C51.2217 126.271 51.2217 126.271 51.3504 126.271C51.2217 126.271 51.0931 126.393 50.9644 126.393C51.0931 126.393 51.2217 126.271 51.3504 126.271C51.2217 126.271 51.0931 126.271 50.9644 126.271C51.0931 126.271 51.0931 126.271 51.2217 126.271C51.0931 126.271 50.9644 126.271 50.8358 126.271C50.9644 126.271 50.9644 126.271 51.0931 126.393C50.9644 126.393 50.8358 126.271 50.7071 126.271C50.8358 126.271 50.9644 126.393 50.9644 126.393C50.8358 126.271 50.7071 126.271 50.7071 126.15C50.8358 126.271 50.9644 126.271 50.9644 126.393C50.8358 126.271 50.8358 126.15 50.7071 126.15C50.8358 126.271 50.8358 126.393 50.9644 126.515C50.9644 126.393 50.8358 126.271 50.8358 126.15C50.9644 126.271 50.9644 126.515 50.9644 126.636C50.9644 126.515 50.9644 126.393 50.9644 126.271C50.9644 126.393 50.9644 126.636 50.9644 126.758C50.9644 126.636 50.9644 126.515 50.9644 126.393C50.9644 126.636 50.8358 126.88 50.7071 127.123C50.7071 127.001 50.8358 126.88 50.8358 126.758C50.7071 127.123 50.4498 127.488 50.1925 127.853C50.3212 127.731 50.3212 127.61 50.4498 127.61C50.3212 127.853 50.0638 127.974 49.9352 128.096C50.0638 127.974 50.1925 127.974 50.1925 127.853C50.0639 127.974 50.0638 127.974 49.9352 127.974C50.0638 127.974 50.1925 127.853 50.3212 127.853C50.1925 127.853 50.0638 127.974 50.0638 127.974C50.1925 127.974 50.3212 127.974 50.4498 127.974C50.3212 127.974 50.1925 127.974 50.1925 127.974C50.3212 127.974 50.4498 127.974 50.5785 127.974C50.4498 127.974 50.3212 127.974 50.3212 127.853C50.4498 127.853 50.5785 127.974 50.7071 127.974C50.5785 127.974 50.4498 127.853 50.3212 127.853C50.4498 127.974 50.5785 127.974 50.5785 128.096C50.4498 127.974 50.3212 127.853 50.1925 127.731C50.3212 127.853 50.3212 127.974 50.4498 127.974C50.3212 127.853 50.3212 127.731 50.1925 127.61C50.1925 127.731 50.3212 127.853 50.3212 127.974C50.3212 127.853 50.1925 127.731 50.1925 127.488C50.1925 127.61 50.1925 127.731 50.1925 127.853C50.1925 127.61 50.1925 127.245 50.1925 127.001C50.1925 127.123 50.1925 127.245 50.1925 127.366C50.1925 127.001 50.3212 126.636 50.4498 126.15C50.7071 125.42 50.1925 124.568 49.4206 124.447C48.7773 124.447 48.0054 124.812 47.7481 125.542Z" fill="#FF6B7F" stroke="#FF6B7F"/>
<path d="M133.946 111.795C133.303 112.039 132.788 112.647 132.531 113.134C132.402 113.377 132.273 113.62 132.273 113.863C132.273 114.107 132.402 114.35 132.531 114.593C132.917 115.08 133.303 115.445 133.817 115.688C134.332 115.931 134.846 116.053 135.49 116.175C136.648 116.175 137.677 115.566 138.32 114.715C138.963 113.863 138.963 112.647 138.32 111.795C137.934 111.309 137.419 110.822 136.776 110.701C136.262 110.579 135.618 110.579 135.104 110.701C134.589 110.944 134.074 111.187 133.688 111.674C133.303 112.039 133.045 112.404 132.788 112.89C132.659 113.255 132.531 113.62 132.659 113.985C132.788 114.35 133.045 114.593 133.303 114.837C133.946 115.202 134.846 114.958 135.232 114.35C135.361 114.107 135.618 113.863 135.747 113.62C135.618 113.742 135.618 113.863 135.49 113.863C135.618 113.742 135.747 113.498 136.004 113.377C135.876 113.498 135.747 113.498 135.747 113.62C135.876 113.498 136.004 113.498 136.133 113.377C136.004 113.377 135.876 113.498 135.747 113.498C135.876 113.498 136.004 113.377 136.133 113.377C136.004 113.377 135.876 113.377 135.747 113.377C135.876 113.377 136.004 113.377 136.004 113.377C135.876 113.377 135.747 113.377 135.618 113.377C135.747 113.377 135.876 113.377 136.004 113.498C135.876 113.498 135.747 113.377 135.618 113.377C135.747 113.377 135.876 113.498 135.876 113.498C135.747 113.377 135.618 113.377 135.618 113.255C135.747 113.377 135.876 113.377 135.876 113.498C135.747 113.377 135.747 113.255 135.618 113.255C135.747 113.377 135.747 113.498 135.876 113.62C135.876 113.498 135.747 113.377 135.747 113.255C135.747 113.377 135.876 113.498 135.876 113.62C135.876 113.498 135.876 113.377 135.876 113.255C135.876 113.377 135.876 113.498 135.876 113.62C135.876 113.498 135.876 113.377 135.876 113.255C135.876 113.377 135.876 113.498 135.747 113.62C135.747 113.498 135.876 113.377 135.876 113.255C135.876 113.377 135.747 113.498 135.618 113.62C135.747 113.498 135.747 113.377 135.876 113.377C135.747 113.498 135.618 113.62 135.49 113.742C135.618 113.62 135.747 113.62 135.747 113.498C135.618 113.62 135.49 113.62 135.361 113.742C135.49 113.742 135.618 113.62 135.747 113.62C135.618 113.742 135.49 113.742 135.232 113.742C135.361 113.742 135.49 113.742 135.618 113.742C135.49 113.742 135.232 113.742 135.104 113.742C135.232 113.742 135.361 113.742 135.49 113.742C135.361 113.742 135.104 113.62 134.975 113.62C135.104 113.62 135.232 113.742 135.361 113.742C135.232 113.62 134.975 113.62 134.846 113.498C134.975 113.62 135.104 113.62 135.104 113.742C134.975 113.62 134.846 113.498 134.718 113.377C134.846 113.498 134.846 113.62 134.975 113.62C134.975 113.62 134.975 113.62 134.846 113.498C134.846 113.985 134.846 114.472 134.846 114.837C134.975 114.715 134.975 114.593 135.104 114.472C134.975 114.593 134.975 114.715 134.846 114.715C134.975 114.593 135.104 114.472 135.232 114.35C135.104 114.472 134.975 114.472 134.975 114.593C135.104 114.472 135.104 114.472 135.232 114.472C135.876 114.107 136.133 113.255 135.747 112.647C135.49 111.674 134.589 111.43 133.946 111.795Z" fill="#FF6B7F" stroke="#FF6B7F"/>
<path d="M78.3447 199.042C84.3396 204.302 93.9835 203.813 99.1965 197.697C101.933 194.394 102.715 190.602 102.194 186.443C101.673 181.673 100.891 177.025 101.151 172.132C101.282 169.808 101.673 167.362 102.194 165.037C102.324 164.304 102.455 162.224 103.627 162.469C104.54 162.713 105.582 164.181 106.104 164.793C108.58 167.851 110.274 171.153 114.053 172.988C115.878 173.844 117.833 174.456 119.527 175.435C121.351 176.413 122.524 177.881 123.567 179.471C125.392 182.407 126.564 185.832 128.78 188.523C131.517 191.826 135.948 193.416 140.248 192.559C144.549 191.703 147.807 188.278 148.719 184.364C149.11 182.652 147.178 181.153 146.787 182.865C144.477 187.422 141.552 190.235 137.381 189.991C133.341 189.868 130.865 187.177 129.171 183.997C127.607 181.061 126.434 178.003 124.219 175.557C121.612 172.621 117.833 172.01 114.575 170.053C111.317 168.218 109.883 164.671 107.407 161.979C106.364 160.879 104.931 159.533 103.237 159.411C101.282 159.166 100.109 160.634 99.5874 162.224C98.2842 166.383 97.8932 171.031 97.8932 175.312C97.8932 179.716 99.0662 183.997 99.1965 188.401C99.1965 192.682 96.981 196.596 92.8106 198.553C88.6403 200.51 79.7741 198.52 76.8201 194.376C75.6471 193.52 76.9111 197.819 78.3447 199.042Z" fill="#FF6B7F" stroke="#FF6B7F"/>
<path d="M125.712 106.078C130.729 100.604 138.063 97.1977 145.782 97.0761C147.583 97.0761 147.712 94.2782 145.782 94.3999C137.291 94.5215 129.186 98.1709 123.654 104.253C122.496 105.47 124.554 107.416 125.712 106.078Z" fill="#FF6B7F" stroke="#FF6B7F"/>
<path d="M54.0521 112.16C54.4381 112.16 54.9527 112.039 55.3386 112.039C55.5959 112.039 55.8532 112.039 56.1105 112.039C56.2392 112.039 56.2392 112.039 56.3678 112.039C56.6252 112.039 56.3678 112.039 56.4965 112.039C56.8825 112.16 57.3971 112.16 57.783 112.282C58.0403 112.282 58.169 112.404 58.4263 112.525C58.555 112.525 58.6836 112.647 58.8123 112.647C59.0696 112.769 58.555 112.525 58.9409 112.647C59.3269 112.769 59.7128 113.012 60.0988 113.255C60.2274 113.377 60.4848 113.498 60.6134 113.62C60.7421 113.742 60.8707 113.742 60.8707 113.863C60.7421 113.742 60.8707 113.863 60.8707 113.863C61.2567 114.107 61.514 114.472 61.8999 114.715C62.0286 114.837 62.1572 115.08 62.2859 115.202C62.1572 115.08 62.2859 115.202 62.2859 115.202C62.4145 115.323 62.4145 115.445 62.5432 115.566C62.9292 116.175 63.8297 116.418 64.473 116.053C65.1163 115.688 65.3736 114.837 64.9876 114.228C62.6719 110.944 58.2976 108.876 54.0521 109.362C53.2802 109.484 52.6369 109.971 52.6369 110.701C52.5083 111.43 53.2802 112.282 54.0521 112.16Z" fill="#FF6B7F" stroke="#FF6B7F"/>
<path d="M154.53 64.8395C155.174 62.7715 155.688 60.4602 154.53 58.5139C153.63 56.8108 151.7 55.716 149.641 56.2026C148.741 56.4459 147.84 56.9325 147.068 57.4191C146.682 57.6623 146.168 58.0273 145.782 58.2706C145.525 58.3922 145.267 58.5139 145.01 58.6355C145.267 59.0005 145.525 59.0005 145.396 58.7572C145.782 58.1489 145.267 56.3242 145.01 55.716C144.624 54.7428 144.109 53.7696 143.337 53.0397C142.437 52.0666 141.022 52.9181 140.893 54.0129C140.893 54.1346 139.864 53.5263 139.607 53.283C139.221 52.9181 138.963 52.5532 138.577 52.1882C137.805 51.215 136.905 50.1202 136.39 49.0254C134.975 46.3491 135.876 44.1595 137.419 41.8482C140.507 36.9823 143.852 32.1164 147.068 27.2505C148.098 25.7908 145.525 24.331 144.624 25.9124C142.18 29.5618 139.864 33.0896 137.419 36.739C135.49 39.6586 132.788 42.8214 132.788 46.4708C132.917 49.7553 135.232 52.7965 137.419 55.1078C138.449 56.0809 139.735 56.9325 141.279 56.6892C142.694 56.4459 143.595 55.351 143.723 54.0129C142.952 54.3779 142.051 54.6212 141.279 54.9861C141.922 55.716 142.437 56.6892 142.566 57.6623C142.694 58.5139 142.308 59.2438 142.694 60.0953C143.337 61.6767 145.01 61.6767 146.296 61.0685C147.583 60.5819 149.127 58.7572 150.671 58.8788C153.244 59.0005 152.215 62.8932 151.829 64.2313C151.314 65.8127 154.016 66.5426 154.53 64.8395Z" fill="#FF6B7F" stroke="#FF6B7F"/>
<path d="M24.2046 54.4995C28.4501 56.8108 31.7951 60.0953 33.9822 64.353C34.1109 63.7447 34.3682 63.1365 34.4968 62.5282C33.5963 63.0148 32.0524 62.285 30.8945 62.5282C29.8653 62.7715 28.9647 63.5014 28.8361 64.5962C28.4501 66.9075 31.0232 68.8539 33.0817 69.5838C33.2103 68.7323 33.339 67.7591 33.4676 66.9075C29.994 67.0292 27.6782 70.6786 29.8653 73.4765C29.994 73.7198 30.5086 73.9631 30.6372 74.2064C30.7659 74.4497 30.6372 74.693 30.6372 75.0579C30.5086 76.0311 30.8945 76.761 31.1519 77.7342C31.6665 79.4372 30.6372 81.0186 28.9648 81.6269C27.2923 82.3568 28.7074 84.6681 30.3799 83.9382C32.953 82.8433 34.6255 80.0455 33.9822 77.3692C33.7249 76.5177 33.4676 75.9095 33.5963 75.0579C33.7249 74.4497 33.7249 73.8414 33.4676 73.2332C33.0817 72.5033 32.1811 72.1384 31.9238 71.4085C31.6665 70.4353 32.4384 69.7054 33.339 69.5838C35.0115 69.4621 35.2688 67.3941 33.7249 66.9075C33.2103 66.6643 32.6957 66.421 32.3097 65.9344C31.7951 65.4478 31.4092 65.0828 32.3097 65.0828C33.5963 65.0828 34.4968 65.4478 35.912 64.8395C36.6839 64.4746 36.8126 63.6231 36.4266 63.0148C34.1109 58.5139 30.2513 54.7428 25.6198 52.1882C24.0759 51.3367 22.5321 53.648 24.2046 54.4995Z" fill="#FF6B7F" stroke="#FF6B7F"/>
<path d="M194.391 31.7231C195.69 47.0166 194.65 62.0387 195.379 77.2451" stroke="#FF6B7F" stroke-width="4" stroke-linecap="round" stroke-linejoin="round"/>
<path d="M194.541 53.5349C199.465 53.2881 203.124 51.7581 207.685 50.5371" stroke="#FF6B7F" stroke-width="4" stroke-linecap="round" stroke-linejoin="round"/>
<path d="M207.429 29.6202C207.87 43.7553 209.512 57.7138 210.644 71.7712" stroke="#FF6B7F" stroke-width="4" stroke-linecap="round" stroke-linejoin="round"/>
<path d="M218.759 57.2856C218.91 61.5725 217.808 70.5032 220.447 73.83" stroke="#FF6B7F" stroke-width="4" stroke-linecap="round" stroke-linejoin="round"/>
<path d="M218.233 46.3265C220.788 50.2565 221.998 46.7685 218.233 46.3265" stroke="#FF6B7F" stroke-width="4" stroke-linecap="round" stroke-linejoin="round"/>
<path d="M235.838 21.1494C236.566 33.3626 237.669 45.3574 236.989 57.6093" stroke="#FF6B7F" stroke-width="4" stroke-linecap="round" stroke-linejoin="round"/>
<path d="M239.422 67.8843C238.644 69.3065 237.867 70.7287 237.089 72.1509" stroke="#FF6B7F" stroke-width="4" stroke-linecap="round" stroke-linejoin="round"/>
<path d="M280.194 24.5396C278.833 35.9984 277.521 47.4337 276.817 58.9546C276.619 62.2045 275.646 66.1742 277.685 68.743" stroke="#FF6B7F" stroke-width="4" stroke-linecap="round" stroke-linejoin="round"/>
<path d="M288.083 42.7199C287.551 47.1983 287.019 51.6766 286.487 56.155" stroke="#FF6B7F" stroke-width="4" stroke-linecap="round" stroke-linejoin="round"/>
<path d="M298.255 49.3627C297.148 54.0339 296.416 58.6613 295.676 63.388C295.659 63.4946 295.951 58.3724 296.456 56.8201C297.172 54.6176 298.862 50.1953 301.493 49.4401C302.599 49.1228 301.817 57.8278 301.725 58.5989C301.112 63.7652 307.896 53.0958 309.789 52.2301C317.593 48.6621 314.188 61.9232 312.875 64.7006" stroke="#FF6B7F" stroke-width="4" stroke-linecap="round" stroke-linejoin="round"/>
<path d="M193.457 89.7016C189.283 88.7038 183.039 91.5745 188.408 95.4658C194.816 100.11 202.186 104.144 205.224 111.97C207.29 117.293 207.466 124.026 200.44 124.475C196.393 124.733 186.888 124.67 184.222 121.31" stroke="#FF6B7F" stroke-width="4" stroke-linecap="round" stroke-linejoin="round"/>
<path d="M215.822 85.9701C215.275 91.2886 215.123 96.287 215.892 101.618C216.491 105.764 216.888 117.164 221.423 119.572C224.92 121.429 228.619 115.51 229.961 113.057" stroke="#FF6B7F" stroke-width="4" stroke-linecap="round" stroke-linejoin="round"/>
<path d="M210.886 104.461C215.3 103.552 219.709 102.733 224.03 101.463" stroke="#FF6B7F" stroke-width="4" stroke-linecap="round" stroke-linejoin="round"/>
<path d="M238.813 107.739C240.59 106.038 248.082 100.71 243.646 97.8127C240.905 96.0233 236.51 99.6391 235.435 101.995C233.596 106.029 235.908 114.307 239.731 116.676C245.707 120.379 253.259 112.797 256.937 108.959" stroke="#FF6B7F" stroke-width="4" stroke-linecap="round" stroke-linejoin="round"/>
<path d="M261.498 101.321C262.342 103.272 266.665 118.801 269.028 118.248C270.324 117.945 271.154 114.253 271.594 113.303C273.864 108.405 276.658 103.646 279.146 98.8518" stroke="#FF6B7F" stroke-width="4" stroke-linecap="round" stroke-linejoin="round"/>
<path d="M287.091 108.866C290.654 106.676 295.703 103.025 294.368 98.0151C293.177 93.5441 285.554 101.424 284.83 102.697C282.65 106.531 283.616 113.304 287.265 115.949C292.476 119.726 298.735 114.122 302.406 110.663" stroke="#FF6B7F" stroke-width="4" stroke-linecap="round" stroke-linejoin="round"/>
<path d="M305.009 96.4388C305.045 100.648 304.955 104.893 305.333 109.09C305.436 110.228 305.213 113.434 305.844 112.479C306.424 111.601 306.309 109.477 306.729 108.446C308.066 105.166 310.407 101.938 312.692 99.2578C320.822 89.7197 323.592 110.293 320.424 112.778" stroke="#FF6B7F" stroke-width="4" stroke-linecap="round" stroke-linejoin="round"/>
<path d="M97.4983 196.79C99.6218 203.456 105.717 208.188 112.46 209.761C114.981 210.349 118.294 211.376 120.871 210.848C123.649 210.28 125.665 209.67 128.023 208.048C131.621 205.571 132.076 199.554 132.208 195.62C132.286 193.285 131.716 192.384 131.223 189.937" stroke="#FF6B7F" stroke-width="4" stroke-linecap="round" stroke-linejoin="round"/>
<path d="M102.422 162.526C106.308 171.485 109.5 180.688 112.843 189.855C112.983 190.24 114 193.599 114.238 193.363" stroke="#FF6B7F" stroke-width="4" stroke-linecap="round" stroke-linejoin="round"/>
<path d="M93.9209 215.231C92.3828 217.431 87.5808 226.097 92.449 227.197C95.1539 227.807 96.4965 224.683 97.2507 222.509C97.7375 221.105 96.3017 219.38 95.8415 218.119C95.3049 216.648 95.0826 215.117 94.2481 213.799" stroke="#FF6B7F" stroke-width="4" stroke-linecap="round" stroke-linejoin="round"/>
</svg>
