<svg fill="none" height="141" viewBox="0 0 234 141" width="234" xmlns="http://www.w3.org/2000/svg"><g fill="#41b1f1"><path d="m14.8763 119.185c2.2933-5.12 4.5866-10.294 6.8799-15.415 1.1466-2.507 2.2933-5.0673 3.3826-7.5743 1.032-2.4003 2.0067-4.8539 2.58-7.4142 2.1786-10.188-2.064-20.2692-1.0893-30.5105.2293-2.3469.7453-4.7472 1.7199-6.9341.4587-1.1202 1.0894-2.1336 1.8347-3.1471.516-.7467 1.4333-2.1336 2.5226-2.0802-.4586-.4268-.86-.8001-1.2613-1.1735-.4587 13.495-4.5293 26.8299-11.6959 38.5647-2.0066 3.3071-4.2999 6.4541-6.7652 9.4412.8026.2133 1.6053.4267 2.408.5867-.172-2.0269-.344-4.0538-.5734-6.0807-.1146-1.5469-.2866-3.1471-1.032-4.5873-.7453-1.4935-2.1786-2.4003-3.95592-2.667-1.54799-.2133-3.26797.0534-4.64395-.8001-2.29331-1.4935-2.52264-4.7472-2.52264-7.0942 0-3.5204.68799-6.9875 1.77731-10.3479 2.23598-6.8808 6.2493-13.1216 10.3772-19.149 1.6627-2.4537 3.784-5.8674 7.3386-5.9207.7453 0 1.4333.1066 2.0067.48.7453.4267 1.3186 1.0668 2.1213 1.3869 1.8919.7467 3.7266-.1601 5.2172-1.2269 2.9813-2.1336 6.02-4.0538 9.4026-5.494 3.3253-1.4401 6.8799-2.5069 10.4919-3.147 3.7266-.6401 7.4532-.7468 11.1799-.7468 3.7839 0 7.7399-.0533 11.3518-1.2801 1.8347-.6401 3.3827-1.6002 5.16-2.4003 1.6626-.7468 3.5546-.8535 5.3893-.5334 1.8919.32 3.7839.9067 5.5612 1.4935 1.7774.5867 3.44 1.2801 5.1027 2.0802 2.9813 1.4936 5.5039 3.5738 7.3959 6.2408 1.72 2.4536 2.752 5.2273 3.383 8.1077.573 2.9337.63 5.974.286 8.9611-.401 3.4137-1.548 6.6675-2.465 9.9745-1.032 3.5738-1.777 7.3076-.975 11.0414.631 3.0404 2.294 5.9207 4.53 8.161 1.146 1.1201 2.465 2.0802 3.898 2.8803 1.434.8001 2.752-1.2801 1.319-2.0802-2.809-1.5469-5.045-3.9472-6.307-6.7208-1.49-3.2538-1.318-6.8275-.516-10.2413.803-3.5204 2.179-6.9875 2.81-10.5613.573-3.0937.745-6.2941.401-9.3878-.688-6.1341-3.325-12.1615-8.6-16.1087-3.096-2.2936-6.6506-3.7871-10.3772-4.9606-3.8986-1.2268-8.0266-2.1869-11.9252-.48-1.72.7467-3.268 1.8135-5.1026 2.3469-1.7774.5334-3.612.8001-5.4466.9068-3.8987.2667-7.8546 0-11.7533.32-7.6252.6935-15.0211 3.0404-21.3851 6.8809-1.5479.9601-2.9813 2.0269-4.4719 3.0404-.5733.4267-1.4907 1.0668-2.236.9067-.7453-.1066-1.3186-.8534-1.9493-1.2268-3.2106-2.0269-7.3386-.4267-9.7466 1.9203-1.3186 1.3335-2.3506 2.8803-3.3826 4.3738-1.032 1.5469-2.064 3.0404-3.09595 4.6406-2.00665 3.2004-3.89863 6.4541-5.44661 9.8679-1.49065 3.2537-2.69464 6.7208-3.382629 10.2412-.5733276 3.3071-.974657 6.8809-.057333 10.1346.401329 1.3868 1.031992 2.7203 2.006642 3.7871 1.08932 1.1735 2.57997 1.8136 4.24262 1.9736 1.43332.16 3.32526-.16 4.29996 1.0668.86 1.1202.9173 2.667 1.032 4.0005.172 2.0269.344 4.0538.5733 6.0807.1147 1.2269 1.6053 1.5469 2.408.5868 9.0586-10.9347 15.1358-24.003 17.6011-37.658.688-3.8404 1.0894-7.7342 1.2613-11.6281 0-.6934-.6306-1.1734-1.2613-1.1734-2.5799-.1067-4.3573 2.5603-5.5039 4.3738-1.204 1.9736-2.0067 4.1072-2.5227 6.2941-1.0319 4.6406-.8599 9.3345-.2293 14.0284.688 5.5474 1.7773 11.0947 1.3187 16.6954-.4587 5.494-3.096 10.508-5.332 15.522-2.6373 5.974-5.3319 11.895-7.9692 17.869-.2867.587.2866 1.333.9173 1.493.6307.214 1.204-.213 1.4907-.8z"/><path d="m38.2682 62.7518c.516-1.1735 1.032-2.2936 1.8347-3.3071.6306-.8001 1.6053-1.5468 2.6946-1.8135.516-.1067 1.032-.1601 1.548 0 .1147.0533.4013.1066.4013.1066-.0573 0 .2293.1601.2293.1067-.0573 0 .172.16.172.16-.0573-.1066.0574.1601.0574.2134.1146.3734.1146 1.0135.0573 1.4935 0 .1067 0 .2667-.0573.3734 0-.16 0 .1067-.0574.16 0 .1067-.0573.2134-.1146.3201.0573-.1601-.0574.1066-.1147.16-.1146.16.1147-.1067 0 0 0 0-.172.16-.1147.1067.1147-.0534-.2866.1066-.1719.1066-.344.1601-.5734.1067-.9174.1601-.86.0533-1.72.0533-2.5226-.0534-.688-.1067-1.376.16-1.6053.8534-.172.5868.2293 1.3869.9173 1.4936 1.032.16 2.064.2133 3.096.16 1.032-.0534 2.0639-.2134 2.8666-.8535 1.2613-1.0134 1.3186-2.6669 1.204-4.1071-.0573-.9601-.344-1.8669-1.1467-2.4537-.8026-.5867-1.7199-.8534-2.7519-.9067-1.892-.1067-3.7267.7467-5.0453 1.9202-1.4907 1.3868-2.3507 3.2537-3.096 5.0139-.2293.5868.2867 1.3335.9173 1.4936.86.16 1.4907-.2667 1.72-.9068z"/><path d="m81.5545 54.004c-.516.3734-1.0893.6401-1.6627.6934-.6306.0534-1.204-.0533-1.6053-.2133-.172-.0534-.2866-.16-.4013-.2134-.0573-.0533-.172-.1067-.2294-.16 0 0 .1147.0533 0 0-.1146-.1067-.2293-.2134-.3439-.32-.172-.1601-.172-.1601-.2294-.2667-.0573-.1067-.172-.2667-.2293-.3734s0 0 0 0c-.0573-.0534-.0573-.16-.0573-.2134-.0574-.1067-.0574-.2133-.1147-.3734-.0573-.2667 0-.1066 0-.0533 0-.0533 0-.16 0-.2134 0-.0533 0-.3733 0-.32 0 .16 0-.1067.0573-.1067 0-.0533.0574-.1067.0574-.16s.1146-.2134 0-.0533c0-.0534.0573-.1067.1146-.1601.0574-.0533.0574-.1066.1147-.16-.1147.16.0573-.0533.0573-.0533.172-.1067-.1146.0533.0574-.0534.0573-.0533.1146-.0533.172-.1066.1146-.1067.0573-.0534.2866-.1067.344-.1067.4587-.1067.86-.1067 1.376.0534 2.6947.6934 3.8986 1.3868.344.2134.7454.4268 1.0894.6401.0573.0534.1146.0534.172.1067.344.2134-.0574-.0533.1146.1067.0574.0533.1147.1067.172.16-.0573-.1067-.0573-.0533-.0573 0 0 .1067 0 .0533 0 0v.3734.6934c0 .4267-.0573.8534-.1147 1.2802-.1146.64.172 1.2801.9173 1.4935.6307.16 1.4907-.2134 1.6054-.8535.172-1.0668.2866-2.1869.1146-3.307-.172-1.1735-.9746-1.7602-2.0066-2.347-1.7773-1.0668-3.6693-2.0269-5.7906-2.1336-2.0067-.1067-4.0133.9068-4.4146 2.8804-.344 1.8669.5733 3.6271 2.1786 4.7472 1.892 1.2802 4.6439 1.2802 6.5359-.0533.5734-.3734.86-1.0135.4587-1.6536-.344-.5334-1.204-.8534-1.7773-.4267z"/><path d="m81.7838 33.8415c-.0574 0-.0574 0-.1147 0 .2866.1067.6306.2134.9173.3734l-.0573-.0534c.1146.1601.2293.3734.344.5334 0 .1601-.0574.3201-.0574.4801-.172.16-.2866.2667-.4586.4267.0573 0 .0573-.0533.1146-.0533-.2293.0533-.4586.1067-.6306.16l-.0573-.0533c.1146.1066.2293.16.3439.2667.1147.1066.2294.16.2867.2667.2293.2133.516.4267.7453.6934.516.48 1.032.9601 1.4907 1.4935.9173.9601 1.72 2.0269 2.4653 3.0937 1.4906 2.1869 2.6373 4.4805 3.4973 6.9342 1.72 4.9606 2.1786 10.3479 1.204 15.5219-.5734 2.987-1.72 5.814-2.58 8.7477-.4587 1.6002-.86 3.2004-1.032 4.854-.172 1.7602.0573 3.467.4013 5.2273.6307 3.4137 1.6054 6.7208 1.9493 10.1345.172 1.7069.2294 3.4138.2294 5.1207 0 1.1734 0 2.7206-1.0893 3.5736-.9747.747-2.3507.64-3.4973.267-1.3187-.374-2.3507-1.28-3.1533-2.2938-2.0067-2.4003-2.6947-5.6007-3.3827-8.5344-.344-1.4935-2.8093-.8534-2.4653.6401.688 3.0404 1.4907 6.1874 3.3827 8.7481 1.7773 2.4 4.6439 4.374 7.9119 4 1.6626-.16 3.1533-.96 4.0133-2.347.9173-1.547.9173-3.4135.86-5.1204-.0574-3.9472-.6307-7.841-1.548-11.6815-.4587-1.8135-.9173-3.6804-1.032-5.5473s.172-3.6805.6306-5.494c.9174-3.3604 2.2934-6.5608 2.924-9.9746 1.032-5.974.516-12.2148-1.7773-17.8688-1.2613-3.2004-3.0386-6.1875-5.3319-8.8545-1.0894-1.2801-2.3507-2.5603-3.6693-3.5737-.86-.6934-2.3507-1.0668-3.0387.1067-.5733 1.0134.1147 2.1336 1.3187 2.2402.688.0534 1.2613-.5867 1.2613-1.1734 0-.8001-.5733-1.2269-1.3186-1.2802z"/><path d="m76.3372 90.7018c-3.6692 6.4008-7.9692 13.0682-14.7345 16.9092-.8599.48-1.7199.96-2.6373 1.28-1.0319.373-1.8919.48-2.8666 0-2.1213-1.014-4.2426-2.027-6.2493-3.254-3.3253-1.974-6.0772-4.694-8.4279-7.6276-2.7519-3.4671-4.9879-7.2542-7.2239-10.988-.8027-1.3335-3.0386-.16-2.236 1.2268 4.128 6.9875 8.5426 14.2948 15.7092 18.9888 2.0066 1.334 4.2999 2.294 6.4213 3.414 1.0893.587 2.1786 1.12 3.4399 1.067 1.204-.054 2.3507-.534 3.3826-1.014 3.784-1.76 7.052-4.427 9.7466-7.414 3.096-3.467 5.5613-7.3608 7.8546-11.3613.8026-1.3335-1.4333-2.5604-2.1787-1.2269z"/><path d="m78.8599 90.1152c-.8027-.7468-1.8347-1.2802-2.6947-1.9203-.5733-.3733-1.204-.8001-1.7773-1.1734-.2866-.1601-.5733-.3734-.8026-.5334-.1147-.0534-.2294-.1601-.2867-.2134s-.4013-.2667-.172-.1067c-1.204-.8534-2.5226-2.1869-2.924-3.5737-.4586-1.5469.9174-2.8271 2.408-3.2538 1.6627-.4267 4.128.2134 4.472 1.9736.4013-.4801.8026-1.0135 1.2613-1.4935-.5734.0533.344.16.2293.2133-.0573.0534 0-.1066 0-.16.1147-.16.1147-.32.2293-.48.2867-.4268.7454-.7468 1.2614-.8535.9746-.32 2.5226-.0533 3.0386.9068.688 1.1735-.8027 2.8804-1.4333 3.8405-.9747 1.4401-2.064 2.7736-3.2107 4.0538-.4586.4801-.516 1.2268 0 1.7069.4587.4267 1.376.48 1.8347 0 1.7773-1.9203 3.4973-4.0005 4.7586-6.2941.5733-1.0668 1.032-2.2936.7453-3.5205-.2293-1.0668-1.032-1.9202-2.0066-2.5069-2.0067-1.1202-4.7586-.9068-6.4786.6934-.7453.6934-1.2613 1.6535-1.2613 2.667 0 1.1201 1.032 2.2936 2.3506 2.1336.86-.1067 1.4333-.6934 1.2613-1.4935-.516-2.2937-3.0386-3.6805-5.3892-3.8938-2.408-.2134-5.0453 1.0134-6.192 3.0403-1.2613 2.347 0 4.6939 1.6627 6.5075 1.0893 1.1735 2.2933 2.0269 3.6693 2.9337.8026.5334 1.5479 1.0134 2.3506 1.5468.344.2134.6307.4268.9747.6401.2293.16 0 0 0 0 .0573.0534.1146.1067.2293.16.0573.0534.172.1067.2293.2134.9747 1.0134 2.8093-.6934 1.6627-1.7602z"/><path d="m88.6637 103.717c1.0893 1.387 1.4907 3.093 1.6627 4.747.2293 1.92.2866 3.894.172 5.814-.2294 3.894-1.0894 7.734-2.58 11.361-.2293.587.2867 1.334.9173 1.494.7453.16 1.3187-.213 1.6053-.853 1.6054-3.948 2.4653-8.055 2.6947-12.269.1146-2.027 0-4.107-.2294-6.08-.2293-1.921-.6879-3.841-1.9493-5.441-.4013-.533-1.1466-.8-1.7773-.427-.6306.32-.9173 1.12-.516 1.654z"/><path d="m39.3004 57.2577c-.9174 2.507.7453 5.3873 3.4399 6.1341.6307.2134 1.4333-.2134 1.6053-.8534.172-.6401-.2293-1.2802-.9173-1.4935-.0573 0-.1146-.0534-.172-.0534-.2293-.0533.2867.1067.0574.0534-.1147-.0534-.172-.1067-.2867-.1601-.1147-.0533-.2293-.1066-.344-.2133-.172-.1067.172.16.0573.0533-.0573-.0533-.0573-.0533-.1146-.1067-.1147-.1066-.172-.16-.2867-.2667-.0573-.0533-.0573-.0533-.1147-.1066-.1146-.1601 0 0 .0574.0533-.1147-.2134-.2867-.3734-.4014-.5867 0-.0534-.0573-.1067-.0573-.1601-.1147-.2133.1147.2667.0573.0534-.0573-.1067-.0573-.2134-.1146-.3201-.0574-.1066-.0574-.2133-.0574-.32 0-.0533-.0573-.1067-.0573-.16 0 .0533.0573.32 0 .1067 0-.2134 0-.4268 0-.6401 0-.16-.0573.32 0 .1067 0-.0534 0-.1067.0573-.1601.0574-.1066.0574-.2133.1147-.3733.2293-.5868-.2293-1.3335-.9173-1.4936-.7453-.0533-1.376.2667-1.6053.9068z"/><path d="m79.8918 51.2837c.1147.3734.2293.7468.2867 1.1202 0 .1066 0 .1066 0-.1067v.16.2667.5334c0 .1067-.1147.32 0 0 0 .1067-.0574.16-.0574.2667-.0573.16-.1146.32-.172.4801-.0573.1066-.0573.16-.1146.2133-.0574.1067-.0574.1067.0573-.1067 0 .0534-.0573.1067-.0573.1601-.1147.2133-.2294.3733-.344.5867-.344.5334-.172 1.3335.4586 1.6535.6307.3201 1.4333.16 1.7773-.4267.516-.8534.86-1.7602.9747-2.7737.1147-.9067-.1147-1.8135-.4013-2.667-.172-.5867-.9174-1.0668-1.6054-.8534-.5159.2134-.9746.8534-.8026 1.4935z"/><path d="m81.2679 33.3081c-1.548-.1066-2.3507 1.3869-2.236 2.6137s.7453 2.4003 1.4907 3.4137c1.2613 1.8136 2.8093 3.4138 4.3572 5.014 2.924 3.0937 6.1347 6.3474 6.9373 10.5079.1147.6401.9747 1.0135 1.6053.8535.7453-.16 1.032-.8534.9173-1.4935-.7453-3.8405-3.3826-6.9876-6.0199-9.9212-1.3186-1.3869-2.6946-2.7737-3.9559-4.2139-.6307-.6934-1.204-1.4402-1.72-2.1869-.2867-.4268-.5734-.8535-.7454-1.2802-.1146-.2667-.2293-.5867-.2866-.8534-.0573-.5334.1146-.0534-.344-.1067.688.0533 1.2613-.5867 1.2613-1.1735.0573-.6934-.516-1.1201-1.2613-1.1735z"/><path d="m65.1573 66.9656c-2.1786-3.3071-4.4146-6.6675-5.9052-10.2413-1.3187-3.2003-2.5227-7.1475-1.548-10.6146.4013-1.4402 1.3186-2.7737 2.9239-3.2004 1.72-.48 2.752.4801 3.5547 1.8136.9173 1.6002 1.204 3.4137 1.4906 5.1206.2867 1.9202.4587 3.8405.9173 5.7074 1.032 4.2672 2.924 8.3743 5.6187 11.9481.4013.5334 1.1466.8001 1.7773.4267.5733-.32.86-1.1201.4586-1.6535-2.5799-3.4671-4.4146-7.3076-5.3892-11.4147-.9747-4.0005-.6307-8.5344-3.096-12.1082-1.1467-1.6535-2.924-2.667-5.1026-2.4003-1.9493.2134-3.6693 1.3335-4.7013 2.9337-2.236 3.5204-1.3187 8.3744-.1147 12.0015 1.548 4.5872 4.2426 8.7477 6.88 12.8015.8599 1.3869 3.0959.2134 2.2359-1.1201z"/><path d="m30.1271 110.544c15.0785 5.974 32.1636 9.388 48.2168 4.641 4.2999-1.28 8.4852-3.094 12.2692-5.334 1.376-.854.1146-2.88-1.3187-2.08-6.5359 3.893-14.0465 6.347-21.7864 7.041-7.8546.693-15.8238-.267-23.3918-2.187-4.3572-1.121-8.5999-2.507-12.7278-4.108-.6307-.266-1.376-.16-1.7773.427-.2867.48-.1147 1.387.516 1.6z"/><path d="m82.0705 124.093c2.7519-.747 5.4466-1.601 8.0839-2.614.6306-.213 1.1466-.8.9173-1.494-.172-.533-.9173-1.066-1.6053-.853-2.6373 1.013-5.332 1.867-8.0839 2.614-.6307.16-1.0893.853-.9173 1.493.2293.64.9173 1.067 1.6053.854z"/><path d="m29.8405 122.332c6.9946 2.454 14.3332 3.948 21.7864 4.534.688.054 1.2613-.586 1.2613-1.173 0-.694-.5733-1.12-1.2613-1.174-7.2239-.586-14.3332-2.08-21.0984-4.427-.6307-.213-1.4333.267-1.6053.854-.172.586.2866 1.173.9173 1.386z"/><path d="m69.916 121.426c-4.0133 1.813-7.9693 3.627-11.9826 5.44.6307.214 1.2613.48 1.892.694-1.204-3.521-6.1346-5.174-9.2306-2.667-1.376 1.12-2.1213 2.88-1.9493 4.587.2294 1.813 1.4333 3.254 3.2107 3.947 1.8919.747 4.0706.427 5.6186-.8 1.0319-.8-.0574-2.294-1.2614-2.027-2.2359.587-3.2679 2.827-2.8093 4.801.4587 2.08 2.58 3.84 4.5867 4.747 2.4653 1.12 4.8732-.373 5.7906-2.56.8599-1.974.4586-4.108-.9747-5.761-.172.693-.4013 1.333-.5733 2.027 3.5546-1.067 6.9946-2.614 10.0905-4.534-.4586 0-.86 0-1.3186 0 3.1533 2.133 8.1986 2.347 10.7212-.747 2.236-2.72.9173-7.254-3.096-7.467-1.8919-.107-3.6693.906-4.2426 2.56-.4013 1.013.9747 1.813 1.892 1.333 3.096-1.546 3.784-5.92 1.032-8.054-2.8667-2.187-7.2813-1.173-8.4853 2.134-.6306 1.76-.1146 3.733 1.204 5.067 1.1467 1.12 2.9813-.587 1.8347-1.707-.8027-.747-.9174-1.974-.516-2.934.4586-1.013 1.6053-1.493 2.7519-1.333 1.1467.16 2.1214.907 2.2934 1.973.172 1.121-.4014 2.241-1.4907 2.774.6307.427 1.2613.907 1.892 1.334.2866-.747 1.4333-.961 2.236-.747 1.0893.373 1.3759 1.707 1.032 2.667-.4014 1.28-1.72 2.027-3.096 2.187-1.6627.266-3.3253-.32-4.7013-1.227-.344-.213-.9747-.213-1.3187 0-2.9239 1.867-6.0772 3.307-9.4599 4.32-.9746.321-1.2039 1.281-.5733 2.027.7453.854.8027 2.081.4587 3.094-.172.48-.516.96-.9747 1.28-.5733.427-1.032.32-1.6053 0-1.1466-.64-2.4653-1.547-2.8666-2.773-.2867-.8 0-1.974.9173-2.187-.4013-.694-.86-1.334-1.2613-2.027-.9173.693-2.2933.586-3.268.053-1.1466-.64-1.4333-1.867-1.032-3.04.4587-1.174 1.548-1.974 2.8667-1.867 1.3186.053 2.6373.96 3.0386 2.133.2867.801 1.1466 1.067 1.892.694 4.0133-1.814 7.9692-3.627 11.9825-5.441 1.6627-.587.344-2.667-1.1466-1.973z"/><path d="m69.8588 101.317c.5733 1.386 1.4333 2.613 2.6946 3.573 1.2613 1.014 2.9813 1.867 4.7013 1.707 3.7839-.32 5.0453-4.8 5.1599-7.6808.0574-.6401-.6306-1.1735-1.2613-1.1735-.7453 0-1.2613.5334-1.2613 1.1735-.0573 1.1738-.344 2.5068-.86 3.5208-.2293.48-.516.906-.86 1.226-.344.321-.5733.481-1.032.534-.9746.107-2.1786-.64-2.8093-1.12-.86-.694-1.4906-1.547-1.892-2.454-.2866-.587-.86-1.0134-1.6053-.8533-.688.2133-1.2613.9603-.9746 1.5473z"/><path d="m75.0186 96.7826c.2294.6401.4014 1.2802.516 1.9202 0-.1066-.0573-.2133-.0573-.32.0573.4801.1147.9601.0573 1.4402 0 .64.6307 1.227 1.2613 1.173.688-.053 1.2614-.533 1.2614-1.173.0573-1.2268-.172-2.507-.6307-3.6805-.1147-.32-.2867-.5334-.5733-.6934-.2867-.16-.688-.2134-.9747-.1067-.5733.16-1.0893.8001-.86 1.4402z"/></g><path d="m171.418 35.2089c3.253-.718 6.881-1.0812 9.821-2.729" stroke="#41b1f1" stroke-linecap="round" stroke-linejoin="round" stroke-width="2.5"/><path d="m182.415 23.8006c-2.431-3.797-5.58-8.6347-6.506-1.8022-.52 3.8334-1.045 7.6012.185 11.3603.648 1.9792 2.403 4.4108 2.161 6.1916" stroke="#41b1f1" stroke-linecap="round" stroke-linejoin="round" stroke-width="2.5"/><path d="m188.473 8.99219c-.697 5.64401-.972 11.20311-.937 16.87331" stroke="#41b1f1" stroke-linecap="round" stroke-linejoin="round" stroke-width="2.5"/><path d="m187.052 39.4007c4.876 1.076 7.946-3.9965 1.596-1.8205" stroke="#41b1f1" stroke-linecap="round" stroke-linejoin="round" stroke-width="2.5"/><path d="m121.829 24.7825c1.232 6.5525 2.983 12.8952 5.199 19.186.599 1.7004 2.476 6.2814 2.931 4.5364.891-3.4145 1.041-7.1785 1.529-10.6709.062-.4448.891-6.6568 1.454-5.5778 1.672 3.2022 2.272 10.5697 6.026 12.196 1.421.6156 8.497-18.1352 9.25-20.0098" stroke="#41b1f1" stroke-linecap="round" stroke-linejoin="round" stroke-width="2.5"/><path d="m127.189 58.921c-.674 6.2563-.352 12.5488.379 18.7911.505 4.3128 1.949 8.7062 2.105 13.0342.043 1.1971.953-3.0949-.129-3.5915" stroke="#41b1f1" stroke-linecap="round" stroke-linejoin="round" stroke-width="2.5"/><path d="m134.164 66.7576c.753 4.4536 1.034 8.3389.46 12.7945" stroke="#41b1f1" stroke-linecap="round" stroke-linejoin="round" stroke-width="2.5"/><path d="m140.993 70.5539c.134 3.7161.268 7.4323.401 11.1484.085 2.3391.202 5.597.042 1.1597-.131-3.6429-.279-7.154 1.294-10.536 1.195-2.5692 2.92-3.3425 3.535.0582.474 2.6256.239 5.3501.436 8.0005.027.3628.253-.6817.372-1.025.661-1.9002 1.917-3.5222 3.126-5.0964.416-.5411 4.065-5.9137 5.099-4.0071 1.708 3.1503.734 9.0333.861 12.5551" stroke="#41b1f1" stroke-linecap="round" stroke-linejoin="round" stroke-width="2.5"/><path d="m170.219 82.9721c-.627-4.6817.388-8.3583 1.545-12.8677.182-.7093 2.619-9.4134 3.409-7.5791 1.37 3.1834 1.142 6.9813 1.414 10.3623.241 3.0082.856 5.7583 2.174 1.5314 1.356-4.3484 2.938-8.8051 5.041-12.8456 1.398-2.6874 3.838-7.031 4.289-1.6925.626 7.3963 2.369 15.0024 1.512 22.3833" stroke="#41b1f1" stroke-linecap="round" stroke-linejoin="round" stroke-width="2.5"/><path d="m202.559 70.3283c-3.316-4.064-6.665-1.3-6.501 3.2717.156 4.3198 4.649 4.9184 6.287 1.1189.469-1.0875 1.251-6.3064 1.5-5.861 1.878 3.3677 3.214 7.2566 5.069 10.6782" stroke="#41b1f1" stroke-linecap="round" stroke-linejoin="round" stroke-width="2.5"/><path d="m213.656 62.5059c2.403 2.8587 5.839 8.6113 9.721 9.7592" stroke="#41b1f1" stroke-linecap="round" stroke-linejoin="round" stroke-width="2.5"/><path d="m223.062 63.511c-4.096 5.9781-7.136 12.8635-11.377 18.6211" stroke="#41b1f1" stroke-linecap="round" stroke-linejoin="round" stroke-width="2.5"/><path d="m152.328 31.9684c-1.018 2.1625-5.787 10.1131-1.346 11.7119 2.891 1.0405 5.209-3.1544 5.658-5.3973.789-3.9451-2.124-9.3282-5.963-5.489" stroke="#41b1f1" stroke-linecap="round" stroke-linejoin="round" stroke-width="2.5"/><path d="m164.162 30.5923c-2.318-.1784-3.658 1.435-4.006 3.7001-.431 2.8181.766 8.5615 4.633 5.2138 1.339-1.1588 5.005-6.8649 2.37-8.3788-2.861-1.6434-5.59 1.4342-6.85 3.5931" stroke="#41b1f1" stroke-linecap="round" stroke-linejoin="round" stroke-width="2.5"/></svg>