<svg width="200" height="61" viewBox="0 0 200 61" fill="none" xmlns="http://www.w3.org/2000/svg">
<path d="M146.61 55.2901C146.56 55.2367 146.533 55.1664 146.533 55.0934V47.5601C146.53 47.4843 146.556 47.4101 146.607 47.3534C146.63 47.3254 146.66 47.3032 146.693 47.2887C146.727 47.2743 146.763 47.2679 146.8 47.2701H149.76C150.513 47.2319 151.255 47.4688 151.847 47.9368C152.335 48.4529 152.607 49.1364 152.607 49.8468C152.607 50.5572 152.335 51.2406 151.847 51.7568C151.248 52.2135 150.505 52.4405 149.753 52.3968H148.107V55.1068C148.108 55.1793 148.082 55.2497 148.033 55.3034C148.009 55.3303 147.979 55.3514 147.946 55.3653C147.912 55.3791 147.876 55.3853 147.84 55.3834H146.8C146.763 55.3825 146.728 55.3737 146.695 55.3576C146.662 55.3415 146.633 55.3184 146.61 55.2901ZM149.703 51.1001C150.059 51.1238 150.411 51.0105 150.687 50.7834C150.806 50.6586 150.897 50.51 150.954 50.3474C151.012 50.1848 151.034 50.012 151.02 49.8401C151.03 49.6686 151.006 49.4968 150.948 49.3348C150.891 49.1728 150.802 49.0239 150.687 48.8968C150.551 48.7762 150.393 48.6844 150.221 48.6271C150.049 48.5698 149.867 48.5481 149.687 48.5634H148.073V51.1101L149.703 51.1001Z" fill="#323341"/>
<path d="M154.283 54.7398C153.769 54.1633 153.495 53.412 153.517 52.6398V52.3498V52.0598C153.507 51.2968 153.784 50.558 154.293 49.9898C154.546 49.7362 154.85 49.5382 155.184 49.4085C155.518 49.2788 155.875 49.2202 156.233 49.2364C156.61 49.2151 156.988 49.2789 157.337 49.4232C157.686 49.5674 157.998 49.7884 158.25 50.0698C158.748 50.7002 159.001 51.4904 158.96 52.2931V52.5364C158.961 52.5727 158.955 52.6088 158.942 52.6426C158.928 52.6764 158.909 52.7072 158.883 52.7331C158.858 52.7595 158.827 52.7803 158.793 52.7941C158.76 52.8079 158.723 52.8144 158.687 52.8131L155.02 52.9064C155.021 53.2885 155.137 53.6612 155.353 53.9764C155.449 54.1162 155.579 54.2293 155.731 54.3051C155.882 54.3809 156.051 54.4169 156.22 54.4098C156.425 54.4149 156.629 54.3688 156.812 54.2757C156.996 54.1826 157.153 54.0454 157.27 53.8764C157.313 53.8139 157.367 53.7597 157.43 53.7164C157.487 53.6894 157.55 53.6768 157.613 53.6798H158.563C158.627 53.6799 158.688 53.7023 158.737 53.7431C158.759 53.7627 158.777 53.7868 158.789 53.8138C158.801 53.8409 158.807 53.8702 158.807 53.8998C158.783 54.1517 158.672 54.3875 158.493 54.5664C158.245 54.8522 157.936 55.0798 157.59 55.2331C157.164 55.4271 156.701 55.5228 156.233 55.5131C155.872 55.5269 155.512 55.4653 155.177 55.3321C154.841 55.199 154.537 54.9972 154.283 54.7398ZM157.46 51.8398V51.8064C157.477 51.4126 157.359 51.0246 157.127 50.7064C157.016 50.5759 156.879 50.471 156.723 50.399C156.568 50.327 156.399 50.2897 156.228 50.2897C156.057 50.2897 155.888 50.327 155.733 50.399C155.578 50.471 155.44 50.5759 155.33 50.7064C155.098 51.0252 154.981 51.4127 154.997 51.8064V51.8398H157.46Z" fill="#323341"/>
<path d="M161.27 54.8202C160.904 54.3654 160.724 53.7889 160.766 53.2068V50.5802H159.893C159.858 50.5803 159.822 50.5725 159.79 50.5576C159.758 50.5426 159.729 50.5207 159.706 50.4935C159.654 50.4388 159.626 50.3658 159.626 50.2902V49.6235C159.626 49.5871 159.633 49.5509 159.647 49.5171C159.66 49.4833 159.681 49.4526 159.706 49.4268C159.73 49.401 159.759 49.3805 159.791 49.3667C159.823 49.353 159.858 49.3462 159.893 49.3469H160.766V47.4268C160.765 47.3895 160.771 47.3522 160.784 47.3172C160.797 47.2823 160.817 47.2504 160.843 47.2235C160.868 47.1992 160.897 47.1802 160.929 47.1676C160.961 47.155 160.995 47.1491 161.03 47.1502H161.926C161.962 47.1485 161.997 47.1542 162.031 47.1668C162.064 47.1794 162.094 47.1987 162.12 47.2235C162.169 47.2795 162.194 47.3525 162.19 47.4268V49.3402H163.573C163.609 49.339 163.645 49.3451 163.678 49.3583C163.711 49.3715 163.741 49.3915 163.766 49.4168C163.815 49.4718 163.84 49.5436 163.836 49.6168V50.2835C163.839 50.3608 163.811 50.436 163.76 50.4935C163.736 50.519 163.707 50.5393 163.675 50.553C163.643 50.5668 163.608 50.5738 163.573 50.5735H162.19V53.0835C162.173 53.3453 162.231 53.6064 162.356 53.8368C162.418 53.9241 162.502 53.9934 162.599 54.0379C162.696 54.0824 162.803 54.1004 162.91 54.0902H163.666C163.702 54.0894 163.737 54.0962 163.77 54.11C163.803 54.1238 163.832 54.1443 163.856 54.1702C163.906 54.2236 163.934 54.2939 163.933 54.3668V55.0868C163.935 55.1594 163.909 55.2298 163.86 55.2835C163.836 55.3104 163.806 55.3315 163.772 55.3453C163.739 55.3592 163.703 55.3654 163.666 55.3635H162.773C162.498 55.3852 162.222 55.3479 161.963 55.2542C161.704 55.1605 161.467 55.0125 161.27 54.8202Z" fill="#323341"/>
<path d="M169.693 54.6733C169.105 54.0486 168.785 53.2179 168.803 52.3599C168.803 52.1533 168.803 51.8133 168.803 51.3433C168.803 50.8733 168.803 50.5166 168.803 50.2999C168.788 49.4425 169.111 48.6137 169.703 47.9933C170.018 47.7077 170.386 47.4876 170.787 47.3457C171.187 47.2038 171.612 47.1429 172.037 47.1666C172.626 47.1532 173.21 47.2728 173.747 47.5166C174.203 47.727 174.593 48.0592 174.873 48.4766C175.141 48.8853 175.286 49.3616 175.293 49.8499V49.8733C175.293 49.9029 175.287 49.9322 175.275 49.9592C175.263 49.9862 175.245 50.0104 175.223 50.0299C175.179 50.0688 175.122 50.0912 175.063 50.0933H174.013C173.941 50.0991 173.87 50.0777 173.813 50.0333C173.757 49.9718 173.718 49.8955 173.703 49.8133C173.636 49.4131 173.428 49.0501 173.117 48.7899C172.792 48.5786 172.41 48.4759 172.023 48.4966C170.963 48.4966 170.408 49.1166 170.357 50.3566C170.357 50.5666 170.357 50.8866 170.357 51.3199C170.357 51.7533 170.357 52.0799 170.357 52.3199C170.4 53.5599 170.953 54.1833 172.023 54.1833C172.413 54.2015 172.798 54.0953 173.123 53.8799C173.43 53.6265 173.635 53.2718 173.703 52.8799C173.713 52.7966 173.75 52.7189 173.81 52.6599C173.869 52.6173 173.941 52.5972 174.013 52.6033H175.063C175.095 52.6022 175.126 52.6075 175.155 52.619C175.184 52.6305 175.211 52.6478 175.233 52.6699C175.256 52.6923 175.273 52.7195 175.284 52.7496C175.294 52.7796 175.297 52.8117 175.293 52.8433C175.286 53.3316 175.141 53.808 174.873 54.2166C174.593 54.634 174.203 54.9662 173.747 55.1766C173.21 55.4215 172.626 55.5423 172.037 55.5299C171.032 55.501 170.251 55.2155 169.693 54.6733Z" fill="#323341"/>
<path d="M177.56 55.2466C177.261 55.1025 177.006 54.8816 176.82 54.6066C176.594 54.2699 176.503 53.8606 176.565 53.46C176.626 53.0593 176.837 52.6964 177.153 52.4433C177.643 52.0822 178.216 51.8527 178.82 51.7766L180.333 51.5466V51.3033C180.355 51.0268 180.268 50.7528 180.09 50.54C179.984 50.446 179.859 50.3748 179.725 50.3307C179.59 50.2866 179.448 50.2704 179.307 50.2833C179.1 50.2743 178.895 50.3252 178.717 50.4299C178.585 50.5087 178.464 50.6039 178.357 50.7133L178.18 50.9099C178.172 50.9485 178.151 50.9832 178.121 51.0081C178.091 51.033 178.053 51.0466 178.013 51.0466H177.167C177.134 51.0466 177.101 51.04 177.071 51.0272C177.041 51.0143 177.014 50.9955 176.991 50.9718C176.968 50.9482 176.95 50.9202 176.939 50.8895C176.927 50.8588 176.922 50.8261 176.923 50.7933C176.947 50.5497 177.041 50.3183 177.193 50.1266C177.403 49.8497 177.679 49.6306 177.997 49.4899C178.415 49.2995 178.871 49.2082 179.33 49.2233C180.2 49.2233 180.833 49.43 181.23 49.8366C181.432 50.0515 181.589 50.3047 181.691 50.5812C181.794 50.8577 181.84 51.152 181.827 51.4466V55.0799C181.828 55.1518 181.803 55.2217 181.757 55.2766C181.732 55.3031 181.702 55.324 181.669 55.3378C181.635 55.3516 181.599 55.358 181.563 55.3566H180.667C180.632 55.3573 180.597 55.3505 180.565 55.3367C180.532 55.3229 180.504 55.3024 180.48 55.2766C180.455 55.2507 180.435 55.2199 180.422 55.1861C180.408 55.1523 180.402 55.1162 180.403 55.0799V54.6399C180.228 54.8974 179.991 55.1061 179.713 55.2466C179.369 55.4168 178.987 55.4992 178.603 55.4866C178.241 55.4923 177.883 55.4099 177.56 55.2466ZM179.96 53.9699C180.24 53.6302 180.378 53.1957 180.347 52.7566V52.5133L179.243 52.6966C178.9 52.7356 178.571 52.8494 178.277 53.0299C178.177 53.0875 178.094 53.17 178.035 53.2693C177.977 53.3686 177.945 53.4814 177.943 53.5966C177.94 53.7103 177.966 53.823 178.018 53.924C178.071 54.0249 178.148 54.1107 178.243 54.1733C178.454 54.3173 178.705 54.3908 178.96 54.3833C179.147 54.3907 179.333 54.3576 179.505 54.2862C179.678 54.2149 179.833 54.107 179.96 53.9699Z" fill="#323341"/>
<path d="M183.52 55.29C183.494 55.2642 183.474 55.2335 183.46 55.1998C183.446 55.166 183.44 55.1298 183.44 55.0933V49.6434C183.439 49.5677 183.468 49.4948 183.52 49.44C183.543 49.4128 183.571 49.391 183.604 49.376C183.636 49.361 183.671 49.3533 183.707 49.3534H184.6C184.637 49.3516 184.674 49.3579 184.709 49.3717C184.743 49.3855 184.774 49.4065 184.8 49.4334C184.852 49.4909 184.879 49.5661 184.877 49.6434V50.1167C185.047 49.8743 185.277 49.6793 185.543 49.55C185.831 49.4152 186.146 49.3479 186.463 49.3534H186.917C186.952 49.3515 186.988 49.3574 187.022 49.3706C187.055 49.3839 187.085 49.4041 187.11 49.43C187.135 49.4566 187.155 49.4881 187.167 49.5225C187.18 49.5569 187.185 49.5935 187.183 49.63V50.4634C187.186 50.536 187.159 50.6066 187.11 50.66C187.087 50.6881 187.057 50.7103 187.023 50.7247C186.99 50.7392 186.953 50.7456 186.917 50.7434H186.057C185.906 50.7351 185.756 50.7584 185.615 50.8118C185.475 50.8652 185.347 50.9475 185.24 51.0534C185.03 51.2879 184.922 51.596 184.94 51.91V55.0933C184.94 55.1663 184.913 55.2366 184.863 55.29C184.837 55.3165 184.806 55.3373 184.772 55.3511C184.737 55.3649 184.7 55.3713 184.663 55.37H183.703C183.669 55.3702 183.635 55.3632 183.603 55.3494C183.572 55.3357 183.543 55.3154 183.52 55.29Z" fill="#323341"/>
<path d="M188.693 54.7499C188.18 54.1728 187.906 53.4219 187.927 52.6499V52.3599V52.0732C187.919 51.3097 188.196 50.5707 188.703 49.9999C188.957 49.7468 189.26 49.5493 189.594 49.4202C189.928 49.291 190.286 49.233 190.643 49.2499C191.021 49.2278 191.398 49.2913 191.747 49.4356C192.096 49.5799 192.408 49.8013 192.66 50.0832C193.159 50.7121 193.413 51.5012 193.373 52.3032V52.5466C193.374 52.583 193.367 52.6193 193.353 52.6531C193.34 52.6869 193.319 52.7176 193.293 52.7432C193.268 52.7696 193.237 52.7904 193.203 52.8042C193.17 52.818 193.133 52.8245 193.097 52.8232H189.43V52.9166C189.432 53.2985 189.548 53.6712 189.763 53.9866C189.859 54.1263 189.989 54.2394 190.141 54.3152C190.292 54.391 190.461 54.427 190.63 54.4199C190.835 54.4242 191.038 54.3781 191.221 54.2857C191.404 54.1933 191.562 54.0574 191.68 53.8899C191.722 53.8251 191.776 53.7695 191.84 53.7266C191.896 53.7004 191.958 53.6889 192.02 53.6932H192.97C193.034 53.6918 193.096 53.7144 193.143 53.7566C193.166 53.776 193.184 53.8001 193.196 53.8271C193.208 53.8542 193.214 53.8836 193.213 53.9132C193.189 54.1649 193.078 54.4004 192.9 54.5799C192.651 54.8638 192.344 55.0912 192 55.2466C191.573 55.4379 191.108 55.5324 190.64 55.5232C190.279 55.5374 189.92 55.4759 189.585 55.3427C189.249 55.2095 188.946 55.0076 188.693 54.7499ZM191.87 51.8532V51.8166C191.887 51.4237 191.769 51.0369 191.537 50.7199C191.431 50.5832 191.294 50.4739 191.138 50.4014C190.981 50.3288 190.809 50.2952 190.637 50.3032C190.465 50.2948 190.294 50.3284 190.138 50.401C189.983 50.4736 189.847 50.5831 189.743 50.7199C189.511 51.0369 189.393 51.4237 189.41 51.8166V51.8532H191.87Z" fill="#323341"/>
<path d="M62.8567 42.2934C60.694 41.1566 58.8892 39.4418 57.6433 37.34C56.3621 35.1682 55.7057 32.6846 55.7467 30.1634C55.7084 27.6488 56.3647 25.1723 57.6433 23.0067C58.8904 20.9076 60.695 19.1953 62.8567 18.06C65.1617 16.8526 67.7315 16.2397 70.3333 16.2767C72.5879 16.2428 74.8244 16.6846 76.8967 17.5734C78.7054 18.3668 80.3035 19.5723 81.5633 21.0934C81.6133 21.1526 81.6381 21.2289 81.6325 21.3062C81.6269 21.3834 81.5913 21.4554 81.5333 21.5067L77.2 25.4634C77.1707 25.4901 77.1362 25.5105 77.0987 25.5235C77.0612 25.5365 77.0215 25.5418 76.9819 25.539C76.9424 25.5362 76.9038 25.5254 76.8685 25.5072C76.8332 25.4891 76.802 25.4639 76.7767 25.4334C75.0922 23.5023 73.0722 22.5367 70.7167 22.5367C69.3722 22.5139 68.0451 22.8425 66.8667 23.49C65.7532 24.117 64.8446 25.0523 64.25 26.1834C63.6112 27.4183 63.2915 28.7933 63.32 30.1834C63.2915 31.5734 63.6112 32.9485 64.25 34.1834C64.8448 35.3134 65.7535 36.2476 66.8667 36.8734C68.0445 37.5225 69.372 37.8512 70.7167 37.8267C73.0722 37.8267 75.0922 36.8623 76.7767 34.9334C76.8025 34.9031 76.8342 34.8783 76.8697 34.8604C76.9053 34.8425 76.944 34.8318 76.9837 34.829C77.0234 34.8262 77.0633 34.8313 77.101 34.8441C77.1387 34.8569 77.1735 34.877 77.2033 34.9034L81.5367 38.8567C81.5934 38.9095 81.628 38.9818 81.6336 39.0591C81.6392 39.1364 81.6153 39.213 81.5667 39.2734C80.3075 40.7944 78.7091 41.9988 76.9 42.7901C74.8283 43.6811 72.5916 44.1241 70.3367 44.09C67.7326 44.1235 65.1614 43.5059 62.8567 42.2934Z" fill="#323341"/>
<path d="M94.8132 44.0535C88.5932 44.0535 83.8899 39.8535 83.8899 33.0968C83.8899 26.3401 88.7066 22.1401 94.8899 22.1401C101.073 22.1401 105.89 26.3401 105.89 33.0968C105.89 39.8535 101.033 44.0535 94.8132 44.0535ZM94.8132 38.4035C97.1266 38.4035 99.2866 36.6868 99.2866 33.0968C99.2866 29.5068 97.1632 27.7901 94.8866 27.7901C92.5366 27.7901 90.4899 29.4568 90.4899 33.0968C90.4899 36.7368 92.4599 38.4035 94.8132 38.4035Z" fill="#323341"/>
<path d="M120.097 44.0535C113.877 44.0535 109.173 39.8535 109.173 33.0968C109.173 26.3401 114 22.1401 120.17 22.1401C126.34 22.1401 131.17 26.3401 131.17 33.0968C131.17 39.8535 126.333 44.0535 120.097 44.0535ZM120.097 38.4035C122.41 38.4035 124.57 36.6868 124.57 33.0968C124.57 29.5068 122.447 27.7901 120.17 27.7901C117.82 27.7901 115.773 29.4568 115.773 33.0968C115.773 36.7368 117.743 38.4035 120.097 38.4035Z" fill="#323341"/>
<path d="M147.81 22.0298C153.007 22.0298 157.143 26.2298 157.143 32.9498C157.143 39.6698 153.01 43.9498 147.81 43.9498C146.728 43.9757 145.653 43.776 144.652 43.3634C143.652 42.9507 142.749 42.3342 142 41.5531C141.746 41.2763 141.513 40.9811 141.303 40.6698V54.9165C141.303 55.0225 141.261 55.1243 141.186 55.1993C141.111 55.2743 141.009 55.3165 140.903 55.3165H135.207C135.1 55.3165 134.998 55.2744 134.923 55.1995C134.847 55.1246 134.804 55.0229 134.803 54.9165V22.7365C134.804 22.6301 134.847 22.5283 134.923 22.4534C134.998 22.3785 135.1 22.3364 135.207 22.3365H140.89C140.996 22.3365 141.098 22.3786 141.173 22.4536C141.248 22.5286 141.29 22.6304 141.29 22.7365L141.313 25.3598C141.513 25.0344 141.736 24.7237 141.98 24.4298C143.26 23.0265 145.237 22.0298 147.81 22.0298ZM145.877 27.7198C143.45 27.7198 141.25 29.5898 141.25 32.9898C141.25 36.3898 143.45 38.2565 145.877 38.2565C148.303 38.2565 150.543 36.3465 150.543 32.9498C150.543 29.5531 148.333 27.7198 145.877 27.7198Z" fill="#323341"/>
<path d="M182.417 34.9768H168.603C168.525 34.9782 168.448 34.9987 168.378 35.0365C168.309 35.0743 168.251 35.1283 168.207 35.1939C168.163 35.2594 168.136 35.3346 168.128 35.4129C168.12 35.4912 168.131 35.5703 168.16 35.6434C168.478 36.3947 169.009 37.0365 169.687 37.4901C170.667 38.1066 171.81 38.4133 172.967 38.3701C173.84 38.3898 174.708 38.2439 175.527 37.9401C176.192 37.6642 176.811 37.2888 177.363 36.8268C177.457 36.7435 177.579 36.7006 177.704 36.7075C177.829 36.7144 177.946 36.7704 178.03 36.8634L181.2 40.2634C181.283 40.3547 181.329 40.4736 181.329 40.5968C181.329 40.7199 181.283 40.8388 181.2 40.9301C179.213 42.999 176.397 44.0334 172.75 44.0334C170.556 44.0809 168.383 43.5971 166.417 42.6234C164.663 41.7497 163.195 40.3931 162.187 38.7134C161.176 36.9981 160.658 35.0373 160.69 33.0468C160.659 31.0779 161.164 29.1378 162.15 27.4334C163.111 25.7883 164.508 24.4409 166.187 23.5401C167.943 22.6323 169.888 22.1505 171.865 22.1338C173.842 22.117 175.795 22.5656 177.567 23.4434C179.222 24.3044 180.597 25.6205 181.53 27.2368C182.469 28.8971 182.969 30.7694 182.983 32.6768C182.991 33.3124 182.961 33.9479 182.893 34.5801C182.874 34.6919 182.815 34.7931 182.728 34.8657C182.641 34.9383 182.53 34.9777 182.417 34.9768ZM169.23 28.4034C168.576 29.0078 168.113 29.7897 167.897 30.6534C167.837 30.9001 167.897 31.0668 168.143 31.0668H175.9C176.233 31.0668 176.2 30.8668 176.147 30.6534C175.933 29.7886 175.47 29.0059 174.813 28.4034C174.022 27.7714 173.038 27.4271 172.025 27.4271C171.012 27.4271 170.029 27.7714 169.237 28.4034H169.23Z" fill="#323341"/>
<path d="M193.033 43.6736H187.207C187.118 43.6736 187.033 43.6385 186.971 43.576C186.908 43.5135 186.873 43.4287 186.873 43.3403V22.7003C186.873 22.6119 186.908 22.5271 186.971 22.4646C187.033 22.4021 187.118 22.367 187.207 22.367H193.033C193.122 22.367 193.206 22.4021 193.269 22.4646C193.332 22.5271 193.367 22.6119 193.367 22.7003V25.907C193.549 25.6322 193.746 25.3674 193.957 25.1136C194.64 24.2387 195.504 23.521 196.489 23.0091C197.474 22.4972 198.558 22.2032 199.667 22.147C199.755 22.147 199.84 22.1821 199.902 22.2446C199.965 22.3071 200 22.3919 200 22.4803V28.7203C200 28.8087 199.965 28.8935 199.902 28.956C199.84 29.0185 199.755 29.0536 199.667 29.0536H198.213C195.143 29.0536 193.36 30.1236 193.36 33.787V43.3403C193.36 43.4276 193.326 43.5114 193.265 43.5737C193.204 43.636 193.121 43.6719 193.033 43.6736Z" fill="#323341"/>
<path d="M94.8132 44.0535C88.5932 44.0535 83.8899 39.8535 83.8899 33.0968C83.8899 26.3401 88.7066 22.1401 94.8899 22.1401C101.073 22.1401 105.89 26.3401 105.89 33.0968C105.89 39.8535 101.033 44.0535 94.8132 44.0535ZM94.8132 38.4035C97.1266 38.4035 99.2866 36.6868 99.2866 33.0968C99.2866 29.5068 97.1632 27.7901 94.8866 27.7901C92.5366 27.7901 90.4899 29.4568 90.4899 33.0968C90.4899 36.7368 92.4599 38.4035 94.8132 38.4035Z" fill="#323341"/>
<path d="M120.097 44.0535C113.877 44.0535 109.173 39.8535 109.173 33.0968C109.173 26.3401 114 22.1401 120.17 22.1401C126.34 22.1401 131.17 26.3401 131.17 33.0968C131.17 39.8535 126.333 44.0535 120.097 44.0535ZM120.097 38.4035C122.41 38.4035 124.57 36.6868 124.57 33.0968C124.57 29.5068 122.447 27.7901 120.17 27.7901C117.82 27.7901 115.773 29.4568 115.773 33.0968C115.773 36.7368 117.743 38.4035 120.097 38.4035Z" fill="#323341"/>
<path d="M147.81 22.0933C153.007 22.0933 157.143 26.2933 157.143 33.0099C157.143 39.7266 153.01 44.0099 147.81 44.0099C146.728 44.0359 145.653 43.8362 144.652 43.4235C143.652 43.0109 142.749 42.3944 142 41.6133C141.746 41.3365 141.513 41.0412 141.303 40.7299V54.9766C141.303 55.0827 141.261 55.1844 141.186 55.2594C141.111 55.3344 141.009 55.3766 140.903 55.3766H135.207C135.1 55.3766 134.998 55.3346 134.923 55.2596C134.847 55.1847 134.804 55.083 134.803 54.9766V22.7966C134.804 22.6902 134.847 22.5885 134.923 22.5135C134.998 22.4386 135.1 22.3966 135.207 22.3966H140.89C140.996 22.3966 141.098 22.4387 141.173 22.5138C141.248 22.5888 141.29 22.6905 141.29 22.7966L141.313 25.4199C141.513 25.0946 141.736 24.7838 141.98 24.4899C143.26 23.0866 145.237 22.0933 147.81 22.0933ZM145.877 27.7799C143.45 27.7799 141.25 29.6499 141.25 33.0499C141.25 36.4499 143.45 38.3166 145.877 38.3166C148.303 38.3166 150.543 36.4099 150.543 33.0099C150.543 29.6099 148.333 27.7799 145.877 27.7799Z" fill="#323341"/>
<path d="M12.2866 30.45C13.2433 30.4034 13.3166 30.3067 13.9866 29.8834C15.1366 29.2567 16.09 29.97 16.5166 29.7967C17.9466 29.21 18.1566 27.8434 18.3933 28.1C19.65 29.4967 18.7866 31.17 19.5566 33.4634C19.79 34.1634 20.61 36.11 21.1033 36.7134C21.9533 37.75 23.8766 38.53 25.61 40.09C28.8733 43.0267 29.4433 46.4767 30.2433 48.9634C30.5044 49.5779 30.8073 50.1737 31.15 50.7467C32.3866 52.8467 34.4833 53.3534 35.64 53.4767C38.3833 53.7667 39.71 51.5334 39.1166 50.7467C37.79 48.8833 36.7402 46.8376 36 44.6734C35.37 42.72 35.0333 39.8134 35.3533 35.7134C35.6366 32.1067 37.07 23.36 35.9933 18.3467C35.5933 14.5867 31.8466 7.3467 26.5333 5.9467C26.7933 3.06003 23.9033 2.31336 21.8033 0.740031C18.2666 -2.2133 22.0133 4.62003 20.1566 4.7167C20.1566 4.7167 18.51 3.60336 17.9133 3.14003C17.58 2.8867 16.9133 2.29336 16.46 2.45336C15.7933 2.5167 17.5633 4.9667 17.6433 5.62336C17.7466 5.8167 18.1666 6.73003 17.5666 7.03003C16.7233 7.58003 15.0233 8.9267 15.0666 10.1234C15.0366 10.65 15.5033 11.15 14.5133 11.79C13.3966 13.0067 7.44663 14.3734 8.35996 16.0234C8.88663 16.84 10.7966 19.1667 13.1333 19.1667C15.47 19.1667 19.1333 18.3867 19.4666 19.5C19.6007 19.7608 19.678 20.0472 19.6933 20.34C19.5866 24.04 12.7333 24.34 6.54329 30.5267C1.06996 35.9767 -0.483372 41.0634 0.123295 46.94C0.759962 53.12 4.91663 57.11 8.6333 58.34C11.07 59.1467 17.3 59.95 21.4933 60.0067C25.4066 60.06 38.11 59.5467 38.11 57.3934C38.11 56.0167 31.41 55.32 26.2733 55.06C21.9133 54.8367 19.6833 55.06 19.29 55.0267C18.3466 54.9534 17.7833 54.8567 17.75 53.9034C17.7166 52.8734 19.4166 52.2834 19.4166 52.2834C19.0233 51.6667 18.9733 51.1634 19.2733 50.2834C18.6066 49.6334 17.6766 48.8167 17.13 47.69C16.6478 49.855 15.9786 51.9741 15.13 54.0234C14.6533 55.0867 13.7533 55.0234 12.9366 54.81C12.12 54.5967 12.1566 54.5634 12.4066 52.7867C12.6566 51.01 13.17 48.12 13.43 44.3167C13.5366 42.7734 13.2433 41.84 13.0733 39.93C13.0233 39.35 12.99 38.78 12.97 38.2634C12.7833 36.6834 12.3266 35.3067 10.4433 33.5634C9.46329 32.6567 9.9433 31.53 10.3166 30.8034C10.69 30.0767 11.28 30.5034 12.2866 30.45Z" fill="#323341"/>
</svg>
