<svg fill="none" height="230" viewBox="0 0 331 230" width="331" xmlns="http://www.w3.org/2000/svg"><path d="m41.7014 127.731c.7719 5.231 4.6315 9.732 10.035 11.07 5.5321 1.338 11.4501-.973 14.5378-5.352 1.0292-1.46-1.4152-2.798-2.4444-1.338-2.4444 3.406-7.3333 5.23-11.5788 4.014-2.0585-.487-3.8596-1.703-5.1462-3.163-1.5438-1.703-2.1871-3.649-2.573-5.839-.1287-.73-1.1579-1.095-1.8012-.973-.7719.121-1.1578.851-1.0292 1.581z" fill="#ff6b7f" stroke="#ff6b7f"/><path d="m67.1747 131.502c-.7719-4.744-3.7309-9.123-7.9765-11.8-2.3157-1.459-5.1461-2.554-7.9765-2.311-2.4444.243-4.7602 1.338-6.4326 2.92-1.6725 1.581-2.9591 3.771-3.0877 6.082-.1287 2.068.6432 4.258 1.6725 6.082 2.3157 4.015 6.8186 6.569 11.5788 6.691 2.7017 0 5.4034-.608 7.7192-2.068 1.9298-1.095 3.2163-2.676 4.3742-4.501 1.0292-1.46-1.5439-2.919-2.4444-1.338-1.8012 2.798-4.3743 4.623-7.8479 5.109-3.7309.487-7.5905-.973-9.9063-3.893-1.1579-1.459-1.8011-3.041-2.1871-4.865-.2573-1.582.386-3.163 1.4152-4.38 1.1579-1.46 2.8304-2.554 4.6315-2.919 2.1871-.487 4.5029.365 6.304 1.459 3.9883 2.312 6.69 6.205 7.3333 10.584.2573 1.703 3.0876.973 2.8303-.852z" fill="#ff6b7f" stroke="#ff6b7f"/><path d="m126.741 121.406c3.474 3.406 9.135 4.622 13.895 3.162 4.76-1.459 8.491-5.595 9.134-10.218.643-4.258-1.158-8.394-5.403-10.34-5.018-2.311-10.293-.365-13.895 3.284-1.93 2.068-3.474 4.501-4.245 7.178-.386 1.338-.644 2.798-.644 4.136 0 .73 0 1.338.515 1.946.129.365.386.608.643.852 1.287 1.338 3.345-.609 2.059-1.947-.258-.243-.515-.486-.772-.851.128.365.257.608.386.973-.129-3.893 1.415-7.786 4.245-10.584 2.702-2.676 6.562-4.379 10.292-2.554 7.076 3.406 3.731 12.895-2.444 15.327-3.988 1.582-8.748.73-11.707-2.189-1.287-1.338-3.345.608-2.059 1.825z" fill="#ff6b7f"/><path d="m126.741 121.406c3.474 3.406 9.135 4.622 13.895 3.162 4.76-1.459 8.491-5.595 9.134-10.218.643-4.258-1.158-8.394-5.403-10.34-5.018-2.311-10.293-.365-13.895 3.284-1.93 2.068-3.474 4.501-4.245 7.178-.386 1.338-.644 2.798-.644 4.136 0 .73 0 1.338.515 1.946.129.365.386.608.643.852zm0 0c1.287 1.338 3.345-.609 2.059-1.947-.258-.243-.515-.486-.772-.851.128.365.257.608.386.973-.129-3.893 1.415-7.786 4.245-10.584 2.702-2.676 6.562-4.379 10.292-2.554 7.076 3.406 3.731 12.895-2.444 15.327-3.988 1.582-8.748.73-11.707-2.189-1.287-1.338-3.345.608-2.059 1.825z" stroke="#ff6b7f"/><path d="m91.3616 75.5615c-.1287 0 .2573 0 .2573 0 .2573.1216.3859.1216.6432.2433.772.3649 1.2866.9731 1.8012 1.5814 1.5438 1.703 2.7017 3.6494 3.7309 5.7174 2.8308 5.4741 4.8888 9.4715 5.9178 15.4322.515 2.9192.901 5.8392.772 8.7582 0 1.339-.128 2.677-.386 3.893-.386 1.947-1.029 3.893-.772 5.839.386 4.136 4.503 6.812 7.591 9.245 3.602 2.798 7.333 5.475 11.193 8.029 3.602 2.433 7.333 4.623 11.193 6.691 1.672.973 3.473 1.824 5.017 3.041 1.672 1.338 2.702 2.919 3.602 4.744 1.93 4.136 2.831 8.515 3.731 12.895.772 4.136 2.702 7.907 2.702 12.164 0 2.798-.643 5.596-1.673 8.273-.514 1.459-1.543 3.406-.771 4.987 1.543 2.798 5.66.243 7.075-1.338 1.287-1.46 1.93-3.163 2.702-4.744 1.029-2.19 1.93-4.258 2.959-6.448 3.217-6.933 6.819-13.746 8.877-21.045 1.93-6.812 2.445-13.989 3.474-20.923 1.029-6.691 2.058-13.624.643-20.315-.643-2.92-1.801-5.596-3.731-7.907-1.029-1.217-2.444-2.311-3.602-3.406-.643-.73-1.287-1.3383-1.673-2.3115 0 0-.128-.8515-.128-.365 0-.1216 0-.2432 0-.3649.257-3.6494 1.672-5.9437 2.444-9.7148 1.415-7.2989 1.801-14.7193 1.158-22.1398-.129-1.9464-.643-4.0144-.772-5.9607-.128-2.433.772-5.2309 1.287-7.6638 1.029-4.3793 1.93-8.637 2.444-13.0163.901-9.0019 0-18.1254-2.573-26.884-1.029-3.40616-1.93-7.78547-4.889-10.21841-3.345-2.797889-6.947-.60824-10.035 1.33812-7.204 4.3793-13.894 9.73179-19.684 15.69249-5.789 6.0824-11.45 13.0163-14.537 20.6801-2.831 7.0555-1.93 14.7193 2.701 20.8016 2.187 2.7979 5.018 5.1092 8.234 6.569.901.3649 1.801.1216 2.187-.8515 1.158-3.8927-.772-7.5422-3.988-9.9751-3.602-2.6763-7.848-3.4061-12.222-2.6763-5.018.8516-9.649 3.2845-14.2807 5.1092-5.0174 2.068-10.4209 3.6494-15.8243 4.8659-10.5496 2.433-21.3565 3.5278-31.906 5.8391-3.9883.8515-8.2338 2.7979-8.6198 7.0555-.1287 1.7031.386 3.5278 1.8012 4.6226 1.2865.9732 3.6022-.2433 4.7601-.9731 6.1754-4.136 5.9181-13.0163 1.8012-18.4904-2.7018-3.5278-6.4327-6.0824-10.2923-8.5153-4.3742-2.6763-8.7484-5.3525-12.8653-8.2721-4.5029-3.1628-8.8771-6.4473-12.994-9.975-2.8304-2.433-6.94727-7.1772-11.32148-4.9876-3.730949 1.8247-3.602296 6.8123-3.47364 10.2184.12865 4.8659 1.02922 9.7318 2.44441 14.476 1.54384 4.7443 3.60229 9.3669 6.30401 13.6245 2.7017 4.136 5.6607 8.272 6.9473 13.0163 1.4152 5.1092 1.0292 8.4983 1.4152 13.6075.3859 4.8659 1.6725 9.6103 3.2163 14.2323 1.6725 4.623 3.4736 9.367 3.9882 14.233.5147 5.231-.9005 10.097-1.5438 15.206-.6433 4.866.2573 9.489 2.7017 13.868 2.5731 4.501 6.0467 8.637 9.2631 12.651 6.1753 7.786 12.3507 15.814 19.6839 22.627 3.2163 3.041 6.8186 5.717 10.8069 7.907 1.9298 1.095 3.9882 1.946 6.1753 2.676 1.0293.365 2.0585.608 3.0877.851.7719.122 1.8012.609 2.5731.122 1.6725-.973.1286-3.041-.5146-4.136-1.4152-2.311-3.0877-4.623-4.6316-6.812-3.6022-5.353-7.9765-11.07-9.1343-17.517-.386-2.677-.386-5.353-.2573-8.029.1286-2.555.2573-5.109.6432-7.542.5146-3.893 2.5731-7.542 5.0175-10.705 5.2748-6.934 12.4794-12.165 18.3974-18.491 1.5439-1.703 2.7017-3.527 2.959-5.717.2573-2.311 0-4.744-.5146-7.056-.9006-4.379-3.0876-8.272-4.7601-12.408-2.8304-7.0551-2.4445-12.8772.2573-19.9328 1.6725-1.9463 3.0876-4.9875 5.7894-5.5957 1.8011-.4866 1.0292-3.0412-.772-2.6763-4.7601 1.2165-6.8186 6.6906-7.9765 10.705-1.4151 5.3525-2.0584 9.3499-.6432 14.7023 1.8011 6.8125 6.1753 12.7735 6.5613 19.9505.1286 1.824 0 3.649-1.1579 5.231-1.0292 1.459-2.4444 2.554-3.6023 3.771-2.4444 2.311-5.0175 4.622-7.4619 6.933-4.7601 4.501-9.5203 9.367-12.3507 15.206-1.4152 2.92-1.9298 5.718-2.1871 8.881-.3859 3.892-.7719 7.907-.3859 11.799.5146 5.353 3.0876 9.854 5.918 14.476 2.5731 4.015 5.4034 7.908 7.9765 12.044.386.608.7719 1.094 1.0292 1.703.1287.121.386.608.1287.365 0 0 0 .243.1286.243-.1286-.73.2573-1.217 1.1579-1.582-.1286 0-.3859-.121-.5146-.121-.7719-.365-1.8011-.365-2.7017-.608-.9006-.244-1.6725-.487-2.5731-.852-1.6725-.608-3.345-1.46-4.8888-2.433-6.304-3.649-11.3215-8.759-15.953-13.989-5.4034-6.204-10.5496-12.652-15.5671-19.099-2.3157-3.041-4.8888-6.204-6.5613-9.61-1.8011-3.65-2.1871-7.299-1.6725-11.313.5147-4.015 1.6725-8.029 1.6725-12.043.1287-3.65-.6432-7.299-1.6725-10.705-1.1578-3.65-2.573-7.299-3.7309-10.949-1.1579-3.771-1.9298-7.6634-2.0585-11.5561-.1286-3.7711-.1286-5.7005-.7719-9.4715-.6432-3.8927-2.0584-7.4205-3.9882-10.8267-1.9298-3.2844-4.1169-6.3256-5.9181-9.6101-1.92977-3.5278-3.47361-7.4205-4.50284-11.3132-1.02923-3.771-1.67249-7.5421-1.80114-11.3132-.12866-2.1896-.77192-7.5421 2.1871-8.3936 1.80115-.6083 3.60228 1.0948 4.76018 2.1896 1.5438 1.3381 3.2163 2.7979 4.8888 4.136 3.0877 2.5546 6.1754 4.8659 9.5204 7.1772 3.4736 2.433 6.9472 4.8659 10.6782 7.0555 3.0877 1.8248 6.1753 3.6495 9.0057 5.8391 5.0175 3.7711 8.8771 9.2452 6.5613 15.4492-.9006 2.3113-2.7017 4.136-5.2748 4.7443.5146.1216.9006.2433 1.4152.3649-2.1871-1.703-.5146-4.6226 1.4152-5.7174 2.5731-1.5814 6.1754-1.8247 9.1344-2.3113 6.69-1.2165 13.3799-2.1897 20.0699-3.4061 6.5613-1.2165 12.994-2.6763 19.1693-4.9876 5.9185-2.068 11.7075-5.7174 18.0115-6.5689 3.216-.4866 6.433.1216 9.134 1.9463 2.445 1.7031 4.117 4.3793 3.217 7.2989.772-.2433 1.415-.4866 2.187-.8516-6.69-3.0411-11.193-9.7317-11.322-16.7873 0-8.1504 5.79-15.8141 10.936-22.0182 5.017-6.0823 10.935-11.5564 17.368-16.3007 1.544-1.09482 3.088-2.18964 4.76-3.16282 1.673-1.09483 3.86-2.91953 5.918-3.16283 3.731-.48659 5.146 6.69065 5.918 9.00185 2.445 8.2721 3.345 17.0307 2.702 25.546-.386 4.6226-1.415 9.0019-2.444 13.3812-.515 2.068-.901 4.0143-1.158 6.0824-.258 2.3113.128 4.2576.386 6.5689.772 7.2988.514 14.5977-.772 21.7749-.772 4.136-1.93 6.3087-2.573 10.4447-.258 1.9463.257 3.5282 1.544 5.1092 1.157 1.338 2.573 2.311 3.859 3.649 1.029 1.095 1.801 2.312 2.445 3.65 2.701 5.717 2.058 12.529 1.286 18.49-.386 3.406-1.029 6.812-1.544 10.219-.514 3.406-.772 6.812-1.415 10.218-1.286 6.812-3.988 13.016-6.947 19.22-1.93 4.136-3.86 8.272-5.79 12.408-.772 1.582-1.415 3.285-2.573 4.501-.514.608-1.158.852-1.801 1.338h-.128c-.386-.121-.515 0-.258.244-.128.243.258.121.129.243 0 0 .257-1.338.386-1.703.386-.973.772-2.068 1.029-3.041.901-2.92 1.415-6.083 1.029-9.124-.386-4.014-2.058-7.664-2.83-11.556-.772-4.015-1.673-7.907-3.345-11.8-1.544-3.528-3.602-6.204-7.076-8.394-3.474-2.068-7.076-3.893-10.421-5.961-3.86-2.432-7.719-4.987-11.321-7.663-1.673-1.217-3.474-2.555-5.147-3.893-1.543-1.217-3.345-2.555-4.374-4.258-1.158-2.068-.386-4.257 0-6.325.258-1.338.386-2.555.515-3.893.129-2.798-.129-5.596-.515-8.272-.9-5.8392-2.701-9.8366-5.146-15.3107-1.672-3.7711-3.8595-8.1504-7.2044-10.8266-1.1579-.8515-2.5731-1.4598-4.117-1.2165-1.8011.365-1.0292 2.9196.772 2.6763z" fill="#ff6b7f"/><path d="m91.3616 75.5615c-.1287 0 .2573 0 .2573 0 .2573.1216.3859.1216.6432.2433.772.3649 1.2866.9731 1.8012 1.5814 1.5438 1.703 2.7017 3.6494 3.7309 5.7174 2.8308 5.4741 4.8888 9.4715 5.9178 15.4322.515 2.9192.901 5.8392.772 8.7582 0 1.339-.128 2.677-.386 3.893-.386 1.947-1.029 3.893-.772 5.839.386 4.136 4.503 6.812 7.591 9.245 3.602 2.798 7.333 5.475 11.193 8.029 3.602 2.433 7.333 4.623 11.193 6.691 1.672.973 3.473 1.824 5.017 3.041 1.672 1.338 2.702 2.919 3.602 4.744 1.93 4.136 2.831 8.515 3.731 12.895.772 4.136 2.702 7.907 2.702 12.164 0 2.798-.643 5.596-1.673 8.273-.514 1.459-1.543 3.406-.771 4.987 1.543 2.798 5.66.243 7.075-1.338 1.287-1.46 1.93-3.163 2.702-4.744 1.029-2.19 1.93-4.258 2.959-6.448 3.217-6.933 6.819-13.746 8.877-21.045 1.93-6.812 2.445-13.989 3.474-20.923 1.029-6.691 2.058-13.624.643-20.315-.643-2.92-1.801-5.596-3.731-7.907-1.029-1.217-2.444-2.311-3.602-3.406-.643-.73-1.287-1.3383-1.673-2.3115 0 0-.128-.8515-.128-.365 0-.1216 0-.2432 0-.3649.257-3.6494 1.672-5.9437 2.444-9.7148 1.415-7.2988 1.801-14.7193 1.158-22.1398-.129-1.9464-.643-4.0144-.772-5.9607-.128-2.433.772-5.2309 1.287-7.6638 1.029-4.3793 1.93-8.637 2.444-13.0163.901-9.0019 0-18.1254-2.573-26.884-1.029-3.40616-1.93-7.78547-4.889-10.21841-3.345-2.797889-6.947-.60824-10.035 1.33812-7.204 4.3793-13.894 9.73179-19.684 15.69249-5.789 6.0824-11.45 13.0163-14.537 20.6801-2.831 7.0555-1.93 14.7193 2.701 20.8016 2.187 2.7979 5.018 5.1092 8.234 6.569.901.3649 1.801.1216 2.187-.8515 1.158-3.8928-.772-7.5422-3.988-9.9751-3.602-2.6763-7.848-3.4061-12.222-2.6763-5.018.8516-9.649 3.2845-14.2807 5.1092-5.0174 2.068-10.4209 3.6494-15.8243 4.8659-10.5496 2.433-21.3565 3.5278-31.906 5.8391-3.9883.8515-8.2338 2.7979-8.6198 7.0555-.1287 1.7031.386 3.5278 1.8012 4.6226 1.2865.9732 3.6022-.2433 4.7601-.9731 6.1754-4.1361 5.9181-13.0163 1.8012-18.4904-2.7018-3.5278-6.4327-6.0824-10.2923-8.5153-4.3742-2.6763-8.7484-5.3525-12.8653-8.2721-4.5029-3.1628-8.8771-6.4473-12.994-9.975-2.8304-2.433-6.94727-7.1772-11.32148-4.9876-3.730949 1.8247-3.602296 6.8123-3.47364 10.2184.12865 4.8659 1.02922 9.7318 2.44441 14.476 1.54384 4.7443 3.60229 9.3669 6.30401 13.6245 2.7017 4.136 5.6607 8.272 6.9473 13.0163 1.4152 5.1092 1.0292 8.4983 1.4152 13.6075.3859 4.8659 1.6725 9.6103 3.2163 14.2323 1.6725 4.623 3.4736 9.367 3.9882 14.233.5147 5.231-.9005 10.097-1.5438 15.206-.6433 4.866.2573 9.489 2.7017 13.868 2.5731 4.501 6.0467 8.637 9.2631 12.651 6.1753 7.786 12.3507 15.814 19.6839 22.627 3.2163 3.041 6.8186 5.717 10.8069 7.907 1.9298 1.095 3.9882 1.946 6.1753 2.676 1.0293.365 2.0585.608 3.0877.851.7719.122 1.8012.609 2.5731.122 1.6725-.973.1286-3.041-.5146-4.136-1.4152-2.311-3.0877-4.623-4.6316-6.812-3.6022-5.353-7.9765-11.07-9.1343-17.517-.386-2.677-.386-5.353-.2573-8.029.1286-2.555.2573-5.109.6432-7.542.5146-3.893 2.5731-7.542 5.0175-10.705 5.2748-6.934 12.4794-12.165 18.3974-18.491 1.5439-1.703 2.7017-3.527 2.959-5.717.2573-2.311 0-4.744-.5146-7.056-.9006-4.379-3.0877-8.272-4.7601-12.408-2.8304-7.0551-2.4445-12.8772.2573-19.9328 1.6725-1.9463 3.0876-4.9875 5.7894-5.5957zm0 0c1.8011-.4866 1.0292-3.0412-.772-2.6763m.772 2.6763c-1.8012.2433-2.5731-2.3113-.772-2.6763m0 0c-4.7601 1.2165-6.8186 6.6906-7.9765 10.705-1.4151 5.3525-2.0584 9.3499-.6432 14.7023 1.8011 6.8125 6.1753 12.7735 6.5613 19.9505.1286 1.824 0 3.649-1.1579 5.231-1.0292 1.459-2.4444 2.554-3.6023 3.771-2.4444 2.311-5.0175 4.622-7.4619 6.934-4.7601 4.5-9.5203 9.366-12.3507 15.205-1.4152 2.92-1.9298 5.718-2.1871 8.881-.3859 3.892-.7719 7.907-.3859 11.799.5146 5.353 3.0876 9.854 5.918 14.476 2.5731 4.015 5.4034 7.908 7.9765 12.044.386.608.7719 1.094 1.0292 1.703.1287.121.386.608.1287.365 0 0 0 .243.1286.243-.1286-.73.2573-1.217 1.1579-1.582-.1286 0-.3859-.121-.5146-.121-.7719-.365-1.8011-.365-2.7017-.608-.9006-.244-1.6725-.487-2.5731-.852-1.6725-.608-3.345-1.46-4.8888-2.433-6.304-3.649-11.3215-8.759-15.953-13.989-5.4034-6.204-10.5496-12.652-15.5671-19.099-2.3157-3.041-4.8888-6.204-6.5613-9.61-1.8011-3.65-2.1871-7.299-1.6725-11.313.5147-4.015 1.6725-8.029 1.6725-12.043.1287-3.65-.6432-7.299-1.6725-10.705-1.1578-3.65-2.573-7.299-3.7309-10.949-1.1579-3.771-1.9298-7.6634-2.0585-11.5561-.1286-3.7711-.1286-5.7005-.7719-9.4715-.6432-3.8927-2.0584-7.4205-3.9882-10.8267-1.9298-3.2844-4.1169-6.3256-5.9181-9.6101-1.92977-3.5278-3.47361-7.4205-4.50284-11.3132-1.02923-3.771-1.67249-7.5421-1.80114-11.3132-.12866-2.1896-.77192-7.5421 2.1871-8.3936 1.80115-.6083 3.60228 1.0948 4.76018 2.1896 1.5438 1.3381 3.2163 2.7979 4.8888 4.136 3.0877 2.5546 6.1754 4.8659 9.5204 7.1772 3.4736 2.4329 6.9472 4.8659 10.6782 7.0555 3.0877 1.8248 6.1753 3.6495 9.0057 5.8391 5.0175 3.7711 8.8771 9.2452 6.5613 15.4492-.9006 2.3113-2.7017 4.136-5.2748 4.7443.5146.1216.9006.2433 1.4152.3649-2.1871-1.703-.5146-4.6226 1.4152-5.7174 2.5731-1.5814 6.1754-1.8247 9.1344-2.3113 6.69-1.2165 13.3799-2.1897 20.0699-3.4061 6.5613-1.2165 12.994-2.6763 19.1693-4.9876 5.9185-2.068 11.7075-5.7174 18.0115-6.5689 3.216-.4866 6.433.1216 9.134 1.9463 2.445 1.7031 4.117 4.3793 3.217 7.2989.772-.2433 1.415-.4866 2.187-.8516-6.69-3.0411-11.193-9.7317-11.322-16.7873 0-8.1504 5.79-15.8141 10.936-22.0182 5.017-6.0823 10.935-11.5564 17.368-16.3007 1.544-1.09482 3.088-2.18964 4.76-3.16282 1.673-1.09483 3.86-2.91953 5.918-3.16283 3.731-.48659 5.146 6.69065 5.918 9.00195 2.445 8.272 3.345 17.0306 2.702 25.5459-.386 4.6226-1.415 9.0019-2.444 13.3812-.515 2.068-.901 4.0143-1.158 6.0824-.258 2.3113.128 4.2576.386 6.5689.772 7.2988.514 14.5977-.772 21.7749-.772 4.136-1.93 6.3087-2.573 10.4447-.258 1.9463.257 3.5282 1.544 5.1092 1.157 1.338 2.573 2.311 3.859 3.649 1.029 1.095 1.801 2.312 2.445 3.65 2.701 5.717 2.058 12.529 1.286 18.49-.386 3.406-1.029 6.812-1.544 10.219-.514 3.406-.772 6.812-1.415 10.218-1.286 6.812-3.988 13.016-6.947 19.22-1.93 4.136-3.86 8.272-5.79 12.408-.772 1.582-1.415 3.285-2.573 4.501-.514.608-1.158.852-1.801 1.338h-.128c-.386-.121-.515 0-.258.244-.128.243.258.121.129.243 0 0 .257-1.338.386-1.703.386-.973.772-2.068 1.029-3.041.901-2.92 1.415-6.083 1.029-9.124-.386-4.014-2.058-7.664-2.83-11.556-.772-4.015-1.673-7.907-3.345-11.8-1.544-3.528-3.602-6.204-7.076-8.394-3.474-2.068-7.076-3.893-10.421-5.961-3.86-2.432-7.719-4.987-11.321-7.663-1.673-1.217-3.474-2.555-5.147-3.893-1.543-1.217-3.345-2.555-4.374-4.258-1.158-2.068-.386-4.257 0-6.325.258-1.338.386-2.555.515-3.893.129-2.798-.129-5.596-.515-8.272-.9-5.8392-2.701-9.8366-5.146-15.3107-1.672-3.7711-3.8595-8.1504-7.2045-10.8266-1.1578-.8515-2.573-1.4598-4.1169-1.2165z" stroke="#ff6b7f"/><path d="m89.3031 136.855c.9006-1.582 2.1871-2.555 3.9882-3.285 2.3158-.973 4.7602-1.703 7.2047-2.311 2.058-.487 5.146-1.703 6.947-.243 1.673 1.459 3.088 3.527 4.246 5.352.257.487.643.973.9 1.46.129.243.772 1.095.772 1.338-.128.608-2.058 1.217-2.573 1.095-1.158-.243-1.93-2.19-2.573-3.041-2.444-2.677-6.947-1.217-7.076 2.433-.128 2.068 1.544 3.771 3.345 4.501 2.445.973 5.018.365 7.333-.365-.514-.244-1.029-.365-1.672-.609.772 1.46-1.158 3.042-2.444 3.771-1.673.974-3.603 1.46-5.533 1.704-1.929.243-3.9878 0-5.789-.365-1.6725-.365-3.7309-.852-4.6315-2.433-.386.73-.7719 1.338-1.2865 2.068 2.4444.121 4.7601-.974 6.304-2.798 1.4152-1.703 2.4444-4.501.7719-6.326-1.5438-1.581-4.2456-1.703-6.0467-.365-2.3158 1.703-2.5731 4.623-2.4444 7.177.6432-.486 1.1579-.851 1.8011-1.338-1.1579-.243-2.1871-.851-3.0877-1.46-.2573-.121-.9005-.608-1.0292-.851.1287.365.1287-.243.2573-.487.2573-1.581 1.5439-3.041 2.3158-4.622.7719-1.582-1.6725-2.92-2.4444-1.338-1.0293 2.068-3.0877 4.257-2.959 6.69 0 1.338 1.0292 2.068 2.0584 2.798 1.2865.973 2.7017 1.703 4.2456 2.068.9005.243 1.8011-.365 1.8011-1.338 0-1.338-.1287-2.92.6433-4.258.5146-.73 2.1871-1.946 2.8303-.73.5147.974-.6432 2.555-1.4151 3.163-1.0293.852-2.3158 1.338-3.6023 1.217-1.1579 0-1.8012 1.216-1.2866 2.068 1.2866 2.189 3.8596 3.163 6.304 3.649 2.8304.608 5.6606.73 8.3626.243 4.117-.729 11.45-4.257 8.62-9.245-.258-.486-1.03-.851-1.673-.608-2.058.608-5.017 1.581-6.69-.365-.514-.608-.643-1.703.258-2.19.643-.364 1.157.244 1.543.73 1.03 1.217 1.673 2.555 3.088 3.285 1.801.851 3.86 0 5.403-.973 1.802-1.217 1.673-2.798.772-4.501-1.157-2.068-2.444-4.015-3.988-5.839-1.286-1.582-2.702-3.285-5.017-3.65-2.316-.365-5.018.487-7.3336 1.095-4.5028 1.216-9.9063 2.555-12.3507 6.812-.5146 1.46 1.9298 2.798 2.8304 1.217z" fill="#ff6b7f"/><g stroke="#ff6b7f"><path d="m89.3031 136.855c.9006-1.582 2.1871-2.555 3.9882-3.285 2.3158-.973 4.7602-1.703 7.2047-2.311 2.058-.487 5.146-1.703 6.947-.243 1.673 1.459 3.088 3.527 4.246 5.352.257.487.643.973.9 1.46.129.243.772 1.095.772 1.338-.128.608-2.058 1.217-2.573 1.095-1.158-.243-1.93-2.19-2.573-3.041-2.444-2.677-6.947-1.217-7.076 2.433-.128 2.068 1.544 3.771 3.345 4.501 2.445.973 5.018.365 7.333-.365-.514-.244-1.029-.365-1.672-.609.772 1.46-1.158 3.042-2.444 3.771-1.673.974-3.603 1.46-5.533 1.704-1.929.243-3.9878 0-5.789-.365-1.6725-.365-3.7309-.852-4.6315-2.433-.386.73-.7719 1.338-1.2865 2.068 2.4444.121 4.7601-.974 6.304-2.798 1.4152-1.703 2.4444-4.501.7719-6.326-1.5438-1.581-4.2456-1.703-6.0467-.365-2.3158 1.703-2.5731 4.623-2.4444 7.177.6432-.486 1.1579-.851 1.8011-1.338-1.1579-.243-2.1871-.851-3.0877-1.46-.2573-.121-.9005-.608-1.0292-.851.1287.365.1287-.243.2573-.487.2573-1.581 1.5439-3.041 2.3158-4.622zm0 0c.7719-1.582-1.6725-2.92-2.4444-1.338-1.0293 2.068-3.0877 4.257-2.959 6.69 0 1.338 1.0292 2.068 2.0584 2.798 1.2865.973 2.7017 1.703 4.2456 2.068.9005.243 1.8011-.365 1.8011-1.338 0-1.338-.1287-2.92.6433-4.258.5146-.73 2.1871-1.946 2.8303-.73.5147.974-.6432 2.555-1.4151 3.163-1.0293.852-2.3158 1.338-3.6023 1.217-1.1579 0-1.8012 1.216-1.2866 2.068 1.2866 2.189 3.8596 3.163 6.304 3.649 2.8304.608 5.6606.73 8.3626.243 4.117-.729 11.45-4.257 8.62-9.245-.258-.486-1.03-.851-1.673-.608-2.058.608-5.017 1.581-6.69-.365-.514-.608-.643-1.703.258-2.19.643-.364 1.157.244 1.543.73 1.03 1.217 1.673 2.555 3.088 3.285 1.801.851 3.86 0 5.403-.973 1.802-1.217 1.673-2.798.772-4.501-1.157-2.068-2.444-4.015-3.988-5.839-1.286-1.582-2.702-3.285-5.017-3.65-2.316-.365-5.018.487-7.3336 1.095-4.5028 1.216-9.9063 2.555-12.3507 6.812-.5146 1.46 1.9298 2.798 2.8304 1.217z"/><path d="m47.7481 125.542c-.386 1.216-.6433 2.676.1286 3.892.386.608 1.0293 1.095 1.8012 1.217.9006.243 1.6725 0 2.4444-.609.5146-.364.7719-.851 1.1579-1.338.3859-.608.6432-1.216.6432-1.946.1287-1.338-.6432-2.676-2.0584-3.163-1.5438-.486-3.4736.73-3.4736 2.311 0 .73.6432 1.46 1.4151 1.339.772 0 1.5439-.609 1.4152-1.339v-.121.365c0-.122 0-.122.1287-.244 0 .122-.1287.244-.1287.365 0-.121.1287-.121.1287-.121-.1287.121-.1287.243-.2573.243.1286-.122.1286-.122.2573-.243-.1287.121-.2573.121-.2573.243.1286-.122.1286-.122.2573-.122-.1287 0-.2573.122-.386.122.1287 0 .2573-.122.386-.122-.1287 0-.2573 0-.386 0h.2573c-.1286 0-.2573 0-.3859 0 .1286 0 .1286 0 .2573.122-.1287 0-.2573-.122-.386-.122.1287 0 .2573.122.2573.122-.1286-.122-.2573-.122-.2573-.243.1287.121.2573.121.2573.243-.1286-.122-.1286-.243-.2573-.243.1287.121.1287.243.2573.365 0-.122-.1286-.244-.1286-.365.1286.121.1286.365.1286.486 0-.121 0-.243 0-.365v.487c0-.122 0-.243 0-.365 0 .243-.1286.487-.2573.73 0-.122.1287-.243.1287-.365-.1287.365-.386.73-.6433 1.095.1287-.122.1287-.243.2573-.243-.1286.243-.386.364-.5146.486.1286-.122.2573-.122.2573-.243-.1286.121-.1287.121-.2573.121.1286 0 .2573-.121.386-.121-.1287 0-.2574.121-.2574.121h.386c-.1286 0-.2573 0-.2573 0h.386c-.1287 0-.2573 0-.2573-.121.1286 0 .2573.121.3859.121-.1286 0-.2573-.121-.3859-.121.1286.121.2573.121.2573.243-.1287-.122-.2573-.243-.386-.365.1287.122.1287.243.2573.243-.1286-.121-.1286-.243-.2573-.364 0 .121.1287.243.1287.364 0-.121-.1287-.243-.1287-.486v.365c0-.243 0-.608 0-.852v.365c0-.365.1287-.73.2573-1.216.2573-.73-.2573-1.582-1.0292-1.703-.6433 0-1.4152.365-1.6725 1.095z" fill="#ff6b7f"/><path d="m133.946 111.795c-.643.244-1.158.852-1.415 1.339-.129.243-.258.486-.258.729 0 .244.129.487.258.73.386.487.772.852 1.286 1.095.515.243 1.029.365 1.673.487 1.158 0 2.187-.609 2.83-1.46.643-.852.643-2.068 0-2.92-.386-.486-.901-.973-1.544-1.094-.514-.122-1.158-.122-1.672 0-.515.243-1.03.486-1.416.973-.385.365-.643.73-.9 1.216-.129.365-.257.73-.129 1.095.129.365.386.608.644.852.643.365 1.543.121 1.929-.487.129-.243.386-.487.515-.73-.129.122-.129.243-.257.243.128-.121.257-.365.514-.486-.128.121-.257.121-.257.243.129-.122.257-.122.386-.243-.129 0-.257.121-.386.121.129 0 .257-.121.386-.121-.129 0-.257 0-.386 0h.257c-.128 0-.257 0-.386 0 .129 0 .258 0 .386.121-.128 0-.257-.121-.386-.121.129 0 .258.121.258.121-.129-.121-.258-.121-.258-.243.129.122.258.122.258.243-.129-.121-.129-.243-.258-.243.129.122.129.243.258.365 0-.122-.129-.243-.129-.365 0 .122.129.243.129.365 0-.122 0-.243 0-.365v.365c0-.122 0-.243 0-.365 0 .122 0 .243-.129.365 0-.122.129-.243.129-.365 0 .122-.129.243-.258.365.129-.122.129-.243.258-.243-.129.121-.258.243-.386.365.128-.122.257-.122.257-.244-.129.122-.257.122-.386.244.129 0 .257-.122.386-.122-.129.122-.257.122-.515.122h.386c-.128 0-.386 0-.514 0h.386c-.129 0-.386-.122-.515-.122.129 0 .257.122.386.122-.129-.122-.386-.122-.515-.244.129.122.258.122.258.244-.129-.122-.258-.244-.386-.365.128.121.128.243.257.243 0 0 0 0-.129-.122v1.339c.129-.122.129-.244.258-.365-.129.121-.129.243-.258.243.129-.122.258-.243.386-.365-.128.122-.257.122-.257.243.129-.121.129-.121.257-.121.644-.365.901-1.217.515-1.825-.257-.973-1.158-1.217-1.801-.852z" fill="#ff6b7f"/><path d="m78.3447 199.042c5.9949 5.26 15.6388 4.771 20.8518-1.345 2.7365-3.303 3.5185-7.095 2.9975-11.254-.521-4.77-1.303-9.418-1.043-14.311.131-2.324.522-4.77 1.043-7.095.13-.733.261-2.813 1.433-2.568.913.244 1.955 1.712 2.477 2.324 2.476 3.058 4.17 6.36 7.949 8.195 1.825.856 3.78 1.468 5.474 2.447 1.824.978 2.997 2.446 4.04 4.036 1.825 2.936 2.997 6.361 5.213 9.052 2.737 3.303 7.168 4.893 11.468 4.036 4.301-.856 7.559-4.281 8.471-8.195.391-1.712-1.541-3.211-1.932-1.499-2.31 4.557-5.235 7.37-9.406 7.126-4.04-.123-6.516-2.814-8.21-5.994-1.564-2.936-2.737-5.994-4.952-8.44-2.607-2.936-6.386-3.547-9.644-5.504-3.258-1.835-4.692-5.382-7.168-8.074-1.043-1.1-2.476-2.446-4.17-2.568-1.955-.245-3.128 1.223-3.6496 2.813-1.3032 4.159-1.6942 8.807-1.6942 13.088 0 4.404 1.173 8.685 1.3033 13.089 0 4.281-2.2155 8.195-6.3859 10.152-4.1703 1.957-13.0365-.033-15.9905-4.177-1.173-.856.091 3.443 1.5246 4.666z" fill="#ff6b7f"/><path d="m125.712 106.078c5.017-5.474 12.351-8.8803 20.07-9.0019 1.801 0 1.93-2.7979 0-2.6762-8.491.1216-16.596 3.771-22.128 9.8531-1.158 1.217.9 3.163 2.058 1.825z" fill="#ff6b7f"/><path d="m54.0521 112.16c.386 0 .9006-.121 1.2865-.121h.7719.2573.1287c.386.121.9006.121 1.2865.243.2573 0 .386.122.6433.243.1287 0 .2573.122.386.122.2573.122-.2573-.122.1286 0 .386.122.7719.365 1.1579.608.1286.122.386.243.5146.365.1287.122.2573.122.2573.243-.1286-.121 0 0 0 0 .386.244.6433.609 1.0292.852.1287.122.2573.365.386.487-.1287-.122 0 0 0 0 .1286.121.1286.243.2573.364.386.609 1.2865.852 1.9298.487s.9006-1.216.5146-1.825c-2.3157-3.284-6.69-5.352-10.9355-4.866-.7719.122-1.4152.609-1.4152 1.339-.1286.729.6433 1.581 1.4152 1.459z" fill="#ff6b7f"/><path d="m154.53 64.8395c.644-2.068 1.158-4.3793 0-6.3256-.9-1.7031-2.83-2.7979-4.889-2.3113-.9.2433-1.801.7299-2.573 1.2165-.386.2432-.9.6082-1.286.8515-.257.1216-.515.2433-.772.3649.257.365.515.365.386.1217.386-.6083-.129-2.433-.386-3.0412-.386-.9732-.901-1.9464-1.673-2.6763-.9-.9731-2.315-.1216-2.444.9732 0 .1217-1.029-.4866-1.286-.7299-.386-.3649-.644-.7298-1.03-1.0948-.772-.9732-1.672-2.068-2.187-3.1628-1.415-2.6763-.514-4.8659 1.029-7.1772 3.088-4.8659 6.433-9.7318 9.649-14.5977 1.03-1.4597-1.543-2.9195-2.444-1.3381-2.444 3.6494-4.76 7.1772-7.205 10.8266-1.929 2.9196-4.631 6.0824-4.631 9.7318.129 3.2845 2.444 6.3257 4.631 8.637 1.03.9731 2.316 1.8247 3.86 1.5814 1.415-.2433 2.316-1.3382 2.444-2.6763-.771.365-1.672.6083-2.444.9732.643.7299 1.158 1.7031 1.287 2.6762.128.8516-.258 1.5815.128 2.433.643 1.5814 2.316 1.5814 3.602.9732 1.287-.4866 2.831-2.3113 4.375-2.1897 2.573.1217 1.544 4.0144 1.158 5.3525-.515 1.5814 2.187 2.3113 2.701.6082z" fill="#ff6b7f"/><path d="m24.2046 54.4995c4.2455 2.3113 7.5905 5.5958 9.7776 9.8535.1287-.6083.386-1.2165.5146-1.8248-.9005.4866-2.4444-.2432-3.6023 0-1.0292.2433-1.9298.9732-2.0584 2.068-.386 2.3113 2.1871 4.2577 4.2456 4.9876.1286-.8515.2573-1.8247.3859-2.6763-3.4736.1217-5.7894 3.7711-3.6023 6.569.1287.2433.6433.4866.7719.7299.1287.2433 0 .4866 0 .8515-.1286.9732.2573 1.7031.5147 2.6763.5146 1.703-.5147 3.2844-2.1871 3.8927-1.6725.7299-.2574 3.0412 1.4151 2.3113 2.5731-1.0949 4.2456-3.8927 3.6023-6.569-.2573-.8515-.5146-1.4597-.3859-2.3113.1286-.6082.1286-1.2165-.1287-1.8247-.3859-.7299-1.2865-1.0948-1.5438-1.8247-.2573-.9732.5146-1.7031 1.4152-1.8247 1.6725-.1217 1.9298-2.1897.3859-2.6763-.5146-.2432-1.0292-.4865-1.4152-.9731-.5146-.4866-.9005-.8516 0-.8516 1.2866 0 2.1871.365 3.6023-.2433.7719-.3649.9006-1.2164.5146-1.8247-2.3157-4.5009-6.1753-8.272-10.8068-10.8266-1.5439-.8515-3.0877 1.4598-1.4152 2.3113z" fill="#ff6b7f"/><path d="m194.391 31.7231c1.299 15.2935.259 30.3156.988 45.522" stroke-linecap="round" stroke-linejoin="round" stroke-width="4"/><path d="m194.541 53.5349c4.924-.2468 8.583-1.7768 13.144-2.9978" stroke-linecap="round" stroke-linejoin="round" stroke-width="4"/><path d="m207.429 29.6202c.441 14.1351 2.083 28.0936 3.215 42.151" stroke-linecap="round" stroke-linejoin="round" stroke-width="4"/><path d="m218.759 57.2856c.151 4.2869-.951 13.2176 1.688 16.5444" stroke-linecap="round" stroke-linejoin="round" stroke-width="4"/><path d="m218.233 46.3265c2.555 3.93 3.765.442 0 0" stroke-linecap="round" stroke-linejoin="round" stroke-width="4"/><path d="m235.838 21.1494c.728 12.2132 1.831 24.208 1.151 36.4599" stroke-linecap="round" stroke-linejoin="round" stroke-width="4"/><path d="m239.422 67.8843c-.778 1.4222-1.555 2.8444-2.333 4.2666" stroke-linecap="round" stroke-linejoin="round" stroke-width="4"/><path d="m280.194 24.5396c-1.361 11.4588-2.673 22.8941-3.377 34.415-.198 3.2499-1.171 7.2196.868 9.7884" stroke-linecap="round" stroke-linejoin="round" stroke-width="4"/><path d="m288.083 42.7199c-.532 4.4784-1.064 8.9567-1.596 13.4351" stroke-linecap="round" stroke-linejoin="round" stroke-width="4"/><path d="m298.255 49.3627c-1.107 4.6712-1.839 9.2986-2.579 14.0253-.017.1066.275-5.0156.78-6.5679.716-2.2025 2.406-6.6248 5.037-7.38 1.106-.3173.324 8.3877.232 9.1588-.613 5.1663 6.171-5.5031 8.064-6.3688 7.804-3.568 4.399 9.6931 3.086 12.4705" stroke-linecap="round" stroke-linejoin="round" stroke-width="4"/><path d="m193.457 89.7016c-4.174-.9978-10.418 1.8729-5.049 5.7642 6.408 4.6442 13.778 8.6782 16.816 16.5042 2.066 5.323 2.242 12.056-4.784 12.505-4.047.258-13.552.195-16.218-3.165" stroke-linecap="round" stroke-linejoin="round" stroke-width="4"/><path d="m215.822 85.9701c-.547 5.3185-.699 10.3169.07 15.6479.599 4.146.996 15.546 5.531 17.954 3.497 1.857 7.196-4.062 8.538-6.515" stroke-linecap="round" stroke-linejoin="round" stroke-width="4"/><path d="m210.886 104.461c4.414-.909 8.823-1.728 13.144-2.998" stroke-linecap="round" stroke-linejoin="round" stroke-width="4"/><path d="m238.813 107.739c1.777-1.701 9.269-7.029 4.833-9.9263-2.741-1.7894-7.136 1.8264-8.211 4.1823-1.839 4.034.473 12.312 4.296 14.681 5.976 3.703 13.528-3.879 17.206-7.717" stroke-linecap="round" stroke-linejoin="round" stroke-width="4"/><path d="m261.498 101.321c.844 1.951 5.167 17.48 7.53 16.927 1.296-.303 2.126-3.995 2.566-4.945 2.27-4.898 5.064-9.657 7.552-14.4512" stroke-linecap="round" stroke-linejoin="round" stroke-width="4"/><path d="m287.091 108.866c3.563-2.19 8.612-5.841 7.277-10.8509-1.191-4.471-8.814 3.4089-9.538 4.6819-2.18 3.834-1.214 10.607 2.435 13.252 5.211 3.777 11.47-1.827 15.141-5.286" stroke-linecap="round" stroke-linejoin="round" stroke-width="4"/><path d="m305.009 96.4388c.036 4.2092-.054 8.4542.324 12.6512.103 1.138-.12 4.344.511 3.389.58-.878.465-3.002.885-4.033 1.337-3.28 3.678-6.508 5.963-9.1882 8.13-9.5381 10.9 11.0352 7.732 13.5202" stroke-linecap="round" stroke-linejoin="round" stroke-width="4"/><path d="m97.4983 196.79c2.1235 6.666 8.2187 11.398 14.9617 12.971 2.521.588 5.834 1.615 8.411 1.087 2.778-.568 4.794-1.178 7.152-2.8 3.598-2.477 4.053-8.494 4.185-12.428.078-2.335-.492-3.236-.985-5.683" stroke-linecap="round" stroke-linejoin="round" stroke-width="4"/><path d="m102.422 162.526c3.886 8.959 7.078 18.162 10.421 27.329.14.385 1.157 3.744 1.395 3.508" stroke-linecap="round" stroke-linejoin="round" stroke-width="4"/><path d="m93.9209 215.231c-1.5381 2.2-6.3401 10.866-1.4719 11.966 2.7049.61 4.0475-2.514 4.8017-4.688.4868-1.404-.949-3.129-1.4092-4.39-.5366-1.471-.7589-3.002-1.5934-4.32" stroke-linecap="round" stroke-linejoin="round" stroke-width="4"/></g></svg>