<svg width="234" height="141" viewBox="0 0 234 141" fill="none" xmlns="http://www.w3.org/2000/svg">
<path d="M14.8763 119.185C17.1696 114.065 19.4629 108.891 21.7562 103.77C22.9028 101.263 24.0495 98.7027 25.1388 96.1957C26.1708 93.7954 27.1455 91.3418 27.7188 88.7815C29.8974 78.5935 25.6548 68.5123 26.6295 58.271C26.8588 55.9241 27.3748 53.5238 28.3494 51.3369C28.8081 50.2167 29.4388 49.2033 30.1841 48.1898C30.7001 47.4431 31.6174 46.0562 32.7067 46.1096C32.2481 45.6828 31.8467 45.3095 31.4454 44.9361C30.9867 58.4311 26.9161 71.766 19.7495 83.5008C17.7429 86.8079 15.4496 89.9549 12.9843 92.942C13.7869 93.1553 14.5896 93.3687 15.3923 93.5287C15.2203 91.5018 15.0483 89.4749 14.8189 87.448C14.7043 85.9011 14.5323 84.3009 13.7869 82.8607C13.0416 81.3672 11.6083 80.4604 9.83098 80.1937C8.28299 79.9804 6.56301 80.2471 5.18703 79.3936C2.89372 77.9001 2.66439 74.6464 2.66439 72.2994C2.66439 68.779 3.35238 65.3119 4.4417 61.9515C6.67768 55.0707 10.691 48.8299 14.8189 42.8025C16.4816 40.3488 18.6029 36.9351 22.1575 36.8818C22.9028 36.8818 23.5908 36.9884 24.1642 37.3618C24.9095 37.7885 25.4828 38.4286 26.2855 38.7487C28.1774 39.4954 30.0121 38.5886 31.5027 37.5218C34.484 35.3882 37.5227 33.468 40.9053 32.0278C44.2306 30.5877 47.7852 29.5209 51.3972 28.8808C55.1238 28.2407 58.8504 28.134 62.5771 28.134C66.361 28.134 70.317 28.0807 73.9289 26.8539C75.7636 26.2138 77.3116 25.2537 79.0889 24.4536C80.7515 23.7068 82.6435 23.6001 84.4782 23.9202C86.3701 24.2402 88.2621 24.8269 90.0394 25.4137C91.8168 26.0004 93.4794 26.6938 95.1421 27.4939C98.1234 28.9875 100.646 31.0677 102.538 33.7347C104.258 36.1883 105.29 38.962 105.921 41.8424C106.494 44.7761 106.551 47.8164 106.207 50.8035C105.806 54.2172 104.659 57.471 103.742 60.778C102.71 64.3518 101.965 68.0856 102.767 71.8194C103.398 74.8598 105.061 77.7401 107.297 79.9804C108.443 81.1005 109.762 82.0606 111.195 82.8607C112.629 83.6608 113.947 81.5806 112.514 80.7805C109.705 79.2336 107.469 76.8333 106.207 74.0597C104.717 70.8059 104.889 67.2322 105.691 63.8184C106.494 60.298 107.87 56.8309 108.501 53.2571C109.074 50.1634 109.246 46.963 108.902 43.8693C108.214 37.7352 105.577 31.7078 100.302 27.7606C97.206 25.467 93.6514 23.9735 89.9248 22.8C86.0262 21.5732 81.8982 20.6131 77.9996 22.32C76.2796 23.0667 74.7316 24.1335 72.897 24.6669C71.1196 25.2003 69.285 25.467 67.4504 25.5737C63.5517 25.8404 59.5958 25.5737 55.6971 25.8937C48.0719 26.5872 40.676 28.9341 34.312 32.7746C32.7641 33.7347 31.3307 34.8015 29.8401 35.815C29.2668 36.2417 28.3494 36.8818 27.6041 36.7217C26.8588 36.6151 26.2855 35.8683 25.6548 35.4949C22.4442 33.468 18.3162 35.0682 15.9082 37.4152C14.5896 38.7487 13.5576 40.2955 12.5256 41.789C11.4936 43.3359 10.4616 44.8294 9.42965 46.4296C7.423 49.63 5.53102 52.8837 3.98304 56.2975C2.49239 59.5512 1.2884 63.0183 0.600411 66.5387C0.0270834 69.8458 -0.374246 73.4196 0.543078 76.6733C0.944407 78.0601 1.57507 79.3936 2.54972 80.4604C3.63904 81.6339 5.12969 82.274 6.79234 82.434C8.22566 82.594 10.1176 82.274 11.0923 83.5008C11.9523 84.621 12.0096 86.1678 12.1243 87.5013C12.2963 89.5282 12.4683 91.5551 12.6976 93.582C12.8123 94.8089 14.3029 95.1289 15.1056 94.1688C24.1642 83.2341 30.2414 70.1658 32.7067 56.5108C33.3947 52.6704 33.7961 48.7766 33.968 44.8827C33.968 44.1893 33.3374 43.7093 32.7067 43.7093C30.1268 43.6026 28.3494 46.2696 27.2028 48.0831C25.9988 50.0567 25.1961 52.1903 24.6801 54.3772C23.6482 59.0178 23.8202 63.7117 24.4508 68.4056C25.1388 73.953 26.2281 79.5003 25.7695 85.101C25.3108 90.595 22.6735 95.609 20.4375 100.623C17.8002 106.597 15.1056 112.518 12.4683 118.492C12.1816 119.079 12.7549 119.825 13.3856 119.985C14.0163 120.199 14.5896 119.772 14.8763 119.185Z" fill="#41B1F1"/>
<path d="M38.2682 62.7518C38.7842 61.5783 39.3002 60.4582 40.1029 59.4447C40.7335 58.6446 41.7082 57.8979 42.7975 57.6312C43.3135 57.5245 43.8295 57.4711 44.3455 57.6312C44.4602 57.6845 44.7468 57.7378 44.7468 57.7378C44.6895 57.7378 44.9761 57.8979 44.9761 57.8445C44.9188 57.8445 45.1481 58.0045 45.1481 58.0045C45.0908 57.8979 45.2055 58.1646 45.2055 58.2179C45.3201 58.5913 45.3201 59.2314 45.2628 59.7114C45.2628 59.8181 45.2628 59.9781 45.2055 60.0848C45.2055 59.9248 45.2055 60.1915 45.1481 60.2448C45.1481 60.3515 45.0908 60.4582 45.0335 60.5649C45.0908 60.4048 44.9761 60.6715 44.9188 60.7249C44.8042 60.8849 45.0335 60.6182 44.9188 60.7249C44.9188 60.7249 44.7468 60.8849 44.8041 60.8316C44.9188 60.7782 44.5175 60.9382 44.6322 60.9382C44.2882 61.0983 44.0588 61.0449 43.7148 61.0983C42.8548 61.1516 41.9948 61.1516 41.1922 61.0449C40.5042 60.9382 39.8162 61.2049 39.5869 61.8983C39.4149 62.4851 39.8162 63.2852 40.5042 63.3919C41.5362 63.5519 42.5682 63.6052 43.6002 63.5519C44.6322 63.4985 45.6641 63.3385 46.4668 62.6984C47.7281 61.685 47.7854 60.0315 47.6708 58.5913C47.6135 57.6312 47.3268 56.7244 46.5241 56.1376C45.7215 55.5509 44.8042 55.2842 43.7722 55.2309C41.8802 55.1242 40.0455 55.9776 38.7269 57.1511C37.2362 58.5379 36.3762 60.4048 35.6309 62.165C35.4016 62.7518 35.9176 63.4985 36.5482 63.6586C37.4082 63.8186 38.0389 63.3919 38.2682 62.7518Z" fill="#41B1F1"/>
<path d="M81.5545 54.004C81.0385 54.3774 80.4652 54.6441 79.8918 54.6974C79.2612 54.7508 78.6878 54.6441 78.2865 54.4841C78.1145 54.4307 77.9999 54.3241 77.8852 54.2707C77.8279 54.2174 77.7132 54.164 77.6558 54.1107C77.6558 54.1107 77.7705 54.164 77.6558 54.1107C77.5412 54.004 77.4265 53.8973 77.3119 53.7907C77.1399 53.6306 77.1399 53.6306 77.0825 53.524C77.0252 53.4173 76.9105 53.2573 76.8532 53.1506C76.7959 53.0439 76.8532 53.1506 76.8532 53.1506C76.7959 53.0972 76.7959 52.9906 76.7959 52.9372C76.7385 52.8305 76.7385 52.7239 76.6812 52.5638C76.6239 52.2971 76.6812 52.4572 76.6812 52.5105C76.6812 52.4572 76.6812 52.3505 76.6812 52.2971C76.6812 52.2438 76.6812 51.9238 76.6812 51.9771C76.6812 52.1371 76.6812 51.8704 76.7385 51.8704C76.7385 51.8171 76.7959 51.7637 76.7959 51.7104C76.7959 51.6571 76.9105 51.497 76.7959 51.6571C76.7959 51.6037 76.8532 51.5504 76.9105 51.497C76.9679 51.4437 76.9679 51.3904 77.0252 51.337C76.9105 51.497 77.0825 51.2837 77.0825 51.2837C77.2545 51.177 76.9679 51.337 77.1399 51.2303C77.1972 51.177 77.2545 51.177 77.3119 51.1237C77.4265 51.017 77.3692 51.0703 77.5985 51.017C77.9425 50.9103 78.0572 50.9103 78.4585 50.9103C79.8345 50.9637 81.1532 51.6037 82.3571 52.2971C82.7011 52.5105 83.1025 52.7239 83.4465 52.9372C83.5038 52.9906 83.5611 52.9906 83.6185 53.0439C83.9625 53.2573 83.5611 52.9906 83.7331 53.1506C83.7905 53.2039 83.8478 53.2573 83.9051 53.3106C83.8478 53.2039 83.8478 53.2573 83.8478 53.3106C83.8478 53.4173 83.8478 53.3639 83.8478 53.3106C83.8478 53.4173 83.8478 53.5773 83.8478 53.684C83.8478 53.8973 83.8478 54.1107 83.8478 54.3774C83.8478 54.8041 83.7905 55.2308 83.7331 55.6576C83.6185 56.2976 83.9051 56.9377 84.6504 57.1511C85.2811 57.3111 86.1411 56.9377 86.2558 56.2976C86.4278 55.2308 86.5424 54.1107 86.3704 52.9906C86.1984 51.8171 85.3958 51.2304 84.3638 50.6436C82.5865 49.5768 80.6945 48.6167 78.5732 48.51C76.5665 48.4033 74.5599 49.4168 74.1586 51.3904C73.8146 53.2573 74.7319 55.0175 76.3372 56.1376C78.2292 57.4178 80.9811 57.4178 82.8731 56.0843C83.4465 55.7109 83.7331 55.0708 83.3318 54.4307C82.9878 53.8973 82.1278 53.5773 81.5545 54.004Z" fill="#41B1F1"/>
<path d="M81.7838 33.8415C81.7264 33.8415 81.7264 33.8415 81.6691 33.8415C81.9557 33.9482 82.2997 34.0549 82.5864 34.2149L82.5291 34.1615C82.6437 34.3216 82.7584 34.5349 82.8731 34.6949C82.8731 34.855 82.8157 35.015 82.8157 35.175C82.6437 35.335 82.5291 35.4417 82.3571 35.6017C82.4144 35.6017 82.4144 35.5484 82.4717 35.5484C82.2424 35.6017 82.0131 35.6551 81.8411 35.7084L81.7838 35.6551C81.8984 35.7617 82.0131 35.8151 82.1277 35.9218C82.2424 36.0284 82.3571 36.0818 82.4144 36.1885C82.6437 36.4018 82.9304 36.6152 83.1597 36.8819C83.6757 37.3619 84.1917 37.842 84.6504 38.3754C85.5677 39.3355 86.3704 40.4023 87.1157 41.4691C88.6063 43.656 89.753 45.9496 90.613 48.4033C92.333 53.3639 92.7916 58.7512 91.817 63.9252C91.2436 66.9122 90.097 69.7392 89.237 72.6729C88.7783 74.2731 88.377 75.8733 88.205 77.5269C88.033 79.2871 88.2623 80.9939 88.6063 82.7542C89.237 86.1679 90.2117 89.475 90.5556 92.8887C90.7276 94.5956 90.785 96.3025 90.785 98.0094C90.785 99.1828 90.785 100.73 89.6957 101.583C88.721 102.33 87.345 102.223 86.1984 101.85C84.8797 101.476 83.8477 100.57 83.0451 99.5562C81.0384 97.1559 80.3504 93.9555 79.6624 91.0218C79.3184 89.5283 76.8531 90.1684 77.1971 91.6619C77.8851 94.7023 78.6878 97.8493 80.5798 100.41C82.3571 102.81 85.2237 104.784 88.4917 104.41C90.1543 104.25 91.645 103.45 92.505 102.063C93.4223 100.516 93.4223 98.6495 93.365 96.9426C93.3076 92.9954 92.7343 89.1016 91.817 85.2611C91.3583 83.4476 90.8997 81.5807 90.785 79.7138C90.6703 77.8469 90.957 76.0333 91.4156 74.2198C92.333 70.8594 93.709 67.659 94.3396 64.2452C95.3716 58.2712 94.8556 52.0304 92.5623 46.3764C91.301 43.176 89.5237 40.1889 87.2304 37.5219C86.141 36.2418 84.8797 34.9616 83.5611 33.9482C82.7011 33.2548 81.2104 32.8814 80.5224 34.0549C79.9491 35.0683 80.6371 36.1885 81.8411 36.2951C82.5291 36.3485 83.1024 35.7084 83.1024 35.1217C83.1024 34.3216 82.5291 33.8948 81.7838 33.8415Z" fill="#41B1F1"/>
<path d="M76.3372 90.7018C72.668 97.1026 68.368 103.77 61.6027 107.611C60.7428 108.091 59.8828 108.571 58.9654 108.891C57.9335 109.264 57.0735 109.371 56.0988 108.891C53.9775 107.877 51.8562 106.864 49.8495 105.637C46.5242 103.663 43.7723 100.943 41.4216 98.0094C38.6697 94.5423 36.4337 90.7552 34.1977 87.0214C33.395 85.6879 31.1591 86.8614 31.9617 88.2482C36.0897 95.2357 40.5043 102.543 47.6709 107.237C49.6775 108.571 51.9708 109.531 54.0922 110.651C55.1815 111.238 56.2708 111.771 57.5321 111.718C58.7361 111.664 59.8828 111.184 60.9147 110.704C64.6987 108.944 67.9667 106.277 70.6613 103.29C73.7573 99.823 76.2226 95.9292 78.5159 91.9287C79.3185 90.5952 77.0826 89.3683 76.3372 90.7018Z" fill="#41B1F1"/>
<path d="M78.8599 90.1152C78.0572 89.3684 77.0252 88.835 76.1652 88.1949C75.5919 87.8216 74.9612 87.3948 74.3879 87.0215C74.1013 86.8614 73.8146 86.6481 73.5853 86.4881C73.4706 86.4347 73.3559 86.328 73.2986 86.2747C73.2413 86.2214 72.8973 86.008 73.1266 86.168C71.9226 85.3146 70.604 83.9811 70.2026 82.5943C69.744 81.0474 71.12 79.7672 72.6106 79.3405C74.2733 78.9138 76.7386 79.5539 77.0826 81.3141C77.4839 80.834 77.8852 80.3006 78.3439 79.8206C77.7705 79.8739 78.6879 79.9806 78.5732 80.0339C78.5159 80.0873 78.5732 79.9273 78.5732 79.8739C78.6879 79.7139 78.6879 79.5539 78.8025 79.3939C79.0892 78.9671 79.5479 78.6471 80.0639 78.5404C81.0385 78.2204 82.5865 78.4871 83.1025 79.4472C83.7905 80.6207 82.2998 82.3276 81.6692 83.2877C80.6945 84.7278 79.6052 86.0613 78.4585 87.3415C77.9999 87.8216 77.9425 88.5683 78.4585 89.0484C78.9172 89.4751 79.8345 89.5284 80.2932 89.0484C82.0705 87.1281 83.7905 85.0479 85.0518 82.7543C85.6251 81.6875 86.0838 80.4607 85.7971 79.2338C85.5678 78.167 84.7651 77.3136 83.7905 76.7269C81.7838 75.6067 79.0319 75.8201 77.3119 77.4203C76.5666 78.1137 76.0506 79.0738 76.0506 80.0873C76.0506 81.2074 77.0826 82.3809 78.4012 82.2209C79.2612 82.1142 79.8345 81.5275 79.6625 80.7274C79.1465 78.4337 76.6239 77.0469 74.2733 76.8336C71.8653 76.6202 69.228 77.847 68.0813 79.8739C66.82 82.2209 68.0813 84.5678 69.744 86.3814C70.8333 87.5549 72.0373 88.4083 73.4133 89.3151C74.2159 89.8485 74.9612 90.3285 75.7639 90.8619C76.1079 91.0753 76.3946 91.2887 76.7386 91.502C76.9679 91.662 76.7386 91.502 76.7386 91.502C76.7959 91.5554 76.8532 91.6087 76.9679 91.662C77.0252 91.7154 77.1399 91.7687 77.1972 91.8754C78.1719 92.8888 80.0065 91.182 78.8599 90.1152Z" fill="#41B1F1"/>
<path d="M88.6637 103.717C89.753 105.104 90.1544 106.81 90.3264 108.464C90.5557 110.384 90.613 112.358 90.4984 114.278C90.269 118.172 89.409 122.012 87.9184 125.639C87.6891 126.226 88.2051 126.973 88.8357 127.133C89.581 127.293 90.1544 126.92 90.441 126.28C92.0464 122.332 92.9063 118.225 93.1357 114.011C93.2503 111.984 93.1357 109.904 92.9063 107.931C92.677 106.01 92.2184 104.09 90.957 102.49C90.5557 101.957 89.8104 101.69 89.1797 102.063C88.5491 102.383 88.2624 103.183 88.6637 103.717Z" fill="#41B1F1"/>
<path d="M39.3004 57.2577C38.383 59.7647 40.0457 62.645 42.7403 63.3918C43.371 63.6052 44.1736 63.1784 44.3456 62.5384C44.5176 61.8983 44.1163 61.2582 43.4283 61.0449C43.371 61.0449 43.3137 60.9915 43.2563 60.9915C43.027 60.9382 43.543 61.0982 43.3137 61.0449C43.199 60.9915 43.1417 60.9382 43.027 60.8848C42.9123 60.8315 42.7977 60.7782 42.683 60.6715C42.511 60.5648 42.855 60.8315 42.7403 60.7248C42.683 60.6715 42.683 60.6715 42.6257 60.6181C42.511 60.5115 42.4537 60.4581 42.339 60.3514C42.2817 60.2981 42.2817 60.2981 42.2243 60.2448C42.1097 60.0847 42.2243 60.2448 42.2817 60.2981C42.167 60.0847 41.995 59.9247 41.8803 59.7114C41.8803 59.658 41.823 59.6047 41.823 59.5513C41.7083 59.338 41.9377 59.818 41.8803 59.6047C41.823 59.498 41.823 59.3913 41.7657 59.2846C41.7083 59.178 41.7083 59.0713 41.7083 58.9646C41.7083 58.9113 41.651 58.8579 41.651 58.8046C41.651 58.8579 41.7083 59.1246 41.651 58.9113C41.651 58.6979 41.651 58.4845 41.651 58.2712C41.651 58.1112 41.5937 58.5912 41.651 58.3779C41.651 58.3245 41.651 58.2712 41.7083 58.2178C41.7657 58.1112 41.7657 58.0045 41.823 57.8445C42.0523 57.2577 41.5937 56.511 40.9057 56.3509C40.1604 56.2976 39.5297 56.6176 39.3004 57.2577Z" fill="#41B1F1"/>
<path d="M79.8918 51.2837C80.0065 51.6571 80.1211 52.0305 80.1785 52.4039C80.1785 52.5105 80.1785 52.5105 80.1785 52.2972C80.1785 52.3505 80.1785 52.4039 80.1785 52.4572C80.1785 52.5639 80.1785 52.6172 80.1785 52.7239C80.1785 52.8839 80.1785 53.0439 80.1785 53.2573C80.1785 53.364 80.0638 53.5773 80.1785 53.2573C80.1785 53.364 80.1211 53.4173 80.1211 53.524C80.0638 53.684 80.0065 53.844 79.9491 54.0041C79.8918 54.1107 79.8918 54.1641 79.8345 54.2174C79.7771 54.3241 79.7771 54.3241 79.8918 54.1107C79.8918 54.1641 79.8345 54.2174 79.8345 54.2708C79.7198 54.4841 79.6051 54.6441 79.4905 54.8575C79.1465 55.3909 79.3185 56.191 79.9491 56.511C80.5798 56.8311 81.3824 56.671 81.7264 56.0843C82.2424 55.2309 82.5864 54.3241 82.7011 53.3106C82.8158 52.4039 82.5864 51.4971 82.2998 50.6436C82.1278 50.0569 81.3824 49.5768 80.6944 49.7902C80.1785 50.0036 79.7198 50.6436 79.8918 51.2837Z" fill="#41B1F1"/>
<path d="M81.2679 33.3081C79.7199 33.2015 78.9172 34.695 79.0319 35.9218C79.1466 37.1486 79.7772 38.3221 80.5226 39.3355C81.7839 41.1491 83.3319 42.7493 84.8798 44.3495C87.8038 47.4432 91.0145 50.6969 91.8171 54.8574C91.9318 55.4975 92.7918 55.8709 93.4224 55.7109C94.1677 55.5509 94.4544 54.8575 94.3397 54.2174C93.5944 50.3769 90.9571 47.2298 88.3198 44.2962C87.0012 42.9093 85.6252 41.5225 84.3639 40.0823C83.7332 39.3889 83.1599 38.6421 82.6439 37.8954C82.3572 37.4686 82.0705 37.0419 81.8985 36.6152C81.7839 36.3485 81.6692 36.0285 81.6119 35.7618C81.5546 35.2284 81.7265 35.7084 81.2679 35.6551C81.9559 35.7084 82.5292 35.0684 82.5292 34.4816C82.5865 33.7882 82.0132 33.3615 81.2679 33.3081Z" fill="#41B1F1"/>
<path d="M65.1573 66.9656C62.9787 63.6585 60.7427 60.2981 59.2521 56.7243C57.9334 53.524 56.7294 49.5768 57.7041 46.1097C58.1054 44.6695 59.0227 43.336 60.628 42.9093C62.348 42.4293 63.38 43.3894 64.1827 44.7229C65.1 46.3231 65.3867 48.1366 65.6733 49.8435C65.96 51.7637 66.132 53.684 66.5906 55.5509C67.6226 59.8181 69.5146 63.9252 72.2093 67.499C72.6106 68.0324 73.3559 68.2991 73.9866 67.9257C74.5599 67.6057 74.8466 66.8056 74.4452 66.2722C71.8653 62.8051 70.0306 58.9646 69.056 54.8575C68.0813 50.857 68.4253 46.3231 65.96 42.7493C64.8133 41.0958 63.036 40.0823 60.8574 40.349C58.9081 40.5624 57.1881 41.6825 56.1561 43.2827C53.9201 46.8031 54.8374 51.6571 56.0414 55.2842C57.5894 59.8714 60.284 64.0319 62.9214 68.0857C63.7813 69.4726 66.0173 68.2991 65.1573 66.9656Z" fill="#41B1F1"/>
<path d="M30.1271 110.544C45.2056 116.518 62.2907 119.932 78.3439 115.185C82.6438 113.905 86.8291 112.091 90.6131 109.851C91.9891 108.997 90.7277 106.971 89.2944 107.771C82.7585 111.664 75.2479 114.118 67.508 114.812C59.6534 115.505 51.6842 114.545 44.1162 112.625C39.759 111.504 35.5163 110.118 31.3884 108.517C30.7577 108.251 30.0124 108.357 29.6111 108.944C29.3244 109.424 29.4964 110.331 30.1271 110.544Z" fill="#41B1F1"/>
<path d="M82.0705 124.093C84.8224 123.346 87.5171 122.492 90.1544 121.479C90.785 121.266 91.301 120.679 91.0717 119.985C90.8997 119.452 90.1544 118.919 89.4664 119.132C86.8291 120.145 84.1344 120.999 81.3825 121.746C80.7518 121.906 80.2932 122.599 80.4652 123.239C80.6945 123.879 81.3825 124.306 82.0705 124.093Z" fill="#41B1F1"/>
<path d="M29.8405 122.332C36.8351 124.786 44.1737 126.28 51.6269 126.866C52.3149 126.92 52.8882 126.28 52.8882 125.693C52.8882 124.999 52.3149 124.573 51.6269 124.519C44.403 123.933 37.2937 122.439 30.5285 120.092C29.8978 119.879 29.0952 120.359 28.9232 120.946C28.7512 121.532 29.2098 122.119 29.8405 122.332Z" fill="#41B1F1"/>
<path d="M69.916 121.426C65.9027 123.239 61.9467 125.053 57.9334 126.866C58.5641 127.08 59.1947 127.346 59.8254 127.56C58.6214 124.039 53.6908 122.386 50.5948 124.893C49.2188 126.013 48.4735 127.773 48.6455 129.48C48.8749 131.293 50.0788 132.734 51.8562 133.427C53.7481 134.174 55.9268 133.854 57.4748 132.627C58.5067 131.827 57.4174 130.333 56.2134 130.6C53.9775 131.187 52.9455 133.427 53.4041 135.401C53.8628 137.481 55.9841 139.241 57.9908 140.148C60.4561 141.268 62.864 139.775 63.7814 137.588C64.6413 135.614 64.24 133.48 62.8067 131.827C62.6347 132.52 62.4054 133.16 62.2334 133.854C65.788 132.787 69.228 131.24 72.3239 129.32C71.8653 129.32 71.4639 129.32 71.0053 129.32C74.1586 131.453 79.2039 131.667 81.7265 128.573C83.9625 125.853 82.6438 121.319 78.6305 121.106C76.7386 120.999 74.9612 122.012 74.3879 123.666C73.9866 124.679 75.3626 125.479 76.2799 124.999C79.3759 123.453 80.0639 119.079 77.3119 116.945C74.4452 114.758 70.0306 115.772 68.8266 119.079C68.196 120.839 68.712 122.812 70.0306 124.146C71.1773 125.266 73.0119 123.559 71.8653 122.439C71.0626 121.692 70.9479 120.465 71.3493 119.505C71.8079 118.492 72.9546 118.012 74.1012 118.172C75.2479 118.332 76.2226 119.079 76.3946 120.145C76.5666 121.266 75.9932 122.386 74.9039 122.919C75.5346 123.346 76.1652 123.826 76.7959 124.253C77.0825 123.506 78.2292 123.292 79.0319 123.506C80.1212 123.879 80.4078 125.213 80.0639 126.173C79.6625 127.453 78.3439 128.2 76.9679 128.36C75.3052 128.626 73.6426 128.04 72.2666 127.133C71.9226 126.92 71.2919 126.92 70.9479 127.133C68.024 129 64.8707 130.44 61.488 131.453C60.5134 131.774 60.2841 132.734 60.9147 133.48C61.66 134.334 61.7174 135.561 61.3734 136.574C61.2014 137.054 60.8574 137.534 60.3987 137.854C59.8254 138.281 59.3667 138.174 58.7934 137.854C57.6468 137.214 56.3281 136.307 55.9268 135.081C55.6401 134.281 55.9268 133.107 56.8441 132.894C56.4428 132.2 55.9841 131.56 55.5828 130.867C54.6655 131.56 53.2895 131.453 52.3148 130.92C51.1682 130.28 50.8815 129.053 51.2828 127.88C51.7415 126.706 52.8308 125.906 54.1495 126.013C55.4681 126.066 56.7868 126.973 57.1881 128.146C57.4748 128.947 58.3347 129.213 59.0801 128.84C63.0934 127.026 67.0493 125.213 71.0626 123.399C72.7253 122.812 71.4066 120.732 69.916 121.426Z" fill="#41B1F1"/>
<path d="M69.8588 101.317C70.4321 102.703 71.2921 103.93 72.5534 104.89C73.8147 105.904 75.5347 106.757 77.2547 106.597C81.0386 106.277 82.3 101.797 82.4146 98.9162C82.472 98.2761 81.784 97.7427 81.1533 97.7427C80.408 97.7427 79.892 98.2761 79.892 98.9162C79.8347 100.09 79.548 101.423 79.032 102.437C78.8027 102.917 78.516 103.343 78.172 103.663C77.828 103.984 77.5987 104.144 77.14 104.197C76.1654 104.304 74.9614 103.557 74.3307 103.077C73.4707 102.383 72.8401 101.53 72.4387 100.623C72.1521 100.036 71.5787 99.6096 70.8334 99.7697C70.1454 99.983 69.5721 100.73 69.8588 101.317Z" fill="#41B1F1"/>
<path d="M75.0186 96.7826C75.248 97.4227 75.42 98.0628 75.5346 98.7028C75.5346 98.5962 75.4773 98.4895 75.4773 98.3828C75.5346 98.8629 75.592 99.3429 75.5346 99.823C75.5346 100.463 76.1653 101.05 76.7959 100.996C77.4839 100.943 78.0573 100.463 78.0573 99.823C78.1146 98.5962 77.8853 97.316 77.4266 96.1425C77.3119 95.8225 77.1399 95.6091 76.8533 95.4491C76.5666 95.2891 76.1653 95.2357 75.8786 95.3424C75.3053 95.5024 74.7893 96.1425 75.0186 96.7826Z" fill="#41B1F1"/>
<path d="M171.418 35.2089C174.671 34.4909 178.299 34.1277 181.239 32.4799" stroke="#41B1F1" stroke-width="2.5" stroke-linecap="round" stroke-linejoin="round"/>
<path d="M182.415 23.8006C179.984 20.0036 176.835 15.1659 175.909 21.9984C175.389 25.8318 174.864 29.5996 176.094 33.3587C176.742 35.3379 178.497 37.7695 178.255 39.5503" stroke="#41B1F1" stroke-width="2.5" stroke-linecap="round" stroke-linejoin="round"/>
<path d="M188.473 8.99219C187.776 14.6362 187.501 20.1953 187.536 25.8655" stroke="#41B1F1" stroke-width="2.5" stroke-linecap="round" stroke-linejoin="round"/>
<path d="M187.052 39.4007C191.928 40.4767 194.998 35.4042 188.648 37.5802" stroke="#41B1F1" stroke-width="2.5" stroke-linecap="round" stroke-linejoin="round"/>
<path d="M121.829 24.7825C123.061 31.335 124.812 37.6777 127.028 43.9685C127.627 45.6689 129.504 50.2499 129.959 48.5049C130.85 45.0904 131 41.3264 131.488 37.834C131.55 37.3892 132.379 31.1772 132.942 32.2562C134.614 35.4584 135.214 42.8259 138.968 44.4522C140.389 45.0678 147.465 26.317 148.218 24.4424" stroke="#41B1F1" stroke-width="2.5" stroke-linecap="round" stroke-linejoin="round"/>
<path d="M127.189 58.921C126.515 65.1773 126.837 71.4698 127.568 77.7121C128.073 82.0249 129.517 86.4183 129.673 90.7463C129.716 91.9434 130.626 87.6514 129.544 87.1548" stroke="#41B1F1" stroke-width="2.5" stroke-linecap="round" stroke-linejoin="round"/>
<path d="M134.164 66.7576C134.917 71.2112 135.198 75.0965 134.624 79.5521" stroke="#41B1F1" stroke-width="2.5" stroke-linecap="round" stroke-linejoin="round"/>
<path d="M140.993 70.5539C141.127 74.27 141.261 77.9862 141.394 81.7023C141.479 84.0414 141.596 87.2993 141.436 82.862C141.305 79.2191 141.157 75.708 142.73 72.326C143.925 69.7568 145.65 68.9835 146.265 72.3842C146.739 75.0098 146.504 77.7343 146.701 80.3847C146.728 80.7475 146.954 79.703 147.073 79.3597C147.734 77.4595 148.99 75.8375 150.199 74.2633C150.615 73.7222 154.264 68.3496 155.298 70.2562C157.006 73.4065 156.032 79.2895 156.159 82.8113" stroke="#41B1F1" stroke-width="2.5" stroke-linecap="round" stroke-linejoin="round"/>
<path d="M170.219 82.9721C169.592 78.2904 170.607 74.6138 171.764 70.1044C171.946 69.3951 174.383 60.691 175.173 62.5253C176.543 65.7087 176.315 69.5066 176.587 72.8876C176.828 75.8958 177.443 78.6459 178.761 74.419C180.117 70.0706 181.699 65.6139 183.802 61.5734C185.2 58.886 187.64 54.5424 188.091 59.8809C188.717 67.2772 190.46 74.8833 189.603 82.2642" stroke="#41B1F1" stroke-width="2.5" stroke-linecap="round" stroke-linejoin="round"/>
<path d="M202.559 70.3283C199.243 66.2643 195.894 69.0283 196.058 73.6C196.214 77.9198 200.707 78.5184 202.345 74.7189C202.814 73.6314 203.596 68.4125 203.845 68.8579C205.723 72.2256 207.059 76.1145 208.914 79.5361" stroke="#41B1F1" stroke-width="2.5" stroke-linecap="round" stroke-linejoin="round"/>
<path d="M213.656 62.5059C216.059 65.3646 219.495 71.1172 223.377 72.2651" stroke="#41B1F1" stroke-width="2.5" stroke-linecap="round" stroke-linejoin="round"/>
<path d="M223.062 63.511C218.966 69.4891 215.926 76.3745 211.685 82.1321" stroke="#41B1F1" stroke-width="2.5" stroke-linecap="round" stroke-linejoin="round"/>
<path d="M152.328 31.9684C151.31 34.1309 146.541 42.0815 150.982 43.6803C153.873 44.7208 156.191 40.5259 156.64 38.283C157.429 34.3379 154.516 28.9548 150.677 32.794" stroke="#41B1F1" stroke-width="2.5" stroke-linecap="round" stroke-linejoin="round"/>
<path d="M164.162 30.5923C161.844 30.4139 160.504 32.0273 160.156 34.2924C159.725 37.1105 160.922 42.8539 164.789 39.5062C166.128 38.3474 169.794 32.6413 167.159 31.1274C164.298 29.484 161.569 32.5616 160.309 34.7205" stroke="#41B1F1" stroke-width="2.5" stroke-linecap="round" stroke-linejoin="round"/>
</svg>
