<svg fill="none" height="380" viewBox="0 0 290 380" width="290" xmlns="http://www.w3.org/2000/svg" xmlns:xlink="http://www.w3.org/1999/xlink"><clipPath id="a"><path d="m0 0h204.432v216.391h-204.432z"/></clipPath><g clip-path="url(#a)" fill="#41b1f1"><path d="m26.8491 177.532c4.1467-9.303 8.2934-18.703 12.4401-28.006 2.0733-4.555 4.1467-9.206 6.1163-13.761 1.866-4.361 3.6284-8.818 4.6651-13.47 3.9393-18.509-3.7321-36.824-1.9697-55.43.4147-4.2639 1.3477-8.6246 3.11-12.5978.8293-2.035 1.9697-3.8762 3.3174-5.7175.933-1.3566 2.5916-3.8762 4.5613-3.7793-.8293-.7752-1.555-1.4536-2.2807-2.1319-.8293 24.5172-8.1897 48.7438-21.1481 70.0635-3.6283 6.008-7.775 11.725-12.2327 17.152 1.4513.388 2.9027.775 4.354 1.066-.311-3.682-.622-7.365-1.0367-11.047-.2073-2.811-.5183-5.718-1.866-8.334-1.3476-2.714-3.9393-4.361-7.153-4.846-2.799-.387-5.909.097-8.39706-1.453-4.14669-2.714-4.56136-8.6248-4.56136-12.8887 0-6.3958 1.24401-12.6947 3.21369-18.7998 4.04303-12.5009 11.29973-23.8389 18.76373-34.7893 3.0064-4.4576 6.8421-10.6596 13.2694-10.7565 1.3477 0 2.5917.1938 3.6284.8721 1.3477.7753 2.3843 1.9381 3.8357 2.5196 3.421 1.3567 6.7384-.2908 9.4337-2.2289 5.3907-3.8762 10.8851-7.3648 17.0014-9.9813 6.0127-2.6165 12.4401-4.5546 18.9711-5.7175 6.7384-1.1628 13.4769-1.3567 20.2149-1.3567 6.842 0 13.995-.0969 20.526-2.3257 3.318-1.16287 6.117-2.90718 9.33-4.36077 3.007-1.35669 6.428-1.5505 9.745-.96907 3.421.58144 6.842 1.64741 10.056 2.71338 3.214 1.06596 6.22 2.32574 9.226 3.77936 5.391 2.7133 9.952 6.4927 13.373 11.338 3.11 4.4577 4.976 9.4968 6.117 14.7297 1.036 5.3299 1.14 10.8535.518 16.2802-.726 6.202-2.799 12.1133-4.458 18.1215-1.866 6.4927-3.213 13.2761-1.762 20.0596 1.14 5.5236 4.147 10.7568 8.19 14.8268 2.073 2.035 4.457 3.779 7.049 5.233 2.592 1.453 4.976-2.326 2.384-3.78-5.079-2.81-9.122-7.171-11.403-12.2098-2.695-5.9113-2.384-12.404-.933-18.6059 1.451-6.3959 3.939-12.6948 5.08-19.1875 1.036-5.6205 1.347-11.4349.725-17.0554-1.244-11.1442-6.012-22.0946-15.55-29.2657-5.598-4.16696-12.025-6.88033-18.763-9.01226-7.05-2.228845-14.514-3.97315-21.563-.87216-3.11 1.35669-5.909 3.29481-9.227 4.26387-3.213.96906-6.531 1.45359-9.848 1.6474-7.049.48453-14.202 0-21.252.58144-13.7876 1.25978-27.1606 5.52361-38.6677 12.50091-2.799 1.7443-5.3907 3.6824-8.0861 5.5236-1.0366.7753-2.6953 1.9382-4.043 1.6474-1.3476-.1938-2.3843-1.5505-3.5247-2.2288-5.8053-3.6824-13.2694-.7753-17.6234 3.4886-2.3843 2.4227-4.2503 5.2329-6.1164 7.9463-1.866 2.8103-3.732 5.5237-5.598 8.4308-3.6283 5.8144-7.04936 11.7257-9.84837 17.9277-2.69535 5.9113-4.87236 12.2102-6.11637 18.606-1.03667131 6.0081-1.762342 12.5009-.103666 18.4125.725666 2.519 1.866006 4.942 3.628356 6.88 1.96967 2.132 4.66502 3.295 7.67135 3.585 2.5917.291 6.0127-.29 7.7751 1.939 1.555 2.035 1.6586 4.845 1.866 7.268.311 3.682.622 7.364 1.0366 11.047.2074 2.229 2.9027 2.81 4.3541 1.066 16.3794-19.866 27.3681-43.6079 31.8258-68.4159 1.244-6.9772 1.9697-14.0514 2.2807-21.1255 0-1.2598-1.1404-2.132-2.2807-2.132-4.665-.1938-7.8787 4.6515-9.952 7.9463-2.1771 3.5856-3.6284 7.4618-4.5614 11.435-1.866 8.4308-1.555 16.9585-.4147 25.4863 1.244 10.0782 3.2137 20.1568 2.3844 30.3318-.8294 9.981-5.5981 19.09-9.6411 28.199-4.7687 10.854-9.641 21.611-14.4097 32.464-.5184 1.066.5183 2.423 1.6587 2.713 1.1403.388 2.177-.387 2.6953-1.453z"/><path d="m69.146 75.0053c.933-2.1319 1.8661-4.1669 3.3174-6.0081 1.1403-1.4536 2.9027-2.8103 4.8724-3.2948.933-.1939 1.866-.2908 2.799 0 .2073.0969.7256.1938.7256.1938-.1036 0 .4147.2907.4147.1938-.1037 0 .311.2907.311.2907-.1037-.1938.1037.2907.1037.3876.2073.6784.2073 1.8412.1036 2.7134 0 .1938 0 .4845-.1036.6783 0-.2907 0 .1938-.1037.2908 0 .1938-.1037.3876-.2073.5814.1036-.2907-.1037.1938-.2074.2907-.2073.2907.2074-.1938 0 0 0 0-.311.2907-.2073.1938.2073-.0969-.5183.1938-.311.1938-.622.2908-1.0367.1939-1.6587.2908-1.555.0969-3.11.0969-4.5613-.097-1.244-.1938-2.488.2908-2.9027 1.5505-.311 1.066.4147 2.5196 1.6587 2.7134 1.866.2907 3.732.3876 5.598.2907s3.732-.3876 5.1834-1.5505c2.2806-1.8412 2.3843-4.8453 2.177-7.4617-.1037-1.7443-.622-3.3917-2.0734-4.4577-1.4513-1.066-3.11-1.5505-4.976-1.6474-3.421-.1938-6.7384 1.3567-9.1227 3.4886-2.6954 2.5196-4.2504 5.9113-5.598 9.1092-.4147 1.0659.5183 2.4226 1.6586 2.7133 1.555.2908 2.6954-.4845 3.11-1.6474z"/><path d="m147.415 59.1127c-.933.6784-1.97 1.1629-3.007 1.2598-1.14.0969-2.177-.0969-2.902-.3876-.311-.0969-.519-.2907-.726-.3876-.104-.0969-.311-.1939-.415-.2908 0 0 .208.0969 0 0-.207-.1938-.414-.3876-.622-.5814-.311-.2907-.311-.2907-.414-.4845-.104-.1938-.311-.4846-.415-.6784s0 0 0 0c-.104-.0969-.104-.2907-.104-.3876-.103-.1938-.103-.3876-.207-.6783-.104-.4846 0-.1938 0-.0969 0-.0969 0-.2908 0-.3877s0-.6783 0-.5814c0 .2907 0-.1938.104-.1938 0-.0969.103-.1938.103-.2907s.208-.3877 0-.0969c0-.0969.104-.1939.208-.2908.103-.0969.103-.1938.207-.2907-.207.2907.104-.0969.104-.0969.311-.1938-.208.0969.103-.0969.104-.0969.208-.0969.311-.1938.208-.1938.104-.0969.519-.1938.622-.1938.829-.1938 1.555-.1938 2.488.0969 4.872 1.2598 7.049 2.5195.622.3877 1.348.7753 1.97 1.1629.103.0969.207.0969.311.1938.622.3876-.104-.0969.207.1938.104.0969.207.1938.311.2908-.104-.1939-.104-.097-.104 0 0 .1938 0 .0969 0 0v.6783 1.2598c0 .7752-.103 1.5505-.207 2.3257-.207 1.1629.311 2.3258 1.659 2.7134 1.14.2907 2.695-.3876 2.903-1.5505.311-1.9381.518-3.9732.207-6.0082-.311-2.1319-1.762-3.1979-3.628-4.2639-3.214-1.9381-6.635-3.6824-10.471-3.8762-3.628-.1938-7.257 1.6474-7.982 5.2329-.622 3.3917 1.036 6.5896 3.939 8.6247 3.421 2.3257 8.397 2.3257 11.818-.0969 1.037-.6784 1.555-1.8412.829-3.0041-.622-.9691-2.177-1.5505-3.213-.7753z"/><path d="m147.829 22.4822c-.103 0-.103 0-.207 0 .518.1938 1.14.3876 1.659.6784l-.104-.0969c.207.2907.415.6783.622.969 0 .2907-.104.5815-.104.8722-.311.2907-.518.4845-.829.7752.104 0 .104-.0969.207-.0969-.414.0969-.829.1938-1.14.2907l-.104-.0969c.208.1938.415.2908.622.4846.208.1938.415.2907.519.4845.414.3876.933.7752 1.347 1.2598.933.8721 1.867 1.7443 2.696 2.7133 1.659 1.7444 3.11 3.6825 4.458 5.6206 2.695 3.9732 4.768 8.1401 6.323 12.5978 3.11 9.0123 3.94 18.7998 2.177 28.1997-1.036 5.4267-3.11 10.5627-4.665 15.8926-.829 2.9072-1.555 5.8143-1.866 8.8181-.311 3.198.104 6.299.726 9.497 1.14 6.202 2.903 12.21 3.525 18.412.311 3.101.414 6.202.414 9.303 0 2.132 0 4.943-1.969 6.493-1.763 1.357-4.251 1.163-6.324.485-2.384-.679-4.251-2.326-5.702-4.167-3.628-4.361-4.872-10.176-6.116-15.505-.622-2.714-5.08-1.551-4.458 1.162 1.244 5.524 2.695 11.242 6.116 15.893 3.214 4.361 8.398 7.946 14.307 7.268 3.006-.291 5.701-1.744 7.256-4.264 1.659-2.81 1.659-6.202 1.555-9.303-.103-7.171-1.14-14.245-2.799-21.222-.829-3.295-1.658-6.687-1.866-10.079-.207-3.391.311-6.686 1.141-9.9808 1.658-6.1051 4.146-11.9195 5.287-18.1215 1.866-10.8535.933-22.1915-3.214-32.4635-2.281-5.8144-5.494-11.2411-9.641-16.0865-1.97-2.3257-4.25-4.6514-6.635-6.4927-1.555-1.2597-4.25-1.9381-5.494.1938-1.037 1.8413.207 3.8763 2.384 4.0701 1.244.0969 2.281-1.066 2.281-2.1319 0-1.4536-1.037-2.2289-2.385-2.3258z"/><path d="m137.981 125.784c-6.635 11.629-14.41 23.742-26.642 30.719-1.555.873-3.11 1.745-4.769 2.326-1.866.678-3.421.872-5.183 0-3.8361-1.841-7.6718-3.682-11.3002-5.911-6.0127-3.586-10.9887-8.528-15.239-13.858-4.9761-6.299-9.0191-13.179-13.0621-19.962-1.4514-2.423-5.4944-.291-4.043 2.228 7.464 12.695 15.4464 25.971 28.4048 34.499 3.6283 2.423 7.775 4.167 11.6107 6.202 1.9697 1.066 3.9398 2.035 6.2198 1.938 2.177-.097 4.251-.969 6.117-1.841 6.842-3.198 12.751-8.043 17.623-13.47 5.598-6.299 10.056-13.373 14.202-20.641 1.452-2.423-2.591-4.652-3.939-2.229z"/><path d="m142.542 124.718c-1.451-1.357-3.317-2.326-4.872-3.488-1.037-.679-2.177-1.454-3.214-2.132-.518-.291-1.036-.679-1.451-.969-.207-.097-.415-.291-.518-.388-.104-.097-.726-.485-.311-.194-2.177-1.55-4.562-3.973-5.287-6.493-.83-2.81 1.658-5.136 4.354-5.911 3.006-.775 7.464.388 8.086 3.586.725-.873 1.451-1.842 2.28-2.714-1.036.097.622.291.415.388-.104.097 0-.194 0-.291.207-.291.207-.581.415-.872.518-.775 1.347-1.357 2.28-1.55 1.763-.582 4.562-.097 5.495 1.647 1.244 2.132-1.452 5.233-2.592 6.977-1.762 2.617-3.732 5.039-5.805 7.365-.83.872-.933 2.229 0 3.101.829.775 2.488.872 3.317 0 3.214-3.489 6.324-7.268 8.605-11.435 1.036-1.938 1.866-4.167 1.347-6.396-.414-1.938-1.866-3.488-3.628-4.554-3.628-2.0353-8.605-1.6477-11.715 1.26-1.347 1.259-2.28 3.004-2.28 4.845 0 2.035 1.866 4.167 4.25 3.876 1.555-.194 2.592-1.26 2.281-2.713-.933-4.167-5.495-6.687-9.745-7.074-4.354-.388-9.123 1.841-11.196 5.523-2.281 4.264 0 8.528 3.006 11.823 1.97 2.132 4.147 3.682 6.635 5.33 1.451.969 2.799 1.841 4.25 2.81.622.387 1.141.775 1.763 1.163.414.29 0 0 0 0 .103.097.207.194.414.29.104.097.311.194.415.388 1.762 1.841 5.08-1.26 3.006-3.198z"/><path d="m160.27 149.429c1.969 2.52 2.695 5.621 3.006 8.625.415 3.489.518 7.074.311 10.563-.415 7.074-1.97 14.051-4.665 20.641-.415 1.066.518 2.422 1.659 2.713 1.347.291 2.384-.388 2.902-1.55 2.903-7.171 4.458-14.633 4.873-22.289.207-3.682 0-7.462-.415-11.047-.415-3.489-1.244-6.977-3.525-9.885-.725-.969-2.073-1.453-3.213-.775-1.141.582-1.659 2.035-.933 3.004z"/><path d="m71.0121 65.024c-1.6587 4.5546 1.3476 9.7875 6.22 11.1442 1.1403.3876 2.5917-.3876 2.9027-1.5505s-.4147-2.3257-1.6587-2.7134c-.1037 0-.2073-.0969-.311-.0969-.4147-.0969.5183.1938.1037.0969-.2074-.0969-.311-.1938-.5184-.2907-.2073-.0969-.4146-.1938-.622-.3876-.311-.1938.311.2907.1037.0969-.1037-.0969-.1037-.0969-.2073-.1938-.2074-.1938-.311-.2907-.5184-.4845-.1036-.097-.1036-.097-.2073-.1939-.2073-.2907 0 0 .1037.097-.2074-.3877-.5184-.6784-.7257-1.066 0-.0969-.1037-.1938-.1037-.2907-.2073-.3877.2074.4845.1037.0969-.1037-.1938-.1037-.3877-.2073-.5815-.1037-.1938-.1037-.3876-.1037-.5814 0-.0969-.1037-.1938-.1037-.2907 0 .0969.1037.5814 0 .1938 0-.3876 0-.7753 0-1.1629 0-.2907-.1036.5814 0 .1938 0-.0969 0-.1938.1037-.2907.1037-.1938.1037-.3876.2073-.6783.4147-1.066-.4146-2.4227-1.6586-2.7134-1.3477-.0969-2.4881.4845-2.9027 1.6474z"/><path d="m144.408 54.1705c.208.6784.415 1.3567.519 2.035 0 .1939 0 .1939 0-.1938v.2908.4845.969c0 .1939-.208.5815 0 0 0 .1939-.104.2908-.104.4846-.104.2907-.207.5814-.311.8721-.104.1938-.104.2908-.207.3877-.104.1938-.104.1938.103-.1939 0 .0969-.103.1939-.103.2908-.208.3876-.415.6783-.622 1.0659-.622.9691-.311 2.4227.829 3.0041 1.14.5815 2.592.2907 3.214-.7752.933-1.5505 1.555-3.1979 1.762-5.0391.207-1.6475-.207-3.2949-.726-4.8454-.311-1.0659-1.658-1.9381-2.902-1.5505-.933.3877-1.763 1.5505-1.452 2.7134z"/><path d="m146.896 21.5131c-2.799-.1938-4.25 2.5196-4.043 4.7484.208 2.2289 1.348 4.3608 2.696 6.202 2.28 3.2948 5.079 6.202 7.878 9.1092 5.288 5.6206 11.093 11.5318 12.544 19.0905.208 1.1629 1.763 1.8412 2.903 1.5505 1.348-.2907 1.866-1.5505 1.659-2.7134-1.348-6.9772-6.117-12.6947-10.885-18.0245-2.385-2.5196-4.873-5.0391-7.153-7.6556-1.141-1.2598-2.178-2.6164-3.111-3.9731-.518-.7753-1.036-1.5505-1.347-2.3258-.208-.4845-.415-1.0659-.519-1.5505-.103-.969.208-.0969-.622-.1938 1.244.0969 2.281-1.066 2.281-2.1319.104-1.2598-.933-2.035-2.281-2.132z"/><path d="m117.766 82.6609c-3.939-6.0082-7.982-12.1133-10.678-18.606-2.384-5.8143-4.561-12.9854-2.799-19.2843.726-2.6164 2.385-5.0391 5.287-5.8143 3.11-.8722 4.976.8721 6.428 3.2948 1.658 2.9071 2.177 6.202 2.695 9.303.518 3.4886.829 6.9772 1.659 10.3689 1.866 7.7525 5.287 15.2143 10.159 21.707.726.969 2.073 1.4536 3.214.7752 1.036-.5814 1.555-2.035.829-3.0041-4.665-6.2989-7.982-13.2761-9.745-20.7379-1.762-7.2679-1.14-15.5049-5.598-21.9977-2.073-3.004-5.287-4.8453-9.226-4.3607-3.525.3876-6.635 2.4226-8.501 5.3298-4.0428 6.3958-2.3841 15.2143-.207 21.8039 2.799 8.3339 7.671 15.8926 12.44 23.2574 1.555 2.5196 5.598.3877 4.043-2.035z"/><path d="m54.4253 161.833c27.2645 10.854 58.1577 17.056 87.1837 8.431 7.776-2.326 15.343-5.62 22.185-9.691 2.488-1.55.208-5.232-2.384-3.779-11.818 7.074-25.399 11.532-39.394 12.792-14.202 1.26-28.6118-.485-42.2959-3.973-7.8787-2.035-15.5501-4.555-23.0141-7.462-1.1404-.485-2.488-.291-3.2137.775-.5183.872-.2073 2.52.933 2.907z"/><path d="m148.348 186.447c4.976-1.356 9.848-2.907 14.617-4.748 1.14-.388 2.073-1.454 1.659-2.713-.311-.969-1.659-1.939-2.903-1.551-4.769 1.841-9.641 3.392-14.617 4.749-1.141.29-1.97 1.55-1.659 2.713.415 1.163 1.659 1.938 2.903 1.55z"/><path d="m53.9069 183.249c12.6474 4.458 25.9168 7.172 39.3936 8.237 1.244.097 2.2807-1.065 2.2807-2.131 0-1.26-1.0367-2.035-2.2807-2.132-13.0621-1.066-25.9168-3.78-38.1496-8.044-1.1403-.387-2.5916.485-2.9026 1.551s.5183 2.132 1.6586 2.519z"/><path d="m126.37 181.602c-7.256 3.295-14.409 6.59-21.666 9.885 1.14.387 2.281.872 3.421 1.259-2.177-6.396-11.0925-9.4-16.6905-4.845-2.488 2.035-3.8357 5.233-3.5247 8.334.4147 3.295 2.5917 5.911 5.8054 7.171 3.421 1.357 7.3608.775 10.1598-1.454 1.866-1.453-.104-4.167-2.281-3.682-4.0431 1.066-5.9091 5.136-5.0798 8.721.8293 3.78 4.6648 6.978 8.2938 8.625 4.457 2.035 8.811-.678 10.47-4.651 1.555-3.586.829-7.462-1.762-10.466-.311 1.26-.726 2.422-1.037 3.682 6.427-1.938 12.647-4.748 18.245-8.237-.829 0-1.555 0-2.384 0 5.702 3.876 14.824 4.264 19.386-1.356 4.043-4.943 1.659-13.18-5.598-13.567-3.421-.194-6.635 1.647-7.672 4.651-.725 1.841 1.763 3.295 3.421 2.423 5.598-2.81 6.842-10.757 1.866-14.633-5.183-3.973-13.165-2.132-15.342 3.876-1.141 3.198-.208 6.784 2.177 9.206 2.073 2.035 5.39-1.066 3.317-3.101-1.451-1.356-1.659-3.585-.933-5.33.829-1.841 2.903-2.713 4.976-2.422s3.836 1.647 4.147 3.585c.311 2.035-.726 4.07-2.696 5.039 1.141.776 2.281 1.648 3.421 2.423.519-1.357 2.592-1.744 4.043-1.357 1.97.679 2.488 3.101 1.866 4.846-.725 2.325-3.11 3.682-5.598 3.973-3.006.484-6.012-.582-8.5-2.229-.622-.388-1.763-.388-2.385 0-5.287 3.392-10.988 6.008-17.105 7.849-1.762.582-2.177 2.326-1.036 3.683 1.347 1.55 1.451 3.779.829 5.62-.311.873-.933 1.745-1.762 2.326-1.037.775-1.866.582-2.903 0-2.073-1.163-4.458-2.81-5.183-5.039-.519-1.454 0-3.585 1.658-3.973-.725-1.26-1.555-2.423-2.28-3.683-1.6591 1.26-4.1471 1.066-5.9095.097-2.0733-1.162-2.5916-3.391-1.866-5.523.8294-2.132 2.799-3.586 5.1834-3.392 2.3841.097 4.7691 1.744 5.4941 3.876.519 1.454 2.074 1.938 3.421 1.26 7.257-3.295 14.41-6.59 21.667-9.884 3.006-1.066.622-4.846-2.074-3.586z"/><path d="m126.267 145.069c1.036 2.519 2.591 4.748 4.872 6.492 2.281 1.841 5.391 3.392 8.501 3.101 6.842-.581 9.122-8.721 9.33-13.954.103-1.163-1.141-2.132-2.281-2.132-1.348 0-2.281.969-2.281 2.132-.103 2.132-.622 4.554-1.555 6.396-.414.872-.933 1.647-1.555 2.228-.622.582-1.036.873-1.866.969-1.762.194-3.939-1.162-5.079-2.035-1.555-1.259-2.696-2.81-3.421-4.457-.519-1.066-1.555-1.841-2.903-1.551-1.244.388-2.281 1.745-1.762 2.811z"/><path d="m135.597 136.831c.414 1.163.725 2.326.933 3.489 0-.194-.104-.388-.104-.581.104.872.207 1.744.104 2.616 0 1.163 1.14 2.229 2.28 2.132 1.244-.097 2.281-.969 2.281-2.132.104-2.229-.311-4.555-1.14-6.686-.208-.582-.519-.97-1.037-1.26-.518-.291-1.244-.388-1.762-.194-1.037.291-1.97 1.454-1.555 2.616z"/></g><g stroke="#41b1f1" stroke-linecap="round" stroke-linejoin="round" stroke-width="4"><path d="m176.841 254.373c5.882-1.295 12.444-1.947 17.758-4.93"/><path d="m196.732 233.671c-4.413-6.902-10.129-15.695-11.794-3.286-.934 6.962-1.879 13.805.358 20.635 1.178 3.596 4.362 8.017 3.928 11.251"/><path d="m207.667 206.758c-1.255 10.253-1.744 20.352-1.67 30.654"/><path d="m205.109 261.995c8.824 1.962 14.367-7.236 2.885-3.3"/><path d="m87.1528 235.441c2.2365 11.9 5.4112 23.42 9.4273 34.846 1.0855 3.089 4.4859 11.41 5.3069 8.241 1.608-6.199 1.875-13.034 2.754-19.375.112-.808 1.605-12.088 2.625-10.128 3.028 5.817 4.122 19.197 10.915 22.154 2.571 1.12 15.35-32.922 16.711-36.325"/><path d="m96.8597 297.464c-1.2028 11.365-.6154 22.798.7063 34.141.9132 7.836 3.513 15.82 3.799 23.684.079 2.175 1.707-5.622-.237-6.526"/><path d="m109.479 311.703c1.355 8.092 1.862 15.152.842 23.246"/><path d="m121.829 318.58c.247 6.757.493 13.513.74 20.27.156 4.253.372 10.177.077 2.109-.242-6.624-.514-13.008 2.324-19.155 2.155-4.669 5.27-6.073 6.386.111.861 4.775.441 9.728.8 14.547.049.66.456-1.239.671-1.863 1.191-3.454 3.459-6.401 5.641-9.261.75-.984 7.337-10.746 9.207-7.278 3.09 5.73 1.339 16.425 1.573 22.828"/><path d="m174.707 341.162c-1.14-8.512.689-15.194 2.773-23.389.328-1.289 4.718-17.109 6.147-13.773 2.48 5.789 2.074 12.693 2.569 18.839.44 5.469 1.555 10.469 3.93 2.787 2.444-7.903 5.295-16.002 9.088-23.344 2.523-4.883 6.924-12.775 7.747-3.07 1.14 13.446 4.3 27.276 2.763 40.692"/><path d="m233.145 318.186c-5.999-7.395-12.046-2.374-11.742 5.939.286 7.855 8.406 8.95 11.361 2.044.846-1.977 2.252-11.465 2.702-10.655 3.398 6.126 5.818 13.199 9.175 19.423"/><path d="m253.214 303.966c4.347 5.201 10.563 15.664 17.578 17.757"/><path d="m270.198 305.806c-7.389 10.86-12.87 23.371-20.523 33.83"/><path d="m142.323 248.5c-1.84 3.929-10.463 18.373-2.433 21.278 5.227 1.89 9.418-5.731 10.229-9.806 1.427-7.167-3.84-16.947-10.782-9.972"/><path d="m163.721 246c-4.192-.324-6.615 2.607-7.243 6.722-.781 5.12 1.384 15.554 8.377 9.472 2.42-2.105 9.05-12.471 4.285-15.222-5.173-2.986-10.108 2.606-12.385 6.528"/></g></svg>