<svg width="32" height="32" viewBox="0 0 32 32" fill="none" xmlns="http://www.w3.org/2000/svg">
<rect width="32" height="32"/>
<path d="M18.8786 26.7289C18.2879 26.7289 17.7956 26.7289 17.2049 26.6302C16.2203 26.4327 16.3188 25.3465 16.3188 25.3465C16.3188 24.7541 16.1219 24.2603 15.925 24.2603C15.5312 24.2603 15.2358 25.2478 14.842 25.939C14.6451 26.3339 14.0543 26.3339 13.759 26.3339C13.3651 26.2352 13.1682 25.939 13.3651 25.2478C13.6605 24.5566 14.0543 24.1616 14.1528 22.7792C14.1528 22.483 14.0543 22.1868 13.9559 21.3968C13.759 20.4094 13.4636 19.422 12.7744 18.8295C12.3806 18.4345 12.5775 17.9408 12.676 17.5458C12.8729 17.2496 13.1682 17.4471 13.5621 17.4471C13.9559 17.4471 13.9559 17.2496 14.2512 17.0521C14.7435 16.7559 15.1373 17.1509 15.3343 17.0521C15.8265 16.7559 16.0234 15.7685 16.1219 15.8672C16.7126 16.4597 16.4173 17.7433 16.8111 18.7308C16.9095 19.027 17.3034 19.9157 17.5003 20.2119C17.7956 20.6069 18.1895 20.7056 18.7802 21.1993C19.2725 21.5943 19.9616 22.5817 20.0601 23.3717C20.5524 25.544 22.3246 25.7415 22.423 25.7415C23.6045 25.8402 24.1952 24.8528 23.8999 24.5566C23.4076 23.9641 22.8168 22.9767 22.5215 22.088C22.2261 21.2981 22.1277 20.1132 22.2261 18.5333C22.3246 17.8421 22.8168 15.6697 22.6199 12.51C22.423 9.44894 20.4539 6.78288 17.7956 5.99294C17.8941 4.5118 16.5157 4.11683 15.4327 3.32689C14.2512 2.33946 14.842 3.8206 14.9404 4.70929C14.9404 4.80803 15.0389 5.203 15.0389 5.30174C15.0389 6.38791 14.2512 6.88163 14.1528 6.98037C13.6605 7.2766 12.9713 7.86905 13.0698 8.46151C13.3651 10.0414 9.23003 10.6339 9.7223 11.5225C10.0177 11.9175 10.9038 13.1024 12.0852 13.1024C13.2667 13.1024 15.1373 12.7074 15.2358 13.2999C15.3343 13.3986 15.3343 13.5961 15.3343 13.6949C15.3343 14.2873 14.1528 14.6823 13.5621 14.9785C12.479 15.4722 11.1991 16.1634 9.91921 17.2496C7.45783 19.422 6.76865 21.4956 7.06401 23.8654C7.35938 26.3339 9.23003 27.9138 10.8053 28.4075C11.9868 28.7038 14.7435 29 16.6142 29C18.3864 29 23.9983 28.8025 23.9983 27.9138C24.0968 27.1239 19.8632 26.8277 18.8786 26.7289Z" fill="#323341"/>
</svg>
