<svg fill="none" height="60" width="195" xmlns="http://www.w3.org/2000/svg" xmlns:xlink="http://www.w3.org/1999/xlink"><mask id="a" height="60" maskUnits="userSpaceOnUse" width="195" x="0" y="0"><path d="m0 0h195v60h-195z" fill="#c4c4c4"/></mask><g fill="#323341" mask="url(#a)"><path d="m75.05 29.5c0-2.06.46-3.9 1.38-5.52.94-1.64 2.21-2.91 3.81-3.81 1.62-.92 3.43-1.38 5.43-1.38 2.34 0 4.39.6 6.15 1.8s2.99 2.86 3.69 4.98h-4.83c-.48-1-1.16-1.75-2.04-2.25-.86-.5-1.86-.75-3-.75-1.22 0-2.31.29-3.27.87-.94.56-1.68 1.36-2.22 2.4-.52 1.04-.78 2.26-.78 3.66 0 1.38.26 2.6.78 3.66.54 1.04 1.28 1.85 2.22 2.43.96.56 2.05.84 3.27.84 1.14 0 2.14-.25 3-.75.88-.52 1.56-1.28 2.04-2.28h4.83c-.7 2.14-1.93 3.81-3.69 5.01-1.74 1.18-3.79 1.77-6.15 1.77-2 0-3.81-.45-5.43-1.35-1.6-.92-2.87-2.19-3.81-3.81-.92-1.62-1.38-3.46-1.38-5.52zm31.427 10.77c-1.6 0-3.04-.35-4.32-1.05a7.877 7.877 0 0 1 -3.03-3.03c-.72-1.3-1.08-2.8-1.08-4.5s.37-3.2 1.11-4.5c.76-1.3 1.79-2.3 3.09-3 1.3-.72 2.75-1.08 4.35-1.08s3.05.36 4.35 1.08c1.3.7 2.32 1.7 3.06 3 .76 1.3 1.14 2.8 1.14 4.5s-.39 3.2-1.17 4.5c-.76 1.3-1.8 2.31-3.12 3.03-1.3.7-2.76 1.05-4.38 1.05zm0-3.66c.76 0 1.47-.18 2.13-.54.68-.38 1.22-.94 1.62-1.68s.6-1.64.6-2.7c0-1.58-.42-2.79-1.26-3.63-.82-.86-1.83-1.29-3.03-1.29s-2.21.43-3.03 1.29c-.8.84-1.2 2.05-1.2 3.63s.39 2.8 1.17 3.66c.8.84 1.8 1.26 3 1.26zm19.131 3.66c-1.6 0-3.04-.35-4.32-1.05a7.877 7.877 0 0 1 -3.03-3.03c-.72-1.3-1.08-2.8-1.08-4.5s.37-3.2 1.11-4.5c.76-1.3 1.79-2.3 3.09-3 1.3-.72 2.75-1.08 4.35-1.08s3.05.36 4.35 1.08c1.3.7 2.32 1.7 3.06 3 .76 1.3 1.14 2.8 1.14 4.5s-.39 3.2-1.17 4.5c-.76 1.3-1.8 2.31-3.12 3.03-1.3.7-2.76 1.05-4.38 1.05zm0-3.66c.76 0 1.47-.18 2.13-.54.68-.38 1.22-.94 1.62-1.68s.6-1.64.6-2.7c0-1.58-.42-2.79-1.26-3.63-.82-.86-1.83-1.29-3.03-1.29s-2.21.43-3.03 1.29c-.8.84-1.2 2.05-1.2 3.63s.39 2.8 1.17 3.66c.8.84 1.8 1.26 3 1.26zm15.951-10.83c.54-.76 1.28-1.39 2.22-1.89.96-.52 2.05-.78 3.27-.78 1.42 0 2.7.35 3.84 1.05 1.16.7 2.07 1.7 2.73 3 .68 1.28 1.02 2.77 1.02 4.47s-.34 3.21-1.02 4.53c-.66 1.3-1.57 2.31-2.73 3.03-1.14.72-2.42 1.08-3.84 1.08-1.22 0-2.3-.25-3.24-.75-.92-.5-1.67-1.13-2.25-1.89v10.29h-4.2v-24.54h4.2zm8.79 5.85c0-1-.21-1.86-.63-2.58-.4-.74-.94-1.3-1.62-1.68-.66-.38-1.38-.57-2.16-.57-.76 0-1.48.2-2.16.6-.66.38-1.2.94-1.62 1.68-.4.74-.6 1.61-.6 2.61s.2 1.87.6 2.61c.42.74.96 1.31 1.62 1.71.68.38 1.4.57 2.16.57.78 0 1.5-.2 2.16-.6.68-.4 1.22-.97 1.62-1.71.42-.74.63-1.62.63-2.64zm22.792-.3c0 .6-.04 1.14-.12 1.62h-12.15c.1 1.2.52 2.14 1.26 2.82s1.65 1.02 2.73 1.02c1.56 0 2.67-.67 3.33-2.01h4.53c-.48 1.6-1.4 2.92-2.76 3.96-1.36 1.02-3.03 1.53-5.01 1.53-1.6 0-3.04-.35-4.32-1.05a7.728 7.728 0 0 1 -2.97-3.03c-.7-1.3-1.05-2.8-1.05-4.5 0-1.72.35-3.23 1.05-4.53s1.68-2.3 2.94-3 2.71-1.05 4.35-1.05c1.58 0 2.99.34 4.23 1.02 1.26.68 2.23 1.65 2.91 2.91.7 1.24 1.05 2.67 1.05 4.29zm-4.35-1.2c-.02-1.08-.41-1.94-1.17-2.58-.76-.66-1.69-.99-2.79-.99-1.04 0-1.92.32-2.64.96-.7.62-1.13 1.49-1.29 2.61zm11.615-4.17c.54-.88 1.24-1.57 2.1-2.07.88-.5 1.88-.75 3-.75v4.41h-1.11c-1.32 0-2.32.31-3 .93-.66.62-.99 1.7-.99 3.24v8.28h-4.2v-16.62h4.2zm-144.959 26.922c-3.76 6.468-8.523 6.904-12.056 4.637s-5.11-5.393-7.705-6.847l-.138.004c-2.595-1.454-6.13-1.11-9.898-2.933-3.772-1.84-5.958-6.005-2.415-12.595 3.576-5.874 8.331-3.784 16.148-8.704 6.882-4.337 10.622-1.57 10.622-1.57l.103.057s4.326 1.795 4.207 9.88c-.151 9.228 4.285 11.96 1.132 18.07zm-10.46-34.362c3.373 1.561 7.914-1.037 10.136-5.823 2.226-4.77 1.293-9.915-2.08-11.477-3.374-1.562-7.914 1.036-10.136 5.822-2.226 4.77-1.294 9.916 2.08 11.478zm12.218 6.955c2.671 2.645 7.852 1.705 11.57-2.106 3.714-3.8 4.57-9.024 1.898-11.67-2.671-2.645-7.852-1.705-11.57 2.106-3.73 3.805-4.57 9.024-1.898 11.67zm16.655 4.613c-2.324-2.3-6.842-1.48-10.079 1.834-3.237 3.315-3.974 7.866-1.65 10.166 2.323 2.3 6.841 1.482 10.078-1.833 3.238-3.315 3.985-7.86 1.651-10.167zm-35.68-12.51c1.137-4.492-.523-8.773-3.698-9.553-3.176-.781-6.672 2.224-7.81 6.716-1.136 4.492.525 8.773 3.7 9.553 3.186.787 6.683-2.218 7.809-6.716z"/></g></svg>