<svg width="290" height="380" viewBox="0 0 290 380" fill="none" xmlns="http://www.w3.org/2000/svg">
<g clip-path="url(#clip0)">
<path d="M26.8491 177.532C30.9958 168.229 35.1425 158.829 39.2892 149.526C41.3625 144.971 43.4359 140.32 45.4055 135.765C47.2715 131.404 49.0339 126.947 50.0706 122.295C54.0099 103.786 46.3385 85.471 48.1009 66.865C48.5156 62.6011 49.4486 58.2404 51.2109 54.2672C52.0402 52.2322 53.1806 50.391 54.5283 48.5497C55.4613 47.1931 57.1199 44.6735 59.0896 44.7704C58.2603 43.9952 57.5346 43.3168 56.8089 42.6385C55.9796 67.1557 48.6192 91.3823 35.6608 112.702C32.0325 118.71 27.8858 124.427 23.4281 129.854C24.8794 130.242 26.3308 130.629 27.7821 130.92C27.4711 127.238 27.1601 123.555 26.7454 119.873C26.5381 117.062 26.2271 114.155 24.8794 111.539C23.5318 108.825 20.9401 107.178 17.7264 106.693C14.9274 106.306 11.8174 106.79 9.32934 105.24C5.18265 102.526 4.76798 96.6152 4.76798 92.3513C4.76798 85.9555 6.01199 79.6566 7.98167 73.5515C12.0247 61.0506 19.2814 49.7126 26.7454 38.7622C29.7518 34.3046 33.5875 28.1026 40.0148 28.0057C41.3625 28.0057 42.6065 28.1995 43.6432 28.8778C44.9909 29.6531 46.0275 30.8159 47.4789 31.3974C50.8999 32.7541 54.2173 31.1066 56.9126 29.1685C62.3033 25.2923 67.7977 21.8037 73.914 19.1872C79.9267 16.5707 86.3541 14.6326 92.8851 13.4697C99.6235 12.3069 106.362 12.113 113.1 12.113C119.942 12.113 127.095 12.0161 133.626 9.7873C136.944 8.62443 139.743 6.88012 142.956 5.42653C145.963 4.06984 149.384 3.87603 152.701 4.45746C156.122 5.0389 159.543 6.10487 162.757 7.17084C165.971 8.2368 168.977 9.49658 171.983 10.9502C177.374 13.6635 181.935 17.4429 185.356 22.2882C188.466 26.7459 190.332 31.785 191.473 37.0179C192.509 42.3478 192.613 47.8714 191.991 53.2981C191.265 59.5001 189.192 65.4114 187.533 71.4196C185.667 77.9123 184.32 84.6957 185.771 91.4792C186.911 97.0028 189.918 102.236 193.961 106.306C196.034 108.341 198.418 110.085 201.01 111.539C203.602 112.992 205.986 109.213 203.394 107.759C198.315 104.949 194.272 100.588 191.991 95.5492C189.296 89.6379 189.607 83.1452 191.058 76.9433C192.509 70.5474 194.997 64.2485 196.138 57.7558C197.174 52.1353 197.485 46.3209 196.863 40.7004C195.619 29.5562 190.851 18.6058 181.313 11.4347C175.715 7.26774 169.288 4.55437 162.55 2.42244C155.5 0.193595 148.036 -1.55071 140.987 1.55028C137.877 2.90697 135.078 4.84509 131.76 5.81415C128.547 6.78321 125.229 7.26774 121.912 7.46155C114.863 7.94608 107.71 7.46155 100.66 8.04299C86.8724 9.30277 73.4994 13.5666 61.9923 20.5439C59.1933 22.2882 56.6016 24.2263 53.9062 26.0675C52.8696 26.8428 51.2109 28.0057 49.8632 27.7149C48.5156 27.5211 47.4789 26.1644 46.3385 25.4861C40.5332 21.8037 33.0691 24.7108 28.7151 28.9747C26.3308 31.3974 24.4648 34.2076 22.5987 36.921C20.7327 39.7313 18.8667 42.4447 17.0007 45.3518C13.3724 51.1662 9.95134 57.0775 7.15233 63.2795C4.45698 69.1908 2.27997 75.4897 1.03596 81.8855C-0.000711307 87.8936 -0.726382 94.3864 0.932294 100.298C1.65796 102.817 2.7983 105.24 4.56065 107.178C6.53032 109.31 9.22567 110.473 12.232 110.763C14.8237 111.054 18.2447 110.473 20.0071 112.702C21.5621 114.737 21.6657 117.547 21.8731 119.97C22.1841 123.652 22.4951 127.334 22.9097 131.017C23.1171 133.246 25.8124 133.827 27.2638 132.083C43.6432 112.217 54.6319 88.4751 59.0896 63.6671C60.3336 56.6899 61.0593 49.6157 61.3703 42.5416C61.3703 41.2818 60.2299 40.4096 59.0896 40.4096C54.4246 40.2158 51.2109 45.0611 49.1376 48.3559C46.9605 51.9415 45.5092 55.8177 44.5762 59.7909C42.7102 68.2217 43.0212 76.7494 44.1615 85.2772C45.4055 95.3554 47.3752 105.434 46.5459 115.609C45.7165 125.59 40.9478 134.699 36.9048 143.808C32.1361 154.662 27.2638 165.419 22.4951 176.272C21.9767 177.338 23.0134 178.695 24.1538 178.985C25.2941 179.373 26.3308 178.598 26.8491 177.532Z" fill="#41B1F1"/>
<path d="M69.146 75.0053C70.079 72.8734 71.0121 70.8384 72.4634 68.9972C73.6037 67.5436 75.3661 66.1869 77.3358 65.7024C78.2688 65.5085 79.2018 65.4116 80.1348 65.7024C80.3421 65.7993 80.8604 65.8962 80.8604 65.8962C80.7568 65.8962 81.2751 66.1869 81.2751 66.09C81.1714 66.09 81.5861 66.3807 81.5861 66.3807C81.4824 66.1869 81.6898 66.6714 81.6898 66.7683C81.8971 67.4467 81.8971 68.6095 81.7934 69.4817C81.7934 69.6755 81.7934 69.9662 81.6898 70.16C81.6898 69.8693 81.6898 70.3538 81.5861 70.4508C81.5861 70.6446 81.4824 70.8384 81.3788 71.0322C81.4824 70.7415 81.2751 71.226 81.1714 71.3229C80.9641 71.6136 81.3788 71.1291 81.1714 71.3229C81.1714 71.3229 80.8604 71.6136 80.9641 71.5167C81.1714 71.4198 80.4458 71.7105 80.6531 71.7105C80.0311 72.0013 79.6164 71.9044 78.9944 72.0013C77.4394 72.0982 75.8844 72.0982 74.4331 71.9043C73.1891 71.7105 71.9451 72.1951 71.5304 73.4548C71.2194 74.5208 71.9451 75.9744 73.1891 76.1682C75.0551 76.4589 76.9211 76.5558 78.7871 76.4589C80.6531 76.362 82.5191 76.0713 83.9705 74.9084C86.2511 73.0672 86.3548 70.0631 86.1475 67.4467C86.0438 65.7024 85.5255 64.055 84.0741 62.989C82.6228 61.923 80.9641 61.4385 79.0981 61.3416C75.6771 61.1478 72.3597 62.6983 69.9754 64.8302C67.28 67.3498 65.725 70.7415 64.3774 73.9394C63.9627 75.0053 64.8957 76.362 66.036 76.6527C67.591 76.9435 68.7314 76.1682 69.146 75.0053Z" fill="#41B1F1"/>
<path d="M147.415 59.1127C146.482 59.7911 145.445 60.2756 144.408 60.3725C143.268 60.4694 142.231 60.2756 141.506 59.9849C141.195 59.888 140.987 59.6942 140.78 59.5973C140.676 59.5004 140.469 59.4034 140.365 59.3065C140.365 59.3065 140.573 59.4034 140.365 59.3065C140.158 59.1127 139.951 58.9189 139.743 58.7251C139.432 58.4344 139.432 58.4344 139.329 58.2406C139.225 58.0468 139.018 57.756 138.914 57.5622C138.81 57.3684 138.914 57.5622 138.914 57.5622C138.81 57.4653 138.81 57.2715 138.81 57.1746C138.707 56.9808 138.707 56.787 138.603 56.4963C138.499 56.0117 138.603 56.3025 138.603 56.3994C138.603 56.3025 138.603 56.1086 138.603 56.0117C138.603 55.9148 138.603 55.3334 138.603 55.4303C138.603 55.721 138.603 55.2365 138.707 55.2365C138.707 55.1396 138.81 55.0427 138.81 54.9458C138.81 54.8489 139.018 54.5581 138.81 54.8489C138.81 54.752 138.914 54.655 139.018 54.5581C139.121 54.4612 139.121 54.3643 139.225 54.2674C139.018 54.5581 139.329 54.1705 139.329 54.1705C139.64 53.9767 139.121 54.2674 139.432 54.0736C139.536 53.9767 139.64 53.9767 139.743 53.8798C139.951 53.686 139.847 53.7829 140.262 53.686C140.884 53.4922 141.091 53.4922 141.817 53.4922C144.305 53.5891 146.689 54.752 148.866 56.0117C149.488 56.3994 150.214 56.787 150.836 57.1746C150.939 57.2715 151.043 57.2715 151.147 57.3684C151.769 57.756 151.043 57.2715 151.354 57.5622C151.458 57.6591 151.561 57.756 151.665 57.853C151.561 57.6591 151.561 57.756 151.561 57.853C151.561 58.0468 151.561 57.9499 151.561 57.853C151.561 58.0468 151.561 58.3375 151.561 58.5313C151.561 58.9189 151.561 59.3065 151.561 59.7911C151.561 60.5663 151.458 61.3416 151.354 62.1168C151.147 63.2797 151.665 64.4426 153.013 64.8302C154.153 65.1209 155.708 64.4426 155.916 63.2797C156.227 61.3416 156.434 59.3065 156.123 57.2715C155.812 55.1396 154.361 54.0736 152.495 53.0076C149.281 51.0695 145.86 49.3252 142.024 49.1314C138.396 48.9376 134.767 50.7788 134.042 54.3643C133.42 57.756 135.078 60.9539 137.981 62.989C141.402 65.3147 146.378 65.3147 149.799 62.8921C150.836 62.2137 151.354 61.0509 150.628 59.888C150.006 58.9189 148.451 58.3375 147.415 59.1127Z" fill="#41B1F1"/>
<path d="M147.829 22.4822C147.726 22.4822 147.726 22.4822 147.622 22.4822C148.14 22.676 148.762 22.8698 149.281 23.1606L149.177 23.0637C149.384 23.3544 149.592 23.742 149.799 24.0327C149.799 24.3234 149.695 24.6142 149.695 24.9049C149.384 25.1956 149.177 25.3894 148.866 25.6801C148.97 25.6801 148.97 25.5832 149.073 25.5832C148.659 25.6801 148.244 25.777 147.933 25.8739L147.829 25.777C148.037 25.9708 148.244 26.0678 148.451 26.2616C148.659 26.4554 148.866 26.5523 148.97 26.7461C149.384 27.1337 149.903 27.5213 150.317 28.0059C151.25 28.878 152.184 29.7502 153.013 30.7192C154.672 32.4636 156.123 34.4017 157.471 36.3398C160.166 40.313 162.239 44.4799 163.794 48.9376C166.904 57.9499 167.734 67.7374 165.971 77.1373C164.935 82.564 162.861 87.7 161.306 93.0299C160.477 95.9371 159.751 98.8442 159.44 101.848C159.129 105.046 159.544 108.147 160.166 111.345C161.306 117.547 163.069 123.555 163.691 129.757C164.002 132.858 164.105 135.959 164.105 139.06C164.105 141.192 164.105 144.003 162.136 145.553C160.373 146.91 157.885 146.716 155.812 146.038C153.428 145.359 151.561 143.712 150.11 141.871C146.482 137.51 145.238 131.695 143.994 126.366C143.372 123.652 138.914 124.815 139.536 127.528C140.78 133.052 142.231 138.77 145.652 143.421C148.866 147.782 154.05 151.367 159.959 150.689C162.965 150.398 165.66 148.945 167.215 146.425C168.874 143.615 168.874 140.223 168.77 137.122C168.667 129.951 167.63 122.877 165.971 115.9C165.142 112.605 164.313 109.213 164.105 105.821C163.898 102.43 164.416 99.135 165.246 95.8402C166.904 89.7351 169.392 83.9207 170.533 77.7187C172.399 66.8652 171.466 55.5272 167.319 45.2552C165.038 39.4408 161.825 34.0141 157.678 29.1687C155.708 26.843 153.428 24.5173 151.043 22.676C149.488 21.4163 146.793 20.7379 145.549 22.8698C144.512 24.7111 145.756 26.7461 147.933 26.9399C149.177 27.0368 150.214 25.8739 150.214 24.808C150.214 23.3544 149.177 22.5791 147.829 22.4822Z" fill="#41B1F1"/>
<path d="M137.981 125.784C131.346 137.413 123.571 149.526 111.339 156.503C109.784 157.376 108.229 158.248 106.57 158.829C104.704 159.507 103.149 159.701 101.387 158.829C97.5509 156.988 93.7152 155.147 90.0868 152.918C84.0741 149.332 79.0981 144.39 74.8478 139.06C69.8717 132.761 65.8287 125.881 61.7857 119.098C60.3343 116.675 56.2913 118.807 57.7427 121.326C65.2067 134.021 73.1891 147.297 86.1475 155.825C89.7758 158.248 93.9225 159.992 97.7582 162.027C99.7279 163.093 101.698 164.062 103.978 163.965C106.155 163.868 108.229 162.996 110.095 162.124C116.937 158.926 122.846 154.081 127.718 148.654C133.316 142.355 137.774 135.281 141.92 128.013C143.372 125.59 139.329 123.361 137.981 125.784Z" fill="#41B1F1"/>
<path d="M142.542 124.718C141.091 123.361 139.225 122.392 137.67 121.23C136.633 120.551 135.493 119.776 134.456 119.098C133.938 118.807 133.42 118.419 133.005 118.129C132.798 118.032 132.59 117.838 132.487 117.741C132.383 117.644 131.761 117.256 132.176 117.547C129.999 115.997 127.614 113.574 126.889 111.054C126.059 108.244 128.547 105.918 131.243 105.143C134.249 104.368 138.707 105.531 139.329 108.729C140.054 107.856 140.78 106.887 141.609 106.015C140.573 106.112 142.231 106.306 142.024 106.403C141.92 106.5 142.024 106.209 142.024 106.112C142.231 105.821 142.231 105.531 142.439 105.24C142.957 104.465 143.786 103.883 144.719 103.69C146.482 103.108 149.281 103.593 150.214 105.337C151.458 107.469 148.762 110.57 147.622 112.314C145.86 114.931 143.89 117.353 141.817 119.679C140.987 120.551 140.884 121.908 141.817 122.78C142.646 123.555 144.305 123.652 145.134 122.78C148.348 119.291 151.458 115.512 153.739 111.345C154.775 109.407 155.605 107.178 155.086 104.949C154.672 103.011 153.22 101.461 151.458 100.395C147.83 98.3597 142.853 98.7473 139.743 101.655C138.396 102.914 137.463 104.659 137.463 106.5C137.463 108.535 139.329 110.667 141.713 110.376C143.268 110.182 144.305 109.116 143.994 107.663C143.061 103.496 138.499 100.976 134.249 100.589C129.895 100.201 125.126 102.43 123.053 106.112C120.772 110.376 123.053 114.64 126.059 117.935C128.029 120.067 130.206 121.617 132.694 123.265C134.145 124.234 135.493 125.106 136.944 126.075C137.566 126.462 138.085 126.85 138.707 127.238C139.121 127.528 138.707 127.238 138.707 127.238C138.81 127.335 138.914 127.432 139.121 127.528C139.225 127.625 139.432 127.722 139.536 127.916C141.298 129.757 144.616 126.656 142.542 124.718Z" fill="#41B1F1"/>
<path d="M160.27 149.429C162.239 151.949 162.965 155.05 163.276 158.054C163.691 161.543 163.794 165.128 163.587 168.617C163.172 175.691 161.617 182.668 158.922 189.258C158.507 190.324 159.44 191.68 160.581 191.971C161.928 192.262 162.965 191.583 163.483 190.421C166.386 183.25 167.941 175.788 168.356 168.132C168.563 164.45 168.356 160.67 167.941 157.085C167.526 153.596 166.697 150.108 164.416 147.2C163.691 146.231 162.343 145.747 161.203 146.425C160.062 147.007 159.544 148.46 160.27 149.429Z" fill="#41B1F1"/>
<path d="M71.0121 65.024C69.3534 69.5786 72.3597 74.8115 77.2321 76.1682C78.3724 76.5558 79.8238 75.7806 80.1348 74.6177C80.4458 73.4548 79.7201 72.292 78.4761 71.9043C78.3724 71.9043 78.2688 71.8074 78.1651 71.8074C77.7504 71.7105 78.6834 72.0012 78.2688 71.9043C78.0614 71.8074 77.9578 71.7105 77.7504 71.6136C77.5431 71.5167 77.3358 71.4198 77.1284 71.226C76.8174 71.0322 77.4394 71.5167 77.2321 71.3229C77.1284 71.226 77.1284 71.226 77.0248 71.1291C76.8174 70.9353 76.7138 70.8384 76.5064 70.6446C76.4028 70.5476 76.4028 70.5476 76.2991 70.4507C76.0918 70.16 76.2991 70.4507 76.4028 70.5477C76.1954 70.16 75.8844 69.8693 75.6771 69.4817C75.6771 69.3848 75.5734 69.2879 75.5734 69.191C75.3661 68.8033 75.7808 69.6755 75.6771 69.2879C75.5734 69.0941 75.5734 68.9002 75.4698 68.7064C75.3661 68.5126 75.3661 68.3188 75.3661 68.125C75.3661 68.0281 75.2624 67.9312 75.2624 67.8343C75.2624 67.9312 75.3661 68.4157 75.2624 68.0281C75.2624 67.6405 75.2624 67.2528 75.2624 66.8652C75.2624 66.5745 75.1588 67.4466 75.2624 67.059C75.2624 66.9621 75.2624 66.8652 75.3661 66.7683C75.4698 66.5745 75.4698 66.3807 75.5734 66.09C75.9881 65.024 75.1588 63.6673 73.9148 63.3766C72.5671 63.2797 71.4267 63.8611 71.0121 65.024Z" fill="#41B1F1"/>
<path d="M144.408 54.1705C144.616 54.8489 144.823 55.5272 144.927 56.2055C144.927 56.3994 144.927 56.3994 144.927 56.0117C144.927 56.1086 144.927 56.2055 144.927 56.3025C144.927 56.4963 144.927 56.5932 144.927 56.787C144.927 57.0777 144.927 57.3684 144.927 57.756C144.927 57.9499 144.719 58.3375 144.927 57.756C144.927 57.9499 144.823 58.0468 144.823 58.2406C144.719 58.5313 144.616 58.822 144.512 59.1127C144.408 59.3065 144.408 59.4035 144.305 59.5004C144.201 59.6942 144.201 59.6942 144.408 59.3065C144.408 59.4034 144.305 59.5004 144.305 59.5973C144.097 59.9849 143.89 60.2756 143.683 60.6632C143.061 61.6323 143.372 63.0859 144.512 63.6673C145.652 64.2488 147.104 63.958 147.726 62.8921C148.659 61.3416 149.281 59.6942 149.488 57.853C149.695 56.2055 149.281 54.5581 148.762 53.0076C148.451 51.9417 147.104 51.0695 145.86 51.4571C144.927 51.8448 144.097 53.0076 144.408 54.1705Z" fill="#41B1F1"/>
<path d="M146.896 21.5131C144.097 21.3193 142.646 24.0327 142.853 26.2615C143.061 28.4904 144.201 30.6223 145.549 32.4635C147.829 35.7583 150.628 38.6655 153.427 41.5727C158.715 47.1933 164.52 53.1045 165.971 60.6632C166.179 61.8261 167.734 62.5044 168.874 62.2137C170.222 61.923 170.74 60.6632 170.533 59.5003C169.185 52.5231 164.416 46.8056 159.648 41.4758C157.263 38.9562 154.775 36.4367 152.495 33.8202C151.354 32.5604 150.317 31.2038 149.384 29.8471C148.866 29.0718 148.348 28.2966 148.037 27.5213C147.829 27.0368 147.622 26.4554 147.518 25.9708C147.415 25.0018 147.726 25.8739 146.896 25.777C148.14 25.8739 149.177 24.711 149.177 23.6451C149.281 22.3853 148.244 21.6101 146.896 21.5131Z" fill="#41B1F1"/>
<path d="M117.766 82.6609C113.827 76.6527 109.784 70.5476 107.088 64.0549C104.704 58.2406 102.527 51.0695 104.289 44.7706C105.015 42.1542 106.674 39.7315 109.576 38.9563C112.686 38.0841 114.552 39.8284 116.004 42.2511C117.662 45.1582 118.181 48.4531 118.699 51.5541C119.217 55.0427 119.528 58.5313 120.358 61.923C122.224 69.6755 125.645 77.1373 130.517 83.63C131.243 84.599 132.59 85.0836 133.731 84.4052C134.767 83.8238 135.286 82.3702 134.56 81.4011C129.895 75.1022 126.578 68.125 124.815 60.6632C123.053 53.3953 123.675 45.1583 119.217 38.6655C117.144 35.6615 113.93 33.8202 109.991 34.3048C106.466 34.6924 103.356 36.7274 101.49 39.6346C97.4472 46.0304 99.1059 54.8489 101.283 61.4385C104.082 69.7724 108.954 77.3311 113.723 84.6959C115.278 87.2155 119.321 85.0836 117.766 82.6609Z" fill="#41B1F1"/>
<path d="M54.4253 161.833C81.6898 172.687 112.583 178.889 141.609 170.264C149.385 167.938 156.952 164.644 163.794 160.573C166.282 159.023 164.002 155.341 161.41 156.794C149.592 163.868 136.011 168.326 122.016 169.586C107.814 170.846 93.4042 169.101 79.7201 165.613C71.8414 163.578 64.17 161.058 56.706 158.151C55.5656 157.666 54.218 157.86 53.4923 158.926C52.974 159.798 53.285 161.446 54.4253 161.833Z" fill="#41B1F1"/>
<path d="M148.348 186.447C153.324 185.091 158.196 183.54 162.965 181.699C164.105 181.311 165.038 180.245 164.624 178.986C164.313 178.017 162.965 177.047 161.721 177.435C156.952 179.276 152.08 180.827 147.104 182.184C145.963 182.474 145.134 183.734 145.445 184.897C145.86 186.06 147.104 186.835 148.348 186.447Z" fill="#41B1F1"/>
<path d="M53.9069 183.249C66.5543 187.707 79.8237 190.421 93.3005 191.486C94.5445 191.583 95.5812 190.421 95.5812 189.355C95.5812 188.095 94.5445 187.32 93.3005 187.223C80.2384 186.157 67.3837 183.443 55.1509 179.179C54.0106 178.792 52.5593 179.664 52.2483 180.73C51.9373 181.796 52.7666 182.862 53.9069 183.249Z" fill="#41B1F1"/>
<path d="M126.37 181.602C119.114 184.897 111.961 188.192 104.704 191.487C105.844 191.874 106.985 192.359 108.125 192.746C105.948 186.35 97.0325 183.346 91.4345 187.901C88.9465 189.936 87.5988 193.134 87.9098 196.235C88.3245 199.53 90.5015 202.146 93.7152 203.406C97.1362 204.763 101.076 204.181 103.875 201.952C105.741 200.499 103.771 197.785 101.594 198.27C97.5509 199.336 95.6849 203.406 96.5142 206.991C97.3435 210.771 101.179 213.969 104.808 215.616C109.265 217.651 113.619 214.938 115.278 210.965C116.833 207.379 116.107 203.503 113.516 200.499C113.205 201.759 112.79 202.921 112.479 204.181C118.906 202.243 125.126 199.433 130.724 195.944C129.895 195.944 129.169 195.944 128.34 195.944C134.042 199.82 143.164 200.208 147.726 194.588C151.769 189.645 149.385 181.408 142.128 181.021C138.707 180.827 135.493 182.668 134.456 185.672C133.731 187.513 136.219 188.967 137.877 188.095C143.475 185.285 144.719 177.338 139.743 173.462C134.56 169.489 126.578 171.33 124.401 177.338C123.26 180.536 124.193 184.122 126.578 186.544C128.651 188.579 131.968 185.478 129.895 183.443C128.444 182.087 128.236 179.858 128.962 178.113C129.791 176.272 131.865 175.4 133.938 175.691C136.011 175.982 137.774 177.338 138.085 179.276C138.396 181.311 137.359 183.346 135.389 184.315C136.53 185.091 137.67 185.963 138.81 186.738C139.329 185.381 141.402 184.994 142.853 185.381C144.823 186.06 145.341 188.482 144.719 190.227C143.994 192.552 141.609 193.909 139.121 194.2C136.115 194.684 133.109 193.618 130.621 191.971C129.999 191.583 128.858 191.583 128.236 191.971C122.949 195.363 117.248 197.979 111.131 199.82C109.369 200.402 108.954 202.146 110.095 203.503C111.442 205.053 111.546 207.282 110.924 209.123C110.613 209.996 109.991 210.868 109.162 211.449C108.125 212.224 107.296 212.031 106.259 211.449C104.186 210.286 101.801 208.639 101.076 206.41C100.557 204.956 101.076 202.825 102.734 202.437C102.009 201.177 101.179 200.014 100.454 198.754C98.7949 200.014 96.3069 199.82 94.5445 198.851C92.4712 197.689 91.9529 195.46 92.6785 193.328C93.5079 191.196 95.4775 189.742 97.8619 189.936C100.246 190.033 102.631 191.68 103.356 193.812C103.875 195.266 105.43 195.75 106.777 195.072C114.034 191.777 121.187 188.482 128.444 185.188C131.45 184.122 129.066 180.342 126.37 181.602Z" fill="#41B1F1"/>
<path d="M126.267 145.069C127.303 147.588 128.858 149.817 131.139 151.561C133.42 153.402 136.53 154.953 139.64 154.662C146.482 154.081 148.762 145.941 148.97 140.708C149.073 139.545 147.829 138.576 146.689 138.576C145.341 138.576 144.408 139.545 144.408 140.708C144.305 142.84 143.786 145.262 142.853 147.104C142.439 147.976 141.92 148.751 141.298 149.332C140.676 149.914 140.262 150.205 139.432 150.301C137.67 150.495 135.493 149.139 134.353 148.266C132.798 147.007 131.657 145.456 130.932 143.809C130.413 142.743 129.377 141.968 128.029 142.258C126.785 142.646 125.748 144.003 126.267 145.069Z" fill="#41B1F1"/>
<path d="M135.597 136.831C136.011 137.994 136.322 139.157 136.53 140.32C136.53 140.126 136.426 139.932 136.426 139.739C136.53 140.611 136.633 141.483 136.53 142.355C136.53 143.518 137.67 144.584 138.81 144.487C140.054 144.39 141.091 143.518 141.091 142.355C141.195 140.126 140.78 137.8 139.951 135.669C139.743 135.087 139.432 134.699 138.914 134.409C138.396 134.118 137.67 134.021 137.152 134.215C136.115 134.506 135.182 135.669 135.597 136.831Z" fill="#41B1F1"/>
</g>
<path d="M176.841 254.373C182.723 253.078 189.285 252.426 194.599 249.443" stroke="#41B1F1" stroke-width="4" stroke-linecap="round" stroke-linejoin="round"/>
<path d="M196.732 233.671C192.319 226.769 186.603 217.976 184.938 230.385C184.004 237.347 183.059 244.19 185.296 251.02C186.474 254.616 189.658 259.037 189.224 262.271" stroke="#41B1F1" stroke-width="4" stroke-linecap="round" stroke-linejoin="round"/>
<path d="M207.667 206.758C206.412 217.011 205.923 227.11 205.997 237.412" stroke="#41B1F1" stroke-width="4" stroke-linecap="round" stroke-linejoin="round"/>
<path d="M205.109 261.995C213.933 263.957 219.476 254.759 207.994 258.695" stroke="#41B1F1" stroke-width="4" stroke-linecap="round" stroke-linejoin="round"/>
<path d="M87.1528 235.441C89.3893 247.341 92.564 258.861 96.5801 270.287C97.6656 273.376 101.066 281.697 101.887 278.528C103.495 272.329 103.762 265.494 104.641 259.153C104.753 258.345 106.246 247.065 107.266 249.025C110.294 254.842 111.388 268.222 118.181 271.179C120.752 272.299 133.531 238.257 134.892 234.854" stroke="#41B1F1" stroke-width="4" stroke-linecap="round" stroke-linejoin="round"/>
<path d="M96.8597 297.464C95.6569 308.829 96.2443 320.262 97.566 331.605C98.4792 339.441 101.079 347.425 101.365 355.289C101.444 357.464 103.072 349.667 101.128 348.763" stroke="#41B1F1" stroke-width="4" stroke-linecap="round" stroke-linejoin="round"/>
<path d="M109.479 311.703C110.834 319.795 111.341 326.855 110.321 334.949" stroke="#41B1F1" stroke-width="4" stroke-linecap="round" stroke-linejoin="round"/>
<path d="M121.829 318.58C122.076 325.337 122.322 332.093 122.569 338.85C122.725 343.103 122.941 349.027 122.646 340.959C122.404 334.335 122.132 327.951 124.97 321.804C127.125 317.135 130.24 315.731 131.356 321.915C132.217 326.69 131.797 331.643 132.156 336.462C132.205 337.122 132.612 335.223 132.827 334.599C134.018 331.145 136.286 328.198 138.468 325.338C139.218 324.354 145.805 314.592 147.675 318.06C150.765 323.79 149.014 334.485 149.248 340.888" stroke="#41B1F1" stroke-width="4" stroke-linecap="round" stroke-linejoin="round"/>
<path d="M174.707 341.162C173.567 332.65 175.396 325.968 177.48 317.773C177.808 316.484 182.198 300.664 183.627 304C186.107 309.789 185.701 316.693 186.196 322.839C186.636 328.308 187.751 333.308 190.126 325.626C192.57 317.723 195.421 309.624 199.214 302.282C201.737 297.399 206.138 289.507 206.961 299.212C208.101 312.658 211.261 326.488 209.724 339.904" stroke="#41B1F1" stroke-width="4" stroke-linecap="round" stroke-linejoin="round"/>
<path d="M233.145 318.186C227.146 310.791 221.099 315.812 221.403 324.125C221.689 331.98 229.809 333.075 232.764 326.169C233.61 324.192 235.016 314.704 235.466 315.514C238.864 321.64 241.284 328.713 244.641 334.937" stroke="#41B1F1" stroke-width="4" stroke-linecap="round" stroke-linejoin="round"/>
<path d="M253.214 303.966C257.561 309.167 263.777 319.63 270.792 321.723" stroke="#41B1F1" stroke-width="4" stroke-linecap="round" stroke-linejoin="round"/>
<path d="M270.198 305.806C262.809 316.666 257.328 329.177 249.675 339.636" stroke="#41B1F1" stroke-width="4" stroke-linecap="round" stroke-linejoin="round"/>
<path d="M142.323 248.5C140.483 252.429 131.86 266.873 139.89 269.778C145.117 271.668 149.308 264.047 150.119 259.972C151.546 252.805 146.279 243.025 139.337 250" stroke="#41B1F1" stroke-width="4" stroke-linecap="round" stroke-linejoin="round"/>
<path d="M163.721 246C159.529 245.676 157.106 248.607 156.478 252.722C155.697 257.842 157.862 268.276 164.855 262.194C167.275 260.089 173.905 249.723 169.14 246.972C163.967 243.986 159.032 249.578 156.755 253.5" stroke="#41B1F1" stroke-width="4" stroke-linecap="round" stroke-linejoin="round"/>
<defs>
<clipPath id="clip0">
<rect width="204.432" height="216.391" fill="white"/>
</clipPath>
</defs>
</svg>
