<svg fill="none" height="182" viewBox="0 0 291 182" width="291" xmlns="http://www.w3.org/2000/svg" xmlns:xlink="http://www.w3.org/1999/xlink"><clipPath id="a"><path d="m0 0h291v182h-291z"/></clipPath><g clip-path="url(#a)" fill="#01b0ff"><path d="m246.779 148.474c-5.706 1.596-10.342 5.188-9.629 7.982.714 2.793 6.063 1.995 11.769.399 5.706-1.597 10.698-3.991 9.985-7.184-.713-2.794-6.419-3.193-12.125-1.197z"/><path d="m276.022 83.8154c-7.846 2.3946-11.412 5.1884-10.342 9.1794 1.07 3.9911 5.706 5.5875 13.195 3.1929 7.845-2.3947 12.838-6.7848 11.768-10.7759-.713-3.991-6.776-3.991-14.621-1.5964z"/><path d="m200.062 112.153c-7.845 2.395-12.838 7.184-11.768 10.776 1.07 3.991 6.419 1.597 14.264-.798 7.846-2.394 12.126-3.193 11.056-6.785-.714-3.592-5.706-5.188-13.552-3.193z"/><path d="m237.507 64.2585c-5.706 1.5964-11.055 6.7848-10.342 9.5785.713 2.7938 7.489 4.3902 13.195 2.7938 5.706-1.5965 10.342-6.7849 9.629-9.5786-.357-2.7937-6.776-4.3902-12.482-2.7937z"/><path d="m151.563 84.2147c-5.706 1.5964-8.203 6.3857-7.489 9.1794.713 2.7937 4.636 4.3902 10.341 2.7937 5.706-1.5964 10.699-5.9865 9.986-8.7803-.713-3.1928-7.133-4.7893-12.838-3.1928z"/><path d="m171.533 168.03c-5.706 1.597-7.489 6.785-6.776 9.579s4.636 5.588 9.986 3.991c5.705-1.596 11.411-7.184 10.698-9.978-.357-2.793-8.202-5.188-13.908-3.592z"/><path d="m110.551 135.702c-7.845 2.394-13.1945 10.376-12.1247 14.367 1.0699 3.991 7.8457 1.996 15.6907-.399 7.846-2.394 15.335-4.789 14.622-8.78-1.07-3.592-10.342-7.583-18.188-5.188z"/><path d="m203.628 13.1704c-7.489 2.3946-14.264 6.7848-13.551 10.7758 1.07 3.9911 9.272 6.3857 17.118 3.9911 7.845-2.3946 15.334-9.5785 14.621-13.5696-.713-3.592-10.342-3.592-18.188-1.1973z"/><path d="m79.5255 67.8507c-7.8456 2.3946-12.4816 10.7758-11.7683 14.7669 1.0698 3.9911 8.5588 7.1839 16.4044 4.7893 7.8455-2.3947 9.9853-8.3813 9.272-12.3723-1.0698-3.592-6.4191-9.5786-13.9081-7.1839z"/><path d="m26.746 95.3904c-5.3492 1.5964-9.6287 6.7846-8.9154 9.5786.7132 2.794 5.7059 1.197 11.4117-.399 5.7059-1.597 9.2721-2.794 8.5589-5.5877-.7133-2.7937-5.3493-5.1884-11.0552-3.5919z"/><path d="m120.893.798021c-5.706 1.596419-7.845 3.991059-7.132 7.183909.713 2.79377 3.923 3.59197 9.272 1.99553 5.706-1.59643 8.559-4.39017 7.845-7.18391-.713-2.79374074-4.279-3.591953-9.985-1.995529z"/><path d="m11.056 29.1358c-5.34929 1.9955-11.768412 4.3902-11.05517659 7.1839.71323559 2.7937 7.13235659 1.1973 12.48157659-.7982 5.7059-1.5964 8.2022-2.3947 7.489-5.1884-.3566-2.7937-3.2095-2.7937-8.9154-1.1973z"/></g></svg>