<svg width="291" height="182" viewBox="0 0 291 182" fill="none" xmlns="http://www.w3.org/2000/svg">
<g clip-path="url(#clip0)">
<path d="M246.779 148.474C241.073 150.07 236.437 153.662 237.15 156.456C237.864 159.249 243.213 158.451 248.919 156.855C254.625 155.258 259.617 152.864 258.904 149.671C258.191 146.877 252.485 146.478 246.779 148.474Z" fill="#01B0FF"/>
<path d="M276.022 83.8154C268.176 86.21 264.61 89.0038 265.68 92.9948C266.75 96.9859 271.386 98.5823 278.875 96.1877C286.72 93.793 291.713 89.4029 290.643 85.4118C289.93 81.4208 283.867 81.4208 276.022 83.8154Z" fill="#01B0FF"/>
<path d="M200.062 112.153C192.217 114.548 187.224 119.337 188.294 122.929C189.364 126.92 194.713 124.526 202.558 122.131C210.404 119.737 214.684 118.938 213.614 115.346C212.9 111.754 207.908 110.158 200.062 112.153Z" fill="#01B0FF"/>
<path d="M237.507 64.2585C231.801 65.8549 226.452 71.0433 227.165 73.837C227.878 76.6308 234.654 78.2272 240.36 76.6308C246.066 75.0343 250.702 69.8459 249.989 67.0522C249.632 64.2585 243.213 62.662 237.507 64.2585Z" fill="#01B0FF"/>
<path d="M151.563 84.2147C145.857 85.8111 143.36 90.6004 144.074 93.3941C144.787 96.1878 148.71 97.7843 154.415 96.1878C160.121 94.5914 165.114 90.2013 164.401 87.4075C163.688 84.2147 157.268 82.6182 151.563 84.2147Z" fill="#01B0FF"/>
<path d="M171.533 168.03C165.827 169.627 164.044 174.815 164.757 177.609C165.47 180.403 169.393 183.197 174.743 181.6C180.448 180.004 186.154 174.416 185.441 171.622C185.084 168.829 177.239 166.434 171.533 168.03Z" fill="#01B0FF"/>
<path d="M110.551 135.702C102.706 138.096 97.3565 146.078 98.4263 150.069C99.4962 154.06 106.272 152.065 114.117 149.67C121.963 147.276 129.452 144.881 128.739 140.89C127.669 137.298 118.397 133.307 110.551 135.702Z" fill="#01B0FF"/>
<path d="M203.628 13.1704C196.139 15.565 189.364 19.9552 190.077 23.9462C191.147 27.9373 199.349 30.3319 207.195 27.9373C215.04 25.5427 222.529 18.3588 221.816 14.3677C221.103 10.7757 211.474 10.7757 203.628 13.1704Z" fill="#01B0FF"/>
<path d="M79.5255 67.8507C71.6799 70.2453 67.0439 78.6265 67.7572 82.6176C68.827 86.6087 76.316 89.8015 84.1616 87.4069C92.0071 85.0122 94.1469 79.0256 93.4336 75.0346C92.3638 71.4426 87.0145 65.456 79.5255 67.8507Z" fill="#01B0FF"/>
<path d="M26.746 95.3904C21.3968 96.9868 17.1173 102.175 17.8306 104.969C18.5438 107.763 23.5365 106.166 29.2423 104.57C34.9482 102.973 38.5144 101.776 37.8012 98.9823C37.0879 96.1886 32.4519 93.7939 26.746 95.3904Z" fill="#01B0FF"/>
<path d="M120.893 0.798021C115.187 2.39444 113.048 4.78908 113.761 7.98193C114.474 10.7757 117.684 11.5739 123.033 9.97746C128.739 8.38103 131.592 5.58729 130.878 2.79355C130.165 -0.000190739 126.599 -0.798403 120.893 0.798021Z" fill="#01B0FF"/>
<path d="M11.056 29.1358C5.70671 31.1313 -0.712412 33.526 0.000823408 36.3197C0.714059 39.1134 7.13318 37.517 12.4824 35.5215C18.1883 33.9251 20.6846 33.1268 19.9714 30.3331C19.6148 27.5394 16.7619 27.5394 11.056 29.1358Z" fill="#01B0FF"/>
</g>
<defs>
<clipPath id="clip0">
<rect width="291" height="182" fill="white"/>
</clipPath>
</defs>
</svg>
