<svg fill="none" height="150" viewBox="0 0 270 150" width="270" xmlns="http://www.w3.org/2000/svg"><g fill="#7761ab"><path d="m228.97 122.368c-5.294 1.316-9.595 4.277-8.933 6.579.661 2.303 5.625 1.645 10.919.329s9.926-3.289 9.264-5.921c-.661-2.302-5.955-2.631-11.25-.987z"/><path d="m256.102 69.0788c-7.279 1.9737-10.588 4.2763-9.595 7.5658.992 3.2894 5.294 4.6052 12.242 2.6315 7.28-1.9736 11.912-5.5921 10.92-8.8815-.662-3.2895-6.287-3.2895-13.567-1.3158z"/><path d="m185.625 92.4343c-7.28 1.9737-11.912 5.921-10.919 8.8817.992 3.289 5.956 1.316 13.235-.658 7.279-1.9737 11.25-2.6316 10.257-5.5922-.661-2.9605-5.294-4.2763-12.573-2.6315z"/><path d="m220.368 52.9605c-5.295 1.3157-10.258 5.5921-9.596 7.8947s6.948 3.6184 12.243 2.3026c5.294-1.3158 9.595-5.5921 8.933-7.8947-.33-2.3026-6.286-3.6184-11.58-2.3026z"/><path d="m140.625 69.4078c-5.294 1.3158-7.61 5.2632-6.948 7.5658.661 2.3026 4.301 3.6184 9.595 2.3026s9.927-4.9342 9.265-7.2368c-.662-2.6316-6.618-3.9474-11.912-2.6316z"/><path d="m159.154 138.487c-5.294 1.316-6.948 5.592-6.286 7.895.661 2.302 4.301 4.605 9.264 3.289 5.294-1.316 10.589-5.921 9.927-8.224-.331-2.302-7.61-4.276-12.905-2.96z"/><path d="m102.574 111.842c-7.2799 1.974-12.2431 8.553-11.2505 11.842.9927 3.29 7.2794 1.645 14.5585-.329 7.28-1.974 14.228-3.947 13.567-7.237-.993-2.96-9.596-6.25-16.875-4.276z"/><path d="m188.934 10.8553c-6.949 1.9737-13.236 5.5921-12.574 8.8816.993 3.2894 8.603 5.2631 15.882 3.2894 7.28-1.9737 14.228-7.8947 13.567-11.1842-.662-2.96051-9.596-2.96051-16.875-.9868z"/><path d="m73.7867 55.921c-7.2794 1.9737-11.5809 8.8816-10.9191 12.1711.9926 3.2894 7.9411 5.921 15.2206 3.9473 7.2794-1.9737 9.2647-6.9079 8.6029-10.1973-.9927-2.9606-5.9559-7.8948-12.9044-5.9211z"/><path d="m24.816 78.6184c-4.9632 1.3158-8.9338 5.5921-8.272 7.8947.6617 2.3027 5.2941.9869 10.5882-.3289s8.6029-2.3026 7.9412-4.6053c-.6618-2.3026-4.9633-4.2763-10.2574-2.9605z"/><path d="m112.169.65792c-5.294 1.31579-7.279 3.28947-6.617 5.92105.661 2.30263 3.639 2.96053 8.602 1.64474 5.295-1.31579 7.942-3.61842 7.28-5.92105-.662-2.30263423-3.971-2.960529-9.265-1.64474z"/><path d="m10.2572 24.0131c-4.96324 1.6447-10.919119 3.6184-10.25735406 5.921.66176506 2.3026 6.61764406.9869 11.58085406-.6579 5.2941-1.3158 7.6103-1.9737 6.9486-4.2763-.3309-2.3026-2.978-2.3026-8.2721-.9868z"/></g></svg>