<svg width="270" height="150" viewBox="0 0 270 150" fill="none" xmlns="http://www.w3.org/2000/svg">
<path d="M228.97 122.368C223.676 123.684 219.375 126.645 220.037 128.947C220.698 131.25 225.662 130.592 230.956 129.276C236.25 127.96 240.882 125.987 240.22 123.355C239.559 121.053 234.265 120.724 228.97 122.368Z" fill="#7761AB"/>
<path d="M256.102 69.0788C248.823 71.0525 245.514 73.3551 246.507 76.6446C247.499 79.934 251.801 81.2498 258.749 79.2761C266.029 77.3025 270.661 73.684 269.669 70.3946C269.007 67.1051 263.382 67.1051 256.102 69.0788Z" fill="#7761AB"/>
<path d="M185.625 92.4343C178.345 94.408 173.713 98.3553 174.706 101.316C175.698 104.605 180.662 102.632 187.941 100.658C195.22 98.6843 199.191 98.0264 198.198 95.0658C197.537 92.1053 192.904 90.7895 185.625 92.4343Z" fill="#7761AB"/>
<path d="M220.368 52.9605C215.073 54.2762 210.11 58.5526 210.772 60.8552C211.434 63.1578 217.72 64.4736 223.015 63.1578C228.309 61.842 232.61 57.5657 231.948 55.2631C231.618 52.9605 225.662 51.6447 220.368 52.9605Z" fill="#7761AB"/>
<path d="M140.625 69.4078C135.331 70.7236 133.015 74.671 133.677 76.9736C134.338 79.2762 137.978 80.592 143.272 79.2762C148.566 77.9604 153.199 74.342 152.537 72.0394C151.875 69.4078 145.919 68.092 140.625 69.4078Z" fill="#7761AB"/>
<path d="M159.154 138.487C153.86 139.803 152.206 144.079 152.868 146.382C153.529 148.684 157.169 150.987 162.132 149.671C167.426 148.355 172.721 143.75 172.059 141.447C171.728 139.145 164.449 137.171 159.154 138.487Z" fill="#7761AB"/>
<path d="M102.574 111.842C95.2941 113.816 90.3309 120.395 91.3235 123.684C92.3162 126.974 98.6029 125.329 105.882 123.355C113.162 121.381 120.11 119.408 119.449 116.118C118.456 113.158 109.853 109.868 102.574 111.842Z" fill="#7761AB"/>
<path d="M188.934 10.8553C181.985 12.829 175.698 16.4474 176.36 19.7369C177.353 23.0263 184.963 25 192.242 23.0263C199.522 21.0526 206.47 15.1316 205.809 11.8421C205.147 8.88159 196.213 8.88159 188.934 10.8553Z" fill="#7761AB"/>
<path d="M73.7867 55.921C66.5073 57.8947 62.2058 64.8026 62.8676 68.0921C63.8602 71.3815 70.8087 74.0131 78.0882 72.0394C85.3676 70.0657 87.3529 65.1315 86.6911 61.8421C85.6984 58.8815 80.7352 53.9473 73.7867 55.921Z" fill="#7761AB"/>
<path d="M24.816 78.6184C19.8528 79.9342 15.8822 84.2105 16.544 86.5131C17.2057 88.8158 21.8381 87.5 27.1322 86.1842C32.4263 84.8684 35.7351 83.8816 35.0734 81.5789C34.4116 79.2763 30.1101 77.3026 24.816 78.6184Z" fill="#7761AB"/>
<path d="M112.169 0.65792C106.875 1.97371 104.89 3.94739 105.552 6.57897C106.213 8.8816 109.191 9.5395 114.154 8.22371C119.449 6.90792 122.096 4.60529 121.434 2.30266C120.772 2.57688e-05 117.463 -0.657869 112.169 0.65792Z" fill="#7761AB"/>
<path d="M10.2572 24.0131C5.29396 25.6578 -0.661919 27.6315 -0.000154056 29.9341C0.661611 32.2367 6.61749 30.921 11.5807 29.2762C16.8748 27.9604 19.191 27.3025 18.5293 24.9999C18.1984 22.6973 15.5513 22.6973 10.2572 24.0131Z" fill="#7761AB"/>
</svg>
