<svg width="30" height="30" fill="none" xmlns="http://www.w3.org/2000/svg"><path d="M15 0C6.717 0 0 6.717 0 15c0 8.283 6.717 15 15 15 8.283 0 15-6.717 15-15 0-8.283-6.717-15-15-15zm6.849 11.695c.006.148.01.296.01.445 0 4.55-3.463 9.796-9.796 9.796a9.746 9.746 0 01-5.278-1.546c.27.032.544.047.822.047 1.613 0 3.097-.55 4.276-1.474a3.447 3.447 0 01-3.217-2.39 3.425 3.425 0 001.555-.06 3.444 3.444 0 01-2.762-3.375v-.044c.465.258.995.414 1.56.43a3.44 3.44 0 01-1.066-4.596 9.775 9.775 0 007.097 3.598 3.444 3.444 0 015.867-3.14 6.906 6.906 0 002.186-.836 3.456 3.456 0 01-1.514 1.905 6.866 6.866 0 001.977-.543 6.994 6.994 0 01-1.717 1.783z" fill="#41B1F1"/></svg>