<svg fill="none" height="12" viewBox="0 0 15 12" width="15" xmlns="http://www.w3.org/2000/svg"><path clip-rule="evenodd" d="m9.25099 11.724c.14798.1739.3578.276.58235.276.22466 0 .43436-.1021.58236-.276l4.375-5.14258c.2791-.328.279-.83485 0-1.16283l-4.375-5.142538c-.3131-.3680258-.85161-.3681127-1.16475 0m.00004 11.447948c-.27908-.328-.27906-.8349-.00004-1.1629l3.24905-3.77849h-11.75c-.49767 0-.75-.37519-.75-.78259s.252329-.78263.75-.78263h11.75l-3.24901-3.77846c-.27907-.328-.27902-.834911-.00004-1.162878" fill="#41b1f1" fill-rule="evenodd" opacity=".7"/></svg>