<svg width="15" height="12" viewBox="0 0 15 12" fill="none" xmlns="http://www.w3.org/2000/svg">
<g opacity="0.7">
<path fill-rule="evenodd" clip-rule="evenodd" d="M9.25099 11.724C9.39897 11.8979 9.60879 12 9.83334 12C10.058 12 10.2677 11.8979 10.4157 11.724L14.7907 6.58142C15.0698 6.25342 15.0697 5.74657 14.7907 5.41859L10.4157 0.276052C10.1026 -0.0919738 9.56409 -0.0920607 9.25095 0.276052M9.25099 11.724C8.97191 11.396 8.97193 10.8891 9.25095 10.5611L12.5 6.78261H0.75C0.25233 6.78261 0 6.40742 0 6.00002C0 5.59262 0.252329 5.21739 0.75 5.21739H12.5L9.25099 1.43893C8.97192 1.11093 8.97197 0.604019 9.25095 0.276052" fill="#41B1F1"/>
</g>
</svg>
