<svg width="24" height="24" viewBox="0 0 24 24" fill="none" xmlns="http://www.w3.org/2000/svg">
<path d="M22.4616 4H1.53848C0.688594 4 0 3.32862 0 2.50002C0 1.67142 0.688594 1 1.53848 1H22.4616C23.3114 1 24 1.67138 24 2.50002C24 3.32867 23.3114 4 22.4616 4Z" fill="#323341"/>
<path d="M13.5 13H1.50002C0.671377 13 0 12.3286 0 11.5C0 10.6714 0.671377 10 1.50002 10H13.5C14.3286 10 15 10.6714 15 11.5C15 12.3286 14.3286 13 13.5 13Z" fill="#323341"/>
<path d="M22.3334 13H19.6667C18.746 13 18 12.3286 18 11.5C18 10.6714 18.746 10 19.6667 10H22.3334C23.254 10 24 10.6714 24 11.5C24 12.3286 23.254 13 22.3334 13Z" fill="#708DB1"/>
<path d="M22.4616 22H1.53848C0.688594 22 0 21.3286 0 20.5C0 19.6714 0.688594 19 1.53848 19H22.4616C23.3114 19 24 19.6714 24 20.5C24 21.3286 23.3114 22 22.4616 22Z" fill="#323341"/>
</svg>
