<svg fill="none" height="24" viewBox="0 0 24 24" width="24" xmlns="http://www.w3.org/2000/svg"><path d="m22.4616 4h-20.92312c-.849886 0-1.53848-.67138-1.53848-1.49998s.688594-1.50002 1.53848-1.50002h20.92312c.8498 0 1.5384.67138 1.5384 1.50002 0 .82865-.6886 1.49998-1.5384 1.49998z" fill="#323341"/><path d="m13.5 13h-11.99998c-.828643 0-1.50002-.6714-1.50002-1.5s.671377-1.5 1.50002-1.5h11.99998c.8286 0 1.5.6714 1.5 1.5s-.6714 1.5-1.5 1.5z" fill="#323341"/><path d="m22.3334 13h-2.6667c-.9207 0-1.6667-.6714-1.6667-1.5s.746-1.5 1.6667-1.5h2.6667c.9206 0 1.6666.6714 1.6666 1.5s-.746 1.5-1.6666 1.5z" fill="#708db1"/><path d="m22.4616 22h-20.92312c-.849886 0-1.53848-.6714-1.53848-1.5s.688594-1.5 1.53848-1.5h20.92312c.8498 0 1.5384.6714 1.5384 1.5s-.6886 1.5-1.5384 1.5z" fill="#323341"/></svg>