<svg fill="none" height="20" viewBox="0 0 20 20" width="20" xmlns="http://www.w3.org/2000/svg"><path d="m16.6581 16.2627c-.0455 2.7707-1.5336 3.7732-3.1131 3.6803-1.5796-.0925-2.6782-.8192-3.80005-.8192l-.04597.0255c-1.12183 0-2.22042.7521-3.79998.8446-1.5796.0925-3.06763-.8594-3.11315-3.6301.09157-2.5438 2.04481-2.7309 3.7085-5.7359 1.46491-2.64615 3.20472-2.43201 3.20472-2.43201h.04588s1.75485-.20265 3.20475 2.43201c1.6557 3.0091 3.6169 3.0909 3.7084 5.6348zm-9.77987-9.20837c1.39908-.10526 2.41274-1.76854 2.26398-3.71511-.14876-1.94654-1.40359-3.439239-2.80268-3.33397806-1.39909.10526106-2.41274 1.76857806-2.26398 3.71511806.14876 1.94653 1.40354 3.43923 2.80268 3.33397zm5.30277.0338c1.3673.36979 2.8993-.8724 3.4219-2.77452.5225-1.90212-.1622-3.743883-1.5294-4.113666-1.3672-.369784-2.8993.872406-3.4218 2.774526-.5226 1.90208.1621 3.74388 1.5293 4.11366zm6.3344-1.52297c-1.1906-.32206-2.5248.75963-2.9799 2.41606-.455 1.65642.1413 3.26018 1.3319 3.58228 1.1906.322 2.5248-.7597 2.9799-2.41615.4551-1.65633-.1412-3.26017-1.3319-3.58219zm-14.05094 2.41593c-.45509-1.65634-1.7892-2.73807-2.97985-2.41606-1.190647.32201-1.786973 1.92585-1.331879 3.58223.455095 1.65634 1.789249 2.73804 2.979899 2.41604 1.1906-.322 1.78688-1.92579 1.33183-3.58221z" fill="#41b1f1" opacity=".5"/></svg>