<svg width="20" height="20" viewBox="0 0 20 20" fill="none" xmlns="http://www.w3.org/2000/svg">
<g opacity="0.5">
<path d="M16.6581 16.2627C16.6126 19.0334 15.1245 20.0359 13.545 19.943C11.9654 19.8505 10.8668 19.1238 9.74495 19.1238L9.69898 19.1493C8.57715 19.1493 7.47856 19.9014 5.899 19.9939C4.3194 20.0864 2.83137 19.1345 2.78585 16.3638C2.87742 13.82 4.83066 13.6329 6.49435 10.6279C7.95926 7.98175 9.69907 8.19589 9.69907 8.19589H9.74495C9.74495 8.19589 11.4998 7.99324 12.9497 10.6279C14.6054 13.637 16.5666 13.7188 16.6581 16.2627ZM6.87823 7.05433C8.27731 6.94907 9.29097 5.28579 9.14221 3.33922C8.99345 1.39268 7.73862 -0.100019 6.33953 0.00524194C4.94044 0.110503 3.92679 1.77382 4.07555 3.72036C4.22431 5.66689 5.47909 7.15959 6.87823 7.05433ZM12.181 7.08813C13.5483 7.45792 15.0803 6.21573 15.6029 4.31361C16.1254 2.41149 15.4407 0.569727 14.0735 0.199944C12.7063 -0.16984 11.1742 1.07235 10.6517 2.97447C10.1291 4.87655 10.8138 6.71835 12.181 7.08813ZM18.5154 5.56516C17.3248 5.2431 15.9906 6.32479 15.5355 7.98122C15.0805 9.63764 15.6768 11.2414 16.8674 11.5635C18.058 11.8855 19.3922 10.8038 19.8473 9.14735C20.3024 7.49102 19.7061 5.88718 18.5154 5.56516ZM4.46446 7.98109C4.00937 6.32475 2.67526 5.24302 1.48461 5.56503C0.293963 5.88704 -0.302363 7.49088 0.152731 9.14726C0.607826 10.8036 1.94198 11.8853 3.13263 11.5633C4.32323 11.2413 4.91951 9.63751 4.46446 7.98109Z" fill="#41B1F1"/>
</g>
</svg>
