<svg width="20" height="20" viewBox="0 0 20 20" fill="none" xmlns="http://www.w3.org/2000/svg">
<g opacity="0.5" clip-path="url(#clip0)">
<path d="M19.0064 4.18797C18.4145 3.59605 17.6229 3.24848 16.799 3.20008C16.7506 2.37613 16.403 1.58465 15.8111 0.992734C14.4871 -0.33125 12.333 -0.331211 11.0089 0.992695C10.3536 1.64809 10.0015 2.51754 10.0155 3.44422C10.0151 3.45641 10.0151 3.46863 10.0155 3.4809C10.0672 5.16746 9.00668 7.00215 7.99941 7.99305C7.99711 7.99535 7.99484 7.99758 7.99258 7.99992C7.00164 9.00719 5.16723 10.0681 3.48039 10.0161C3.4682 10.0157 3.45598 10.0157 3.44383 10.0161C2.51656 10.0012 1.64758 10.3541 0.992227 11.0095C-0.331719 12.3334 -0.331719 14.4877 0.992227 15.8116C1.58414 16.4036 2.37566 16.7511 3.19965 16.7995C3.24801 17.6235 3.59555 18.4149 4.1875 19.0069C4.84953 19.6689 5.71891 19.9999 6.58855 19.9998C7.45801 19.9998 8.32773 19.6688 8.98961 19.0069C9.64492 18.3516 9.99695 17.4823 9.98305 16.5558C9.98344 16.5435 9.98344 16.5311 9.98305 16.5187C9.93133 14.8322 10.9919 12.9975 11.9991 12.0066C12.0015 12.0043 12.0037 12.0021 12.006 11.9997C12.997 10.9924 14.8318 9.9307 16.5182 9.98363C16.5304 9.98402 16.5425 9.98398 16.5547 9.98359C17.4813 9.99738 18.351 9.64563 19.0063 8.9902C20.3303 7.66617 20.3303 5.51195 19.0064 4.18797Z" fill="#41B1F1"/>
</g>
<defs>
<clipPath id="clip0">
<rect width="20" height="20" fill="white"/>
</clipPath>
</defs>
</svg>
