<svg fill="none" height="20" viewBox="0 0 20 20" width="20" xmlns="http://www.w3.org/2000/svg" xmlns:xlink="http://www.w3.org/1999/xlink"><clipPath id="a"><path d="m0 0h20v20h-20z"/></clipPath><g clip-path="url(#a)" opacity=".5"><path d="m19.0064 4.18797c-.5919-.59192-1.3835-.93949-2.2074-.98789-.0484-.82395-.396-1.61543-.9879-2.207346-1.324-1.323984-3.4781-1.323945-4.8022-.000039-.6553.655395-1.0074 1.524845-.9934 2.451525-.0004.01219-.0004.02441 0 .03668.0517 1.68656-1.00882 3.52125-2.01609 4.51215-.0023.0023-.00457.00453-.00683.00687-.99094 1.00727-2.82535 2.06818-4.51219 2.01618-.01219-.0004-.02441-.0004-.03656 0-.92727-.0149-1.79625.338-2.451603.9934-1.323946 1.3239-1.323946 3.4782 0 4.8021.591913.592 1.383433.9395 2.207423.9879.04836.824.3959 1.6154.98785 2.2074.66203.662 1.53141.993 2.40105.9929.86946 0 1.73918-.331 2.40106-.9929.65531-.6553 1.00734-1.5246.99344-2.4511.00039-.0123.00039-.0247 0-.0371-.05172-1.6865 1.00885-3.5212 2.01605-4.5121.0024-.0023.0046-.0045.0069-.0069.991-1.0073 2.8258-2.069 4.5122-2.01607.0122.00039.0243.00035.0365-.00004.9266.01379 1.7963-.33796 2.4516-.99339 1.324-1.32403 1.324-3.47825.0001-4.80223z" fill="#41b1f1"/></g></svg>