<svg width="60" height="60" viewBox="0 0 60 60" fill="none" xmlns="http://www.w3.org/2000/svg">
<g opacity="0.2" clip-path="url(#clip0)">
<path d="M59.6338 29.1162L40.8838 10.3662C40.3955 9.87786 39.6045 9.87786 39.1162 10.3662C38.6279 10.8545 38.6279 11.6455 39.1162 12.1337L55.7325 28.75H1.25004C0.559102 28.75 0 29.3091 0 30C0 30.6909 0.559102 31.25 1.25004 31.25H55.7325L39.1162 47.8662C38.6279 48.3545 38.6279 49.1455 39.1162 49.6337C39.3604 49.8778 39.6803 49.9999 40.0001 49.9999C40.3199 49.9999 40.6397 49.8778 40.8839 49.6337L59.6339 30.8837C60.1221 30.3955 60.1221 29.6045 59.6338 29.1162Z" fill="#94A2B3"/>
</g>
<defs>
<clipPath id="clip0">
<rect width="60" height="60" fill="white"/>
</clipPath>
</defs>
</svg>
