<svg width="60" height="60" viewBox="0 0 60 60" fill="none" xmlns="http://www.w3.org/2000/svg">
<g opacity="0.2" clip-path="url(#clip0)">
<path d="M0.366211 29.1162L19.1162 10.3662C19.6045 9.87786 20.3955 9.87786 20.8838 10.3662C21.3721 10.8545 21.3721 11.6455 20.8838 12.1337L4.2675 28.75H58.75C59.4409 28.75 60 29.3091 60 30C60 30.6909 59.4409 31.25 58.75 31.25H4.2675L20.8838 47.8662C21.3721 48.3545 21.3721 49.1455 20.8838 49.6337C20.6396 49.8778 20.3197 49.9999 19.9999 49.9999C19.6801 49.9999 19.3603 49.8778 19.1161 49.6337L0.366093 30.8837C-0.122108 30.3955 -0.122108 29.6045 0.366211 29.1162Z" fill="#94A2B3"/>
</g>
<defs>
<clipPath id="clip0">
<rect width="60" height="60" fill="white" transform="matrix(-1 0 0 1 60 0)"/>
</clipPath>
</defs>
</svg>
