<svg fill="none" height="60" viewBox="0 0 60 60" width="60" xmlns="http://www.w3.org/2000/svg" xmlns:xlink="http://www.w3.org/1999/xlink"><clipPath id="a"><path d="m0 0h60v60h-60z" transform="matrix(-1 0 0 1 60 0)"/></clipPath><g clip-path="url(#a)" opacity=".2"><path d="m.366211 29.1162 18.749989-18.75c.4883-.48834 1.2793-.48834 1.7676 0 .4883.4883.4883 1.2793 0 1.7675l-16.6163 16.6163h54.4825c.6909 0 1.25.5591 1.25 1.25s-.5591 1.25-1.25 1.25h-54.4825l16.6163 16.6162c.4883.4883.4883 1.2793 0 1.7675-.2442.2441-.5641.3662-.8839.3662s-.6396-.1221-.8838-.3662l-18.750007-18.75c-.488201-.4882-.488201-1.2792.000118-1.7675z" fill="#94a2b3"/></g></svg>